<svg width="2004" height="764" viewBox="0 0 2004 764" fill="none" xmlns="http://www.w3.org/2000/svg">
<path d="M1113.5 584.5V637.5H1060.5V584.5H1113.5Z" fill="#FFFF36" stroke="black"/>
<path d="M1079.75 602.5H1094.75L1093.46 619.23C1093.34 620.793 1092.04 622 1090.47 622H1084.03C1082.46 622 1081.16 620.793 1081.04 619.23L1079.75 602.5Z" fill="black"/>
<path d="M1079 601H1095.5" stroke="black" stroke-width="1.5"/>
<path d="M1082.75 612.839C1083.74 611.797 1085.34 611.062 1086.69 611.797C1088.02 612.521 1089 613.168 1090.18 612.961C1090.87 612.838 1091.38 612.276 1091.75 611.674" stroke="#FFFF36" stroke-width="1.5" stroke-linecap="round"/>
<path d="M940.5 251.5V288.5H909.5V251.5H940.5Z" fill="#FFFF36" stroke="black"/>
<path d="M917 263H932V275C932 276.657 930.657 278 929 278H920C918.343 278 917 276.657 917 275V263Z" fill="black"/>
<path d="M930.5 266H933.5C934.328 266 935 266.672 935 267.5V272C935 272.828 934.328 273.5 933.5 273.5H930.5" stroke="black" stroke-width="1.5"/>
<path d="M781.5 205.5V242.5H750.5V205.5H781.5Z" fill="#FFFF36" stroke="black"/>
<path d="M759 215H774L772.713 231.73C772.593 233.293 771.29 234.5 769.722 234.5H763.278C761.71 234.5 760.407 233.293 760.287 231.73L759 215Z" fill="black"/>
<path d="M758.25 213.5H774.75" stroke="black" stroke-width="1.5"/>
<path d="M762 225.339C762.991 224.297 764.587 223.562 765.938 224.297C767.267 225.021 768.248 225.668 769.43 225.461C770.125 225.338 770.631 224.776 771 224.174" stroke="#FFFF36" stroke-width="1.5" stroke-linecap="round"/>
<path d="M396.5 170.5V201.5H365.5V170.5H396.5Z" fill="#FFFF36" stroke="black"/>
<path d="M372 179H387V191C387 192.657 385.657 194 384 194H375C373.343 194 372 192.657 372 191V179Z" fill="black"/>
<path d="M385.5 182H388.5C389.328 182 390 182.672 390 183.5V188C390 188.828 389.328 189.5 388.5 189.5H385.5" stroke="black" stroke-width="1.5"/>
<path d="M427.5 170.5V201.5H396.5V170.5H427.5Z" fill="#FFFF36" stroke="black"/>
<path d="M404.75 177.5H419.75L418.463 194.23C418.343 195.793 417.04 197 415.472 197H409.028C407.46 197 406.157 195.793 406.037 194.23L404.75 177.5Z" fill="black"/>
<path d="M404 176H420.5" stroke="black" stroke-width="1.5"/>
<path d="M407.75 187.839C408.741 186.797 410.337 186.062 411.688 186.797C413.017 187.521 413.998 188.168 415.18 187.961C415.875 187.838 416.381 187.276 416.75 186.674" stroke="#FFFF36" stroke-width="1.5" stroke-linecap="round"/>
</svg>
