<svg width="2004" height="1640" viewBox="0 0 2004 1640" fill="none" xmlns="http://www.w3.org/2000/svg">
<path d="M1113.5 1022.5V1075.5H1060.5V1022.5H1113.5Z" fill="#FFFF36" stroke="black"/>
<path d="M1079.75 1040.5H1094.75L1093.46 1057.23C1093.34 1058.79 1092.04 1060 1090.47 1060H1084.03C1082.46 1060 1081.16 1058.79 1081.04 1057.23L1079.75 1040.5Z" fill="black"/>
<path d="M1079 1039H1095.5" stroke="black" stroke-width="1.5"/>
<path d="M1082.75 1050.84C1083.74 1049.8 1085.34 1049.06 1086.69 1049.8C1088.02 1050.52 1089 1051.17 1090.18 1050.96C1090.87 1050.84 1091.38 1050.28 1091.75 1049.67" stroke="#FFFF36" stroke-width="1.5" stroke-linecap="round"/>
<path d="M940.5 689.5V726.5H909.5V689.5H940.5Z" fill="#FFFF36" stroke="black"/>
<path d="M917 701H932V713C932 714.657 930.657 716 929 716H920C918.343 716 917 714.657 917 713V701Z" fill="black"/>
<path d="M930.5 704H933.5C934.328 704 935 704.672 935 705.5V710C935 710.828 934.328 711.5 933.5 711.5H930.5" stroke="black" stroke-width="1.5"/>
<path d="M781.5 643.5V680.5H750.5V643.5H781.5Z" fill="#FFFF36" stroke="black"/>
<path d="M759 653H774L772.713 669.73C772.593 671.293 771.29 672.5 769.722 672.5H763.278C761.71 672.5 760.407 671.293 760.287 669.73L759 653Z" fill="black"/>
<path d="M758.25 651.5H774.75" stroke="black" stroke-width="1.5"/>
<path d="M762 663.339C762.991 662.297 764.587 661.562 765.938 662.297C767.267 663.021 768.248 663.668 769.43 663.461C770.125 663.338 770.631 662.776 771 662.174" stroke="#FFFF36" stroke-width="1.5" stroke-linecap="round"/>
<path d="M396.5 608.5V639.5H365.5V608.5H396.5Z" fill="#FFFF36" stroke="black"/>
<path d="M372 617H387V629C387 630.657 385.657 632 384 632H375C373.343 632 372 630.657 372 629V617Z" fill="black"/>
<path d="M385.5 620H388.5C389.328 620 390 620.672 390 621.5V626C390 626.828 389.328 627.5 388.5 627.5H385.5" stroke="black" stroke-width="1.5"/>
<path d="M427.5 608.5V639.5H396.5V608.5H427.5Z" fill="#FFFF36" stroke="black"/>
<path d="M404.75 615.5H419.75L418.463 632.23C418.343 633.793 417.04 635 415.472 635H409.028C407.46 635 406.157 633.793 406.037 632.23L404.75 615.5Z" fill="black"/>
<path d="M404 614H420.5" stroke="black" stroke-width="1.5"/>
<path d="M407.75 625.839C408.741 624.797 410.337 624.062 411.688 624.797C413.017 625.521 413.998 626.168 415.18 625.961C415.875 625.838 416.381 625.276 416.75 624.674" stroke="#FFFF36" stroke-width="1.5" stroke-linecap="round"/>
</svg>
