<svg width="300" height="50" viewBox="0 0 300 50" fill="none" xmlns="http://www.w3.org/2000/svg">
<path d="M0.999998 50L30 0V50H0.999998Z" fill="#0E183D"/>
<rect width="240" height="50" transform="translate(30)" fill="#0E183D"/>
<path d="M108.328 35V18.464C108.328 17.8227 108.484 17.242 108.796 16.722C109.108 16.1847 109.524 15.76 110.044 15.448C110.582 15.136 111.171 14.98 111.812 14.98H117.454V18.1H111.916C111.778 18.1 111.656 18.152 111.552 18.256C111.466 18.3427 111.422 18.4467 111.422 18.568V19.92H117.454V23.014H111.422V35H108.328ZM119.322 35V19.92H122.416V35H119.322ZM119.322 18.1V14.98H122.416V18.1H119.322ZM128.899 35C128.258 35 127.677 34.844 127.157 34.532C126.637 34.2027 126.213 33.778 125.883 33.258C125.571 32.738 125.415 32.1573 125.415 31.516V14.954H128.535V31.412C128.535 31.5507 128.579 31.672 128.665 31.776C128.769 31.8627 128.882 31.906 129.003 31.906H131.811V35H128.899ZM137.254 35C136.612 35 136.023 34.844 135.486 34.532C134.966 34.2027 134.55 33.778 134.238 33.258C133.926 32.738 133.77 32.1573 133.77 31.516V15.214H136.864V19.92H142.896V23.014H136.864V31.412C136.864 31.5507 136.907 31.672 136.994 31.776C137.098 31.8627 137.219 31.906 137.358 31.906L142.896 31.906V35H137.254ZM148.424 35C147.783 35 147.202 34.844 146.682 34.532C146.162 34.2027 145.738 33.778 145.408 33.258C145.096 32.738 144.94 32.1573 144.94 31.516V23.404C144.94 22.7627 145.096 22.182 145.408 21.662C145.738 21.142 146.162 20.726 146.682 20.414C147.202 20.0847 147.783 19.92 148.424 19.92L156.77 19.92C157.429 19.92 158.018 20.0847 158.538 20.414C159.058 20.726 159.474 21.142 159.786 21.662C160.098 22.182 160.254 22.7627 160.254 23.404V29.02H148.034V31.412C148.034 31.5507 148.078 31.672 148.164 31.776C148.268 31.8627 148.39 31.906 148.528 31.906H160.254V35H148.424ZM148.034 26.186H157.16V23.508C157.16 23.3693 157.108 23.2567 157.004 23.17C156.918 23.066 156.805 23.014 156.666 23.014L148.528 23.014C148.39 23.014 148.268 23.066 148.164 23.17C148.078 23.2567 148.034 23.3693 148.034 23.508V26.186ZM162.816 35V23.404C162.816 22.7627 162.972 22.182 163.284 21.662C163.613 21.142 164.038 20.726 164.558 20.414C165.095 20.0847 165.676 19.92 166.3 19.92H174.698V23.014H166.404C166.265 23.014 166.144 23.066 166.04 23.17C165.953 23.2567 165.91 23.3693 165.91 23.508V35H162.816ZM179.958 35C179.316 35 178.736 34.844 178.216 34.532C177.696 34.2027 177.271 33.778 176.942 33.258C176.63 32.738 176.474 32.1573 176.474 31.516V31.022H179.568V31.412C179.568 31.5507 179.611 31.672 179.698 31.776C179.802 31.8627 179.923 31.906 180.062 31.906H188.2C188.338 31.906 188.451 31.8627 188.538 31.776C188.642 31.672 188.694 31.5507 188.694 31.412V29.488C188.694 29.3667 188.642 29.2627 188.538 29.176C188.451 29.072 188.338 29.02 188.2 29.02H179.958C179.316 29.02 178.736 28.864 178.216 28.552C177.696 28.2227 177.271 27.798 176.942 27.278C176.63 26.758 176.474 26.1773 176.474 25.536V23.404C176.474 22.7627 176.63 22.182 176.942 21.662C177.271 21.142 177.696 20.726 178.216 20.414C178.736 20.0847 179.316 19.92 179.958 19.92L188.304 19.92C188.962 19.92 189.552 20.0847 190.072 20.414C190.592 20.726 191.008 21.142 191.32 21.662C191.649 22.182 191.814 22.7627 191.814 23.404V23.898H188.694V23.508C188.694 23.3693 188.642 23.2567 188.538 23.17C188.451 23.066 188.338 23.014 188.2 23.014L180.062 23.014C179.923 23.014 179.802 23.066 179.698 23.17C179.611 23.2567 179.568 23.3693 179.568 23.508V25.432C179.568 25.5533 179.611 25.666 179.698 25.77C179.802 25.8567 179.923 25.9 180.062 25.9H188.304C188.962 25.9 189.552 26.0647 190.072 26.394C190.592 26.706 191.008 27.122 191.32 27.642C191.649 28.162 191.814 28.7427 191.814 29.384V31.516C191.814 32.1573 191.649 32.738 191.32 33.258C191.008 33.778 190.592 34.2027 190.072 34.532C189.552 34.844 188.962 35 188.304 35H179.958Z" fill="white"/>
<path d="M299 0L270 50V0H299Z" fill="#0E183D"/>
</svg>
