<svg width="210" height="44" viewBox="0 0 210 44" fill="none" xmlns="http://www.w3.org/2000/svg">
<rect width="210" height="44" fill="white"/>
<path d="M9.4218 30V18.4H24.0218C24.5285 18.4 24.9818 18.5267 25.3818 18.78C25.7818 19.02 26.1018 19.34 26.3418 19.74C26.5818 20.14 26.7018 20.5867 26.7018 21.08V30H24.3218V21.16C24.3218 21.0533 24.2818 20.9667 24.2018 20.9C24.1351 20.82 24.0485 20.78 23.9418 20.78H19.6418C19.5485 20.78 19.4618 20.82 19.3818 20.9C19.3151 20.9667 19.2818 21.0533 19.2818 21.16V30H16.8618V21.16C16.8618 21.0533 16.8285 20.9667 16.7618 20.9C16.6951 20.82 16.6085 20.78 16.5018 20.78H12.1818C12.0885 20.78 12.0018 20.82 11.9218 20.9C11.8551 20.9667 11.8218 21.0533 11.8218 21.16V30H9.4218ZM31.1629 30C30.6696 30 30.2229 29.88 29.8229 29.64C29.4229 29.3867 29.0962 29.06 28.8429 28.66C28.6029 28.26 28.4829 27.8133 28.4829 27.32V21.08C28.4829 20.5867 28.6029 20.14 28.8429 19.74C29.0962 19.34 29.4229 19.02 29.8229 18.78C30.2229 18.5267 30.6696 18.4 31.1629 18.4H37.5829C38.0896 18.4 38.5429 18.5267 38.9429 18.78C39.3429 19.02 39.6629 19.34 39.9029 19.74C40.1429 20.14 40.2629 20.5867 40.2629 21.08V25.4H30.8629V27.24C30.8629 27.3467 30.8962 27.44 30.9629 27.52C31.0429 27.5867 31.1362 27.62 31.2429 27.62H40.2629V30H31.1629ZM30.8629 23.22H37.8829V21.16C37.8829 21.0533 37.8429 20.9667 37.7629 20.9C37.6962 20.82 37.6096 20.78 37.5029 20.78H31.2429C31.1362 20.78 31.0429 20.82 30.9629 20.9C30.8962 20.9667 30.8629 21.0533 30.8629 21.16V23.22ZM44.4505 30C43.9572 30 43.5039 29.88 43.0905 29.64C42.6905 29.3867 42.3705 29.06 42.1305 28.66C41.8905 28.26 41.7705 27.8133 41.7705 27.32V21.08C41.7705 20.5867 41.8905 20.14 42.1305 19.74C42.3705 19.34 42.6905 19.02 43.0905 18.78C43.5039 18.5267 43.9572 18.4 44.4505 18.4H51.1905V14.6H53.5705V30H44.4505ZM44.5505 27.62H50.8105C50.9172 27.62 51.0039 27.5867 51.0705 27.52C51.1505 27.44 51.1905 27.3467 51.1905 27.24V21.16C51.1905 21.0533 51.1505 20.9667 51.0705 20.9C51.0039 20.82 50.9172 20.78 50.8105 20.78H44.5505C44.4439 20.78 44.3505 20.82 44.2705 20.9C44.2039 20.9667 44.1705 21.0533 44.1705 21.16V27.24C44.1705 27.3467 44.2039 27.44 44.2705 27.52C44.3505 27.5867 44.4439 27.62 44.5505 27.62ZM55.6904 30V18.4H58.0704V30H55.6904ZM55.6904 17V14.6H58.0704V17H55.6904ZM62.4134 30C61.92 30 61.4667 29.88 61.0534 29.64C60.6534 29.3867 60.3334 29.06 60.0934 28.66C59.8534 28.26 59.7334 27.8133 59.7334 27.32V23H69.1334V21.16C69.1334 21.0533 69.0934 20.9667 69.0134 20.9C68.9467 20.82 68.86 20.78 68.7534 20.78H59.7334V18.4H68.8334C69.34 18.4 69.7934 18.5267 70.1934 18.78C70.5934 19.02 70.9134 19.34 71.1534 19.74C71.3934 20.14 71.5134 20.5867 71.5134 21.08V30H62.4134ZM62.4934 27.62H69.1334V25.18H62.1134V27.24C62.1134 27.3467 62.1467 27.44 62.2134 27.52C62.2934 27.5867 62.3867 27.62 62.4934 27.62ZM82.2771 30C81.7838 30 81.3304 29.88 80.9171 29.64C80.5171 29.3867 80.1971 29.06 79.9571 28.66C79.7171 28.26 79.5971 27.8133 79.5971 27.32V14.78H81.9771V18.4H86.6171V20.78H81.9771V27.24C81.9771 27.3467 82.0104 27.44 82.0771 27.52C82.1571 27.5867 82.2504 27.62 82.3571 27.62H86.6171V30H82.2771ZM88.3076 30V21.08C88.3076 20.5867 88.4276 20.14 88.6676 19.74C88.9209 19.34 89.2476 19.02 89.6476 18.78C90.0609 18.5267 90.5076 18.4 90.9876 18.4H97.4476V20.78H91.0676C90.9609 20.78 90.8676 20.82 90.7876 20.9C90.7209 20.9667 90.6876 21.0533 90.6876 21.16V30H88.3076ZM101.594 30C101.1 30 100.647 29.88 100.234 29.64C99.8335 29.3867 99.5135 29.06 99.2735 28.66C99.0335 28.26 98.9135 27.8133 98.9135 27.32V18.4H101.294V27.24C101.294 27.3467 101.327 27.44 101.394 27.52C101.474 27.5867 101.567 27.62 101.674 27.62H107.934C108.04 27.62 108.127 27.5867 108.194 27.52C108.274 27.44 108.314 27.3467 108.314 27.24V18.4H110.694V27.32C110.694 27.8133 110.574 28.26 110.334 28.66C110.094 29.06 109.774 29.3867 109.374 29.64C108.974 29.88 108.52 30 108.014 30H101.594ZM115.011 30C114.517 30 114.071 29.88 113.671 29.64C113.271 29.3867 112.944 29.06 112.691 28.66C112.451 28.26 112.331 27.8133 112.331 27.32V21.08C112.331 20.5867 112.451 20.14 112.691 19.74C112.944 19.34 113.271 19.02 113.671 18.78C114.071 18.5267 114.517 18.4 115.011 18.4H124.091V20.78H115.091C114.984 20.78 114.891 20.82 114.811 20.9C114.744 20.9667 114.711 21.0533 114.711 21.16V27.24C114.711 27.3467 114.744 27.44 114.811 27.52C114.891 27.5867 114.984 27.62 115.091 27.62H124.111V30H115.011ZM125.809 30V14.6H128.189V23H130.529L134.769 18.4H137.409V18.96L132.649 24.2L137.409 29.44V30H134.769L130.529 25.4H128.189V30H125.809Z" fill="black"/>
</svg>
