<svg width="140" height="44" viewBox="0 0 140 44" fill="none" xmlns="http://www.w3.org/2000/svg">
<rect width="140" height="44" fill="white"/>
<path d="M12.1477 30C11.6544 30 11.2011 29.88 10.7877 29.64C10.3877 29.3867 10.0677 29.06 9.82773 28.66C9.58773 28.26 9.46773 27.8133 9.46773 27.32V23H18.8677V21.16C18.8677 21.0533 18.8277 20.9667 18.7477 20.9C18.6811 20.82 18.5944 20.78 18.4877 20.78H9.46773V18.4H18.5677C19.0744 18.4 19.5277 18.5267 19.9277 18.78C20.3277 19.02 20.6477 19.34 20.8877 19.74C21.1277 20.14 21.2477 20.5867 21.2477 21.08V30H12.1477ZM12.2277 27.62H18.8677V25.18H11.8477V27.24C11.8477 27.3467 11.8811 27.44 11.9477 27.52C12.0277 27.5867 12.1211 27.62 12.2277 27.62ZM25.5652 30C25.0719 30 24.6252 29.88 24.2252 29.64C23.8252 29.3867 23.4986 29.06 23.2452 28.66C23.0052 28.26 22.8852 27.8133 22.8852 27.32V21.08C22.8852 20.5867 23.0052 20.14 23.2452 19.74C23.4986 19.34 23.8252 19.02 24.2252 18.78C24.6252 18.5267 25.0719 18.4 25.5652 18.4H34.6452V20.78H25.6452C25.5386 20.78 25.4452 20.82 25.3652 20.9C25.2986 20.9667 25.2652 21.0533 25.2652 21.16V27.24C25.2652 27.3467 25.2986 27.44 25.3652 27.52C25.4452 27.5867 25.5386 27.62 25.6452 27.62H34.6652V30H25.5652ZM38.9841 30C38.4908 30 38.0375 29.88 37.6241 29.64C37.2241 29.3867 36.9041 29.06 36.6641 28.66C36.4241 28.26 36.3041 27.8133 36.3041 27.32V14.78H38.6841V18.4H43.3241V20.78H38.6841V27.24C38.6841 27.3467 38.7175 27.44 38.7841 27.52C38.8641 27.5867 38.9575 27.62 39.0641 27.62H43.3241V30H38.9841ZM44.956 30V18.4H47.336V30H44.956ZM44.956 17V14.6H47.336V17H44.956ZM55.1496 30L48.7696 18.4H51.5296L56.3096 27.18L61.0896 18.4H63.8496L57.4296 30H55.1496ZM67.5384 30C67.045 30 66.5917 29.88 66.1784 29.64C65.7784 29.3867 65.4584 29.06 65.2184 28.66C64.9784 28.26 64.8584 27.8133 64.8584 27.32V23H74.2584V21.16C74.2584 21.0533 74.2184 20.9667 74.1384 20.9C74.0717 20.82 73.985 20.78 73.8784 20.78H64.8584V18.4H73.9584C74.465 18.4 74.9184 18.5267 75.3184 18.78C75.7184 19.02 76.0384 19.34 76.2784 19.74C76.5184 20.14 76.6384 20.5867 76.6384 21.08V30H67.5384ZM67.6184 27.62H74.2584V25.18H67.2384V27.24C67.2384 27.3467 67.2717 27.44 67.3384 27.52C67.4184 27.5867 67.5117 27.62 67.6184 27.62ZM81.4451 30C80.9517 30 80.4984 29.88 80.0851 29.64C79.6851 29.3867 79.3651 29.06 79.1251 28.66C78.8851 28.26 78.7651 27.8133 78.7651 27.32V14.78H81.1451V18.4H85.7851V20.78H81.1451V27.24C81.1451 27.3467 81.1784 27.44 81.2451 27.52C81.3251 27.5867 81.4184 27.62 81.5251 27.62H85.7851V30H81.4451ZM87.417 30V18.4H89.797V30H87.417ZM87.417 17V14.6H89.797V17H87.417ZM94.452 30C93.9586 30 93.512 29.88 93.112 29.64C92.712 29.3867 92.3853 29.06 92.132 28.66C91.892 28.26 91.772 27.8133 91.772 27.32V21.08C91.772 20.5867 91.892 20.14 92.132 19.74C92.3853 19.34 92.712 19.02 93.112 18.78C93.512 18.5267 93.9586 18.4 94.452 18.4H100.872C101.379 18.4 101.832 18.5267 102.232 18.78C102.632 19.02 102.952 19.34 103.192 19.74C103.432 20.14 103.552 20.5867 103.552 21.08V27.32C103.552 27.8133 103.432 28.26 103.192 28.66C102.952 29.06 102.632 29.3867 102.232 29.64C101.832 29.88 101.379 30 100.872 30H94.452ZM94.532 27.62H100.792C100.899 27.62 100.985 27.5867 101.052 27.52C101.132 27.44 101.172 27.3467 101.172 27.24V21.16C101.172 21.0533 101.132 20.9667 101.052 20.9C100.985 20.82 100.899 20.78 100.792 20.78H94.532C94.4253 20.78 94.332 20.82 94.252 20.9C94.1853 20.9667 94.152 21.0533 94.152 21.16V27.24C94.152 27.3467 94.1853 27.44 94.252 27.52C94.332 27.5867 94.4253 27.62 94.532 27.62ZM105.23 30V18.4H114.35C114.83 18.4 115.27 18.5267 115.67 18.78C116.084 19.02 116.41 19.34 116.65 19.74C116.89 20.14 117.01 20.5867 117.01 21.08V30H114.63V21.16C114.63 21.0533 114.59 20.9667 114.51 20.9C114.444 20.82 114.364 20.78 114.27 20.78H107.99C107.897 20.78 107.81 20.82 107.73 20.9C107.65 20.9667 107.61 21.0533 107.61 21.16V30H105.23ZM121.501 30C121.008 30 120.561 29.88 120.161 29.64C119.761 29.3867 119.435 29.06 119.181 28.66C118.941 28.26 118.821 27.8133 118.821 27.32V26.94H121.201V27.24C121.201 27.3467 121.235 27.44 121.301 27.52C121.381 27.5867 121.475 27.62 121.581 27.62H127.841C127.948 27.62 128.035 27.5867 128.101 27.52C128.181 27.44 128.221 27.3467 128.221 27.24V25.76C128.221 25.6667 128.181 25.5867 128.101 25.52C128.035 25.44 127.948 25.4 127.841 25.4H121.501C121.008 25.4 120.561 25.28 120.161 25.04C119.761 24.7867 119.435 24.46 119.181 24.06C118.941 23.66 118.821 23.2133 118.821 22.72V21.08C118.821 20.5867 118.941 20.14 119.181 19.74C119.435 19.34 119.761 19.02 120.161 18.78C120.561 18.5267 121.008 18.4 121.501 18.4H127.921C128.428 18.4 128.881 18.5267 129.281 18.78C129.681 19.02 130.001 19.34 130.241 19.74C130.495 20.14 130.621 20.5867 130.621 21.08V21.46H128.221V21.16C128.221 21.0533 128.181 20.9667 128.101 20.9C128.035 20.82 127.948 20.78 127.841 20.78H121.581C121.475 20.78 121.381 20.82 121.301 20.9C121.235 20.9667 121.201 21.0533 121.201 21.16V22.64C121.201 22.7333 121.235 22.82 121.301 22.9C121.381 22.9667 121.475 23 121.581 23H127.921C128.428 23 128.881 23.1267 129.281 23.38C129.681 23.62 130.001 23.94 130.241 24.34C130.495 24.74 130.621 25.1867 130.621 25.68V27.32C130.621 27.8133 130.495 28.26 130.241 28.66C130.001 29.06 129.681 29.3867 129.281 29.64C128.881 29.88 128.428 30 127.921 30H121.501Z" fill="black"/>
</svg>
