<svg width="300" height="234" viewBox="0 0 300 234" fill="none" xmlns="http://www.w3.org/2000/svg">
<rect x="1" y="1" width="298" height="232" fill="white"/>
<rect x="1" y="1" width="298" height="232" stroke="black" stroke-width="2"/>
<path d="M75.5 16.5V53.5H16.5V16.5H75.5Z" fill="#FFC936" stroke="black"/>
<path d="M75.5 62.5V99.5H16.5V62.5H75.5Z" fill="#FF8136" stroke="black"/>
<path d="M75.5 108.5V137.5H16.5V108.5H75.5Z" fill="#C39883" stroke="black"/>
<path d="M43.0918 124.337H39.3995C38.7906 124.337 38.3231 123.798 38.4096 123.195L39.1971 117.71C39.2282 117.494 39.3439 117.299 39.5188 117.169L39.7122 117.024C40.1545 116.694 40.6916 116.516 41.2436 116.516C41.792 116.516 42.3259 116.692 42.7666 117.018L42.9674 117.167C43.1454 117.299 43.2633 117.496 43.2948 117.715L44.0816 123.195C44.1681 123.798 43.7006 124.337 43.0918 124.337Z" fill="black"/>
<path d="M40.2456 127.337V132.944" stroke="black" stroke-width="1.42857"/>
<path d="M42.2456 127.337V132.944" stroke="black" stroke-width="1.42857"/>
<circle cx="1.5" cy="1.5" r="1.5" transform="matrix(1 0 0 -1 39.7456 116.056)" fill="black"/>
<path d="M38.7456 123.337H43.7456L43.0103 132.749H39.5303L38.7456 123.337Z" fill="black"/>
<path d="M50.0597 124.337H48.6751C47.4574 124.337 46.5224 123.258 46.6954 122.053L47.319 117.71C47.35 117.494 47.4657 117.299 47.6406 117.169L47.8341 117.024C48.2763 116.694 48.8135 116.516 49.3654 116.516C49.9138 116.516 50.4477 116.692 50.8884 117.018L51.0892 117.167C51.2673 117.299 51.3851 117.496 51.4166 117.715L52.0394 122.053C52.2125 123.258 51.2774 124.337 50.0597 124.337Z" fill="black"/>
<path d="M48.3674 127.337V132.944" stroke="black" stroke-width="1.42857"/>
<path d="M50.3674 127.337V132.944" stroke="black" stroke-width="1.42857"/>
<circle cx="1.5" cy="1.5" r="1.5" transform="matrix(1 0 0 -1 47.8674 116.056)" fill="black"/>
<path d="M46.8674 123.337H51.8674V127.337H46.8674L46.8674 123.337Z" fill="black"/>
<path d="M26.5698 123.681C25.0601 124.396 24.0167 125.912 24.012 127.669C24.0054 130.121 26.0235 132.114 28.5195 132.12C30.1923 132.125 31.6553 131.236 32.4403 129.911" stroke="black" stroke-width="1.5"/>
<circle cx="1.5" cy="1.5" r="1.5" transform="matrix(1 0 0 -1 25.7288 119.516)" fill="black"/>
<path d="M27.6514 120.072L28.3782 124.226C28.5457 125.183 29.3767 125.881 30.3483 125.881H32.1746C32.5022 125.881 32.809 126.042 32.9959 126.311L34.379 128.302C34.6936 128.755 35.3155 128.868 35.7691 128.554L36.0444 128.364" stroke="black" stroke-width="1.5"/>
<path d="M28.6013 123.14H31.9619" stroke="black" stroke-width="1.5"/>
<rect width="60" height="32" transform="translate(16 146)" fill="#BFF1D5"/>
<rect x="16" y="186" width="60" height="32" rx="4" fill="#5776B8"/>
<path d="M149.05 37.0568C148.875 37.0568 148.724 36.9941 148.599 36.8686C148.473 36.7431 148.411 36.5928 148.411 36.4176C148.411 36.2424 148.473 36.0921 148.599 35.9666C148.724 35.8411 148.875 35.7784 149.05 35.7784C149.225 35.7784 149.375 35.8411 149.501 35.9666C149.626 36.0921 149.689 36.2424 149.689 36.4176C149.689 36.5336 149.659 36.6402 149.6 36.7372C149.543 36.8343 149.466 36.9124 149.369 36.9716C149.275 37.0284 149.168 37.0568 149.05 37.0568ZM151.804 37.0568C151.628 37.0568 151.478 36.9941 151.353 36.8686C151.227 36.7431 151.164 36.5928 151.164 36.4176C151.164 36.2424 151.227 36.0921 151.353 35.9666C151.478 35.8411 151.628 35.7784 151.804 35.7784C151.979 35.7784 152.129 35.8411 152.255 35.9666C152.38 36.0921 152.443 36.2424 152.443 36.4176C152.443 36.5336 152.413 36.6402 152.354 36.7372C152.297 36.8343 152.22 36.9124 152.123 36.9716C152.029 37.0284 151.922 37.0568 151.804 37.0568ZM154.558 37.0568C154.382 37.0568 154.232 36.9941 154.107 36.8686C153.981 36.7431 153.918 36.5928 153.918 36.4176C153.918 36.2424 153.981 36.0921 154.107 35.9666C154.232 35.8411 154.382 35.7784 154.558 35.7784C154.733 35.7784 154.883 35.8411 155.009 35.9666C155.134 36.0921 155.197 36.2424 155.197 36.4176C155.197 36.5336 155.167 36.6402 155.108 36.7372C155.051 36.8343 154.974 36.9124 154.877 36.9716C154.782 37.0284 154.676 37.0568 154.558 37.0568ZM157.311 37.0568C157.136 37.0568 156.986 36.9941 156.86 36.8686C156.735 36.7431 156.672 36.5928 156.672 36.4176C156.672 36.2424 156.735 36.0921 156.86 35.9666C156.986 35.8411 157.136 35.7784 157.311 35.7784C157.487 35.7784 157.637 35.8411 157.762 35.9666C157.888 36.0921 157.951 36.2424 157.951 36.4176C157.951 36.5336 157.921 36.6402 157.862 36.7372C157.805 36.8343 157.728 36.9124 157.631 36.9716C157.536 37.0284 157.43 37.0568 157.311 37.0568ZM160.065 37.0568C159.89 37.0568 159.74 36.9941 159.614 36.8686C159.489 36.7431 159.426 36.5928 159.426 36.4176C159.426 36.2424 159.489 36.0921 159.614 35.9666C159.74 35.8411 159.89 35.7784 160.065 35.7784C160.241 35.7784 160.391 35.8411 160.516 35.9666C160.642 36.0921 160.705 36.2424 160.705 36.4176C160.705 36.5336 160.675 36.6402 160.616 36.7372C160.559 36.8343 160.482 36.9124 160.385 36.9716C160.29 37.0284 160.184 37.0568 160.065 37.0568ZM162.819 37.0568C162.644 37.0568 162.494 36.9941 162.368 36.8686C162.243 36.7431 162.18 36.5928 162.18 36.4176C162.18 36.2424 162.243 36.0921 162.368 35.9666C162.494 35.8411 162.644 35.7784 162.819 35.7784C162.994 35.7784 163.145 35.8411 163.27 35.9666C163.396 36.0921 163.458 36.2424 163.458 36.4176C163.458 36.5336 163.429 36.6402 163.37 36.7372C163.313 36.8343 163.236 36.9124 163.139 36.9716C163.044 37.0284 162.938 37.0568 162.819 37.0568ZM165.573 37.0568C165.398 37.0568 165.248 36.9941 165.122 36.8686C164.997 36.7431 164.934 36.5928 164.934 36.4176C164.934 36.2424 164.997 36.0921 165.122 35.9666C165.248 35.8411 165.398 35.7784 165.573 35.7784C165.748 35.7784 165.899 35.8411 166.024 35.9666C166.15 36.0921 166.212 36.2424 166.212 36.4176C166.212 36.5336 166.183 36.6402 166.124 36.7372C166.067 36.8343 165.99 36.9124 165.893 36.9716C165.798 37.0284 165.692 37.0568 165.573 37.0568ZM168.327 37.0568C168.152 37.0568 168.002 36.9941 167.876 36.8686C167.751 36.7431 167.688 36.5928 167.688 36.4176C167.688 36.2424 167.751 36.0921 167.876 35.9666C168.002 35.8411 168.152 35.7784 168.327 35.7784C168.502 35.7784 168.653 35.8411 168.778 35.9666C168.904 36.0921 168.966 36.2424 168.966 36.4176C168.966 36.5336 168.937 36.6402 168.877 36.7372C168.821 36.8343 168.744 36.9124 168.647 36.9716C168.552 37.0284 168.445 37.0568 168.327 37.0568ZM171.081 37.0568C170.906 37.0568 170.755 36.9941 170.63 36.8686C170.504 36.7431 170.442 36.5928 170.442 36.4176C170.442 36.2424 170.504 36.0921 170.63 35.9666C170.755 35.8411 170.906 35.7784 171.081 35.7784C171.256 35.7784 171.406 35.8411 171.532 35.9666C171.657 36.0921 171.72 36.2424 171.72 36.4176C171.72 36.5336 171.691 36.6402 171.631 36.7372C171.575 36.8343 171.498 36.9124 171.401 36.9716C171.306 37.0284 171.199 37.0568 171.081 37.0568ZM173.835 37.0568C173.66 37.0568 173.509 36.9941 173.384 36.8686C173.258 36.7431 173.196 36.5928 173.196 36.4176C173.196 36.2424 173.258 36.0921 173.384 35.9666C173.509 35.8411 173.66 35.7784 173.835 35.7784C174.01 35.7784 174.16 35.8411 174.286 35.9666C174.411 36.0921 174.474 36.2424 174.474 36.4176C174.474 36.5336 174.444 36.6402 174.385 36.7372C174.328 36.8343 174.252 36.9124 174.154 36.9716C174.06 37.0284 173.953 37.0568 173.835 37.0568ZM176.589 37.0568C176.414 37.0568 176.263 36.9941 176.138 36.8686C176.012 36.7431 175.95 36.5928 175.95 36.4176C175.95 36.2424 176.012 36.0921 176.138 35.9666C176.263 35.8411 176.414 35.7784 176.589 35.7784C176.764 35.7784 176.914 35.8411 177.04 35.9666C177.165 36.0921 177.228 36.2424 177.228 36.4176C177.228 36.5336 177.198 36.6402 177.139 36.7372C177.082 36.8343 177.005 36.9124 176.908 36.9716C176.814 37.0284 176.707 37.0568 176.589 37.0568ZM179.343 37.0568C179.167 37.0568 179.017 36.9941 178.892 36.8686C178.766 36.7431 178.703 36.5928 178.703 36.4176C178.703 36.2424 178.766 36.0921 178.892 35.9666C179.017 35.8411 179.167 35.7784 179.343 35.7784C179.518 35.7784 179.668 35.8411 179.794 35.9666C179.919 36.0921 179.982 36.2424 179.982 36.4176C179.982 36.5336 179.952 36.6402 179.893 36.7372C179.836 36.8343 179.759 36.9124 179.662 36.9716C179.568 37.0284 179.461 37.0568 179.343 37.0568ZM182.097 37.0568C181.921 37.0568 181.771 36.9941 181.646 36.8686C181.52 36.7431 181.457 36.5928 181.457 36.4176C181.457 36.2424 181.52 36.0921 181.646 35.9666C181.771 35.8411 181.921 35.7784 182.097 35.7784C182.272 35.7784 182.422 35.8411 182.548 35.9666C182.673 36.0921 182.736 36.2424 182.736 36.4176C182.736 36.5336 182.706 36.6402 182.647 36.7372C182.59 36.8343 182.513 36.9124 182.416 36.9716C182.321 37.0284 182.215 37.0568 182.097 37.0568ZM184.85 37.0568C184.675 37.0568 184.525 36.9941 184.4 36.8686C184.274 36.7431 184.211 36.5928 184.211 36.4176C184.211 36.2424 184.274 36.0921 184.4 35.9666C184.525 35.8411 184.675 35.7784 184.85 35.7784C185.026 35.7784 185.176 35.8411 185.301 35.9666C185.427 36.0921 185.49 36.2424 185.49 36.4176C185.49 36.5336 185.46 36.6402 185.401 36.7372C185.344 36.8343 185.267 36.9124 185.17 36.9716C185.075 37.0284 184.969 37.0568 184.85 37.0568ZM187.604 37.0568C187.429 37.0568 187.279 36.9941 187.153 36.8686C187.028 36.7431 186.965 36.5928 186.965 36.4176C186.965 36.2424 187.028 36.0921 187.153 35.9666C187.279 35.8411 187.429 35.7784 187.604 35.7784C187.78 35.7784 187.93 35.8411 188.055 35.9666C188.181 36.0921 188.244 36.2424 188.244 36.4176C188.244 36.5336 188.214 36.6402 188.155 36.7372C188.098 36.8343 188.021 36.9124 187.924 36.9716C187.829 37.0284 187.723 37.0568 187.604 37.0568ZM190.358 37.0568C190.183 37.0568 190.033 36.9941 189.907 36.8686C189.782 36.7431 189.719 36.5928 189.719 36.4176C189.719 36.2424 189.782 36.0921 189.907 35.9666C190.033 35.8411 190.183 35.7784 190.358 35.7784C190.533 35.7784 190.684 35.8411 190.809 35.9666C190.935 36.0921 190.998 36.2424 190.998 36.4176C190.998 36.5336 190.968 36.6402 190.909 36.7372C190.852 36.8343 190.775 36.9124 190.678 36.9716C190.583 37.0284 190.477 37.0568 190.358 37.0568ZM193.112 37.0568C192.937 37.0568 192.787 36.9941 192.661 36.8686C192.536 36.7431 192.473 36.5928 192.473 36.4176C192.473 36.2424 192.536 36.0921 192.661 35.9666C192.787 35.8411 192.937 35.7784 193.112 35.7784C193.287 35.7784 193.438 35.8411 193.563 35.9666C193.689 36.0921 193.751 36.2424 193.751 36.4176C193.751 36.5336 193.722 36.6402 193.663 36.7372C193.606 36.8343 193.529 36.9124 193.432 36.9716C193.337 37.0284 193.231 37.0568 193.112 37.0568ZM195.866 37.0568C195.691 37.0568 195.541 36.9941 195.415 36.8686C195.29 36.7431 195.227 36.5928 195.227 36.4176C195.227 36.2424 195.29 36.0921 195.415 35.9666C195.541 35.8411 195.691 35.7784 195.866 35.7784C196.041 35.7784 196.192 35.8411 196.317 35.9666C196.443 36.0921 196.505 36.2424 196.505 36.4176C196.505 36.5336 196.476 36.6402 196.417 36.7372C196.36 36.8343 196.283 36.9124 196.186 36.9716C196.091 37.0284 195.984 37.0568 195.866 37.0568ZM198.62 37.0568C198.445 37.0568 198.295 36.9941 198.169 36.8686C198.044 36.7431 197.981 36.5928 197.981 36.4176C197.981 36.2424 198.044 36.0921 198.169 35.9666C198.295 35.8411 198.445 35.7784 198.62 35.7784C198.795 35.7784 198.946 35.8411 199.071 35.9666C199.196 36.0921 199.259 36.2424 199.259 36.4176C199.259 36.5336 199.23 36.6402 199.17 36.7372C199.114 36.8343 199.037 36.9124 198.94 36.9716C198.845 37.0284 198.738 37.0568 198.62 37.0568ZM201.374 37.0568C201.199 37.0568 201.048 36.9941 200.923 36.8686C200.797 36.7431 200.735 36.5928 200.735 36.4176C200.735 36.2424 200.797 36.0921 200.923 35.9666C201.048 35.8411 201.199 35.7784 201.374 35.7784C201.549 35.7784 201.699 35.8411 201.825 35.9666C201.95 36.0921 202.013 36.2424 202.013 36.4176C202.013 36.5336 201.984 36.6402 201.924 36.7372C201.868 36.8343 201.791 36.9124 201.694 36.9716C201.599 37.0284 201.492 37.0568 201.374 37.0568ZM204.128 37.0568C203.953 37.0568 203.802 36.9941 203.677 36.8686C203.551 36.7431 203.489 36.5928 203.489 36.4176C203.489 36.2424 203.551 36.0921 203.677 35.9666C203.802 35.8411 203.953 35.7784 204.128 35.7784C204.303 35.7784 204.453 35.8411 204.579 35.9666C204.704 36.0921 204.767 36.2424 204.767 36.4176C204.767 36.5336 204.737 36.6402 204.678 36.7372C204.621 36.8343 204.545 36.9124 204.447 36.9716C204.353 37.0284 204.246 37.0568 204.128 37.0568ZM206.882 37.0568C206.707 37.0568 206.556 36.9941 206.431 36.8686C206.305 36.7431 206.243 36.5928 206.243 36.4176C206.243 36.2424 206.305 36.0921 206.431 35.9666C206.556 35.8411 206.707 35.7784 206.882 35.7784C207.057 35.7784 207.207 35.8411 207.333 35.9666C207.458 36.0921 207.521 36.2424 207.521 36.4176C207.521 36.5336 207.491 36.6402 207.432 36.7372C207.375 36.8343 207.298 36.9124 207.201 36.9716C207.107 37.0284 207 37.0568 206.882 37.0568ZM209.636 37.0568C209.46 37.0568 209.31 36.9941 209.185 36.8686C209.059 36.7431 208.996 36.5928 208.996 36.4176C208.996 36.2424 209.059 36.0921 209.185 35.9666C209.31 35.8411 209.46 35.7784 209.636 35.7784C209.811 35.7784 209.961 35.8411 210.087 35.9666C210.212 36.0921 210.275 36.2424 210.275 36.4176C210.275 36.5336 210.245 36.6402 210.186 36.7372C210.129 36.8343 210.052 36.9124 209.955 36.9716C209.861 37.0284 209.754 37.0568 209.636 37.0568ZM212.39 37.0568C212.214 37.0568 212.064 36.9941 211.939 36.8686C211.813 36.7431 211.75 36.5928 211.75 36.4176C211.75 36.2424 211.813 36.0921 211.939 35.9666C212.064 35.8411 212.214 35.7784 212.39 35.7784C212.565 35.7784 212.715 35.8411 212.841 35.9666C212.966 36.0921 213.029 36.2424 213.029 36.4176C213.029 36.5336 212.999 36.6402 212.94 36.7372C212.883 36.8343 212.806 36.9124 212.709 36.9716C212.614 37.0284 212.508 37.0568 212.39 37.0568ZM215.143 37.0568C214.968 37.0568 214.818 36.9941 214.692 36.8686C214.567 36.7431 214.504 36.5928 214.504 36.4176C214.504 36.2424 214.567 36.0921 214.692 35.9666C214.818 35.8411 214.968 35.7784 215.143 35.7784C215.319 35.7784 215.469 35.8411 215.594 35.9666C215.72 36.0921 215.783 36.2424 215.783 36.4176C215.783 36.5336 215.753 36.6402 215.694 36.7372C215.637 36.8343 215.56 36.9124 215.463 36.9716C215.368 37.0284 215.262 37.0568 215.143 37.0568ZM217.897 37.0568C217.722 37.0568 217.572 36.9941 217.446 36.8686C217.321 36.7431 217.258 36.5928 217.258 36.4176C217.258 36.2424 217.321 36.0921 217.446 35.9666C217.572 35.8411 217.722 35.7784 217.897 35.7784C218.073 35.7784 218.223 35.8411 218.348 35.9666C218.474 36.0921 218.537 36.2424 218.537 36.4176C218.537 36.5336 218.507 36.6402 218.448 36.7372C218.391 36.8343 218.314 36.9124 218.217 36.9716C218.122 37.0284 218.016 37.0568 217.897 37.0568ZM220.651 37.0568C220.476 37.0568 220.326 36.9941 220.2 36.8686C220.075 36.7431 220.012 36.5928 220.012 36.4176C220.012 36.2424 220.075 36.0921 220.2 35.9666C220.326 35.8411 220.476 35.7784 220.651 35.7784C220.826 35.7784 220.977 35.8411 221.102 35.9666C221.228 36.0921 221.29 36.2424 221.29 36.4176C221.29 36.5336 221.261 36.6402 221.202 36.7372C221.145 36.8343 221.068 36.9124 220.971 36.9716C220.876 37.0284 220.77 37.0568 220.651 37.0568ZM223.405 37.0568C223.23 37.0568 223.08 36.9941 222.954 36.8686C222.829 36.7431 222.766 36.5928 222.766 36.4176C222.766 36.2424 222.829 36.0921 222.954 35.9666C223.08 35.8411 223.23 35.7784 223.405 35.7784C223.58 35.7784 223.731 35.8411 223.856 35.9666C223.982 36.0921 224.044 36.2424 224.044 36.4176C224.044 36.5336 224.015 36.6402 223.956 36.7372C223.899 36.8343 223.822 36.9124 223.725 36.9716C223.63 37.0284 223.524 37.0568 223.405 37.0568Z" fill="#B4B4B4"/>
<path d="M224.959 37L226.166 29.7273H229.078C229.613 29.7273 230.046 29.8066 230.378 29.9652C230.712 30.1238 230.945 30.344 231.077 30.6257C231.21 30.9051 231.246 31.227 231.184 31.5916C231.134 31.8757 231.034 32.1243 230.882 32.3374C230.733 32.5504 230.548 32.7256 230.328 32.8629C230.108 33.0002 229.869 33.0973 229.611 33.1541L229.597 33.2251C229.871 33.237 230.119 33.3151 230.339 33.4595C230.559 33.6016 230.723 33.8028 230.832 34.0632C230.941 34.3236 230.966 34.6326 230.907 34.9901C230.843 35.3759 230.69 35.7204 230.449 36.0234C230.207 36.3241 229.885 36.562 229.483 36.7372C229.083 36.9124 228.611 37 228.066 37H224.959ZM226.71 35.7429H227.963C228.389 35.7429 228.715 35.66 228.94 35.4943C229.165 35.3286 229.299 35.1096 229.344 34.8374C229.375 34.6361 229.355 34.4586 229.284 34.3047C229.215 34.1508 229.098 34.0301 228.933 33.9425C228.769 33.8549 228.562 33.8111 228.311 33.8111H227.026L226.71 35.7429ZM227.203 32.7706H228.343C228.551 32.7706 228.744 32.7339 228.922 32.6605C229.102 32.5848 229.25 32.4782 229.366 32.3409C229.484 32.2012 229.559 32.0367 229.589 31.8473C229.632 31.5821 229.573 31.3703 229.412 31.2116C229.253 31.0507 229.005 30.9702 228.666 30.9702H227.501L227.203 32.7706ZM231.57 37L232.778 29.7273H235.647C236.196 29.7273 236.648 29.8243 237.003 30.0185C237.361 30.2126 237.612 30.4884 237.756 30.8459C237.903 31.201 237.937 31.62 237.859 32.103C237.779 32.5859 237.605 33.0002 237.337 33.3459C237.072 33.6915 236.726 33.9579 236.3 34.1449C235.876 34.3295 235.385 34.4219 234.827 34.4219H232.905L233.118 33.1861H234.787C235.081 33.1861 235.332 33.1458 235.54 33.0653C235.749 32.9848 235.913 32.8641 236.034 32.7031C236.157 32.5421 236.238 32.3421 236.275 32.103C236.316 31.8591 236.301 31.6555 236.233 31.4922C236.164 31.3265 236.04 31.201 235.86 31.1158C235.68 31.0282 235.443 30.9844 235.15 30.9844H234.113L233.108 37H231.57ZM236.045 33.6903L237.305 37H235.608L234.386 33.6903H236.045ZM238.191 37L239.399 29.7273H244.299L244.086 30.995H240.723L240.439 32.728H243.55L243.337 33.9957H240.226L239.942 35.7322H243.319L243.106 37H238.191ZM245.568 37H243.92L247.638 29.7273H249.62L250.919 37H249.272L248.387 31.3892H248.331L245.568 37ZM245.944 34.1413H249.836L249.63 35.3416H245.738L245.944 34.1413ZM251.795 37L253.002 29.7273H254.54L254.011 32.9339H254.107L257.253 29.7273H259.096L255.868 32.9837L257.92 37H256.081L254.597 34.0099L253.68 34.9403L253.332 37H251.795ZM258.689 37L259.897 29.7273H264.712L264.499 30.995H261.221L260.937 32.728H263.895L263.682 33.9957H260.724L260.227 37H258.689ZM264.884 37H263.237L266.955 29.7273H268.936L270.236 37H268.588L267.704 31.3892H267.647L264.884 37ZM265.261 34.1413H269.153L268.947 35.3416H265.055L265.261 34.1413ZM275.743 31.8402C275.755 31.5443 275.668 31.3158 275.483 31.1548C275.301 30.9938 275.025 30.9134 274.656 30.9134C274.405 30.9134 274.187 30.9489 274.003 31.0199C273.818 31.0885 273.67 31.1844 273.559 31.3075C273.45 31.4283 273.382 31.5679 273.356 31.7266C273.33 31.8568 273.339 31.9704 273.381 32.0675C273.426 32.1645 273.496 32.2486 273.591 32.3196C273.688 32.3883 273.803 32.4486 273.935 32.5007C274.068 32.5504 274.209 32.593 274.358 32.6286L274.983 32.7848C275.288 32.8558 275.563 32.9505 275.807 33.0689C276.053 33.1873 276.259 33.3329 276.425 33.5057C276.593 33.6785 276.711 33.8821 276.78 34.1165C276.848 34.3509 276.858 34.6196 276.808 34.9226C276.732 35.3677 276.556 35.7536 276.279 36.0803C276.002 36.4046 275.639 36.6567 275.189 36.8366C274.739 37.0142 274.218 37.103 273.626 37.103C273.039 37.103 272.543 37.013 272.138 36.8331C271.733 36.6532 271.439 36.3868 271.254 36.0341C271.072 35.679 271.017 35.2398 271.091 34.7166H272.579C272.553 34.9605 272.588 35.1641 272.685 35.3274C272.785 35.4884 272.933 35.6103 273.129 35.6932C273.326 35.7737 273.556 35.8139 273.822 35.8139C274.084 35.8139 274.318 35.776 274.521 35.7003C274.727 35.6245 274.894 35.5192 275.022 35.3842C275.15 35.2493 275.228 35.0942 275.256 34.919C275.285 34.7557 275.26 34.6184 275.182 34.5071C275.104 34.3958 274.978 34.3011 274.805 34.223C274.635 34.1425 274.423 34.0715 274.17 34.0099L273.41 33.8111C272.823 33.6619 272.379 33.4287 272.078 33.1115C271.777 32.7943 271.67 32.367 271.755 31.8295C271.831 31.3892 272.014 31.0045 272.305 30.6754C272.599 30.344 272.968 30.0871 273.413 29.9048C273.861 29.7202 274.349 29.6278 274.88 29.6278C275.42 29.6278 275.875 29.7214 276.247 29.9084C276.619 30.093 276.89 30.3511 277.06 30.6825C277.231 31.014 277.283 31.3999 277.216 31.8402H275.743ZM278.215 30.995L278.428 29.7273H284.401L284.188 30.995H281.962L280.967 37H279.447L280.442 30.995H278.215Z" fill="black"/>
<path d="M149.509 127.057C149.334 127.057 149.183 126.994 149.058 126.869C148.932 126.743 148.869 126.593 148.869 126.418C148.869 126.242 148.932 126.092 149.058 125.967C149.183 125.841 149.334 125.778 149.509 125.778C149.684 125.778 149.834 125.841 149.96 125.967C150.085 126.092 150.148 126.242 150.148 126.418C150.148 126.534 150.118 126.64 150.059 126.737C150.002 126.834 149.925 126.912 149.828 126.972C149.734 127.028 149.627 127.057 149.509 127.057ZM152.263 127.057C152.087 127.057 151.937 126.994 151.812 126.869C151.686 126.743 151.623 126.593 151.623 126.418C151.623 126.242 151.686 126.092 151.812 125.967C151.937 125.841 152.087 125.778 152.263 125.778C152.438 125.778 152.588 125.841 152.714 125.967C152.839 126.092 152.902 126.242 152.902 126.418C152.902 126.534 152.872 126.64 152.813 126.737C152.756 126.834 152.679 126.912 152.582 126.972C152.488 127.028 152.381 127.057 152.263 127.057ZM155.017 127.057C154.841 127.057 154.691 126.994 154.566 126.869C154.44 126.743 154.377 126.593 154.377 126.418C154.377 126.242 154.44 126.092 154.566 125.967C154.691 125.841 154.841 125.778 155.017 125.778C155.192 125.778 155.342 125.841 155.468 125.967C155.593 126.092 155.656 126.242 155.656 126.418C155.656 126.534 155.626 126.64 155.567 126.737C155.51 126.834 155.433 126.912 155.336 126.972C155.241 127.028 155.135 127.057 155.017 127.057ZM157.77 127.057C157.595 127.057 157.445 126.994 157.319 126.869C157.194 126.743 157.131 126.593 157.131 126.418C157.131 126.242 157.194 126.092 157.319 125.967C157.445 125.841 157.595 125.778 157.77 125.778C157.946 125.778 158.096 125.841 158.221 125.967C158.347 126.092 158.41 126.242 158.41 126.418C158.41 126.534 158.38 126.64 158.321 126.737C158.264 126.834 158.187 126.912 158.09 126.972C157.995 127.028 157.889 127.057 157.77 127.057ZM160.524 127.057C160.349 127.057 160.199 126.994 160.073 126.869C159.948 126.743 159.885 126.593 159.885 126.418C159.885 126.242 159.948 126.092 160.073 125.967C160.199 125.841 160.349 125.778 160.524 125.778C160.7 125.778 160.85 125.841 160.975 125.967C161.101 126.092 161.164 126.242 161.164 126.418C161.164 126.534 161.134 126.64 161.075 126.737C161.018 126.834 160.941 126.912 160.844 126.972C160.749 127.028 160.643 127.057 160.524 127.057ZM163.278 127.057C163.103 127.057 162.953 126.994 162.827 126.869C162.702 126.743 162.639 126.593 162.639 126.418C162.639 126.242 162.702 126.092 162.827 125.967C162.953 125.841 163.103 125.778 163.278 125.778C163.453 125.778 163.604 125.841 163.729 125.967C163.855 126.092 163.917 126.242 163.917 126.418C163.917 126.534 163.888 126.64 163.829 126.737C163.772 126.834 163.695 126.912 163.598 126.972C163.503 127.028 163.397 127.057 163.278 127.057ZM166.032 127.057C165.857 127.057 165.707 126.994 165.581 126.869C165.456 126.743 165.393 126.593 165.393 126.418C165.393 126.242 165.456 126.092 165.581 125.967C165.707 125.841 165.857 125.778 166.032 125.778C166.207 125.778 166.358 125.841 166.483 125.967C166.609 126.092 166.671 126.242 166.671 126.418C166.671 126.534 166.642 126.64 166.583 126.737C166.526 126.834 166.449 126.912 166.352 126.972C166.257 127.028 166.151 127.057 166.032 127.057ZM168.786 127.057C168.611 127.057 168.461 126.994 168.335 126.869C168.21 126.743 168.147 126.593 168.147 126.418C168.147 126.242 168.21 126.092 168.335 125.967C168.461 125.841 168.611 125.778 168.786 125.778C168.961 125.778 169.112 125.841 169.237 125.967C169.363 126.092 169.425 126.242 169.425 126.418C169.425 126.534 169.396 126.64 169.336 126.737C169.28 126.834 169.203 126.912 169.106 126.972C169.011 127.028 168.904 127.057 168.786 127.057ZM171.54 127.057C171.365 127.057 171.214 126.994 171.089 126.869C170.963 126.743 170.901 126.593 170.901 126.418C170.901 126.242 170.963 126.092 171.089 125.967C171.214 125.841 171.365 125.778 171.54 125.778C171.715 125.778 171.865 125.841 171.991 125.967C172.116 126.092 172.179 126.242 172.179 126.418C172.179 126.534 172.15 126.64 172.09 126.737C172.034 126.834 171.957 126.912 171.86 126.972C171.765 127.028 171.658 127.057 171.54 127.057ZM174.294 127.057C174.119 127.057 173.968 126.994 173.843 126.869C173.717 126.743 173.655 126.593 173.655 126.418C173.655 126.242 173.717 126.092 173.843 125.967C173.968 125.841 174.119 125.778 174.294 125.778C174.469 125.778 174.619 125.841 174.745 125.967C174.87 126.092 174.933 126.242 174.933 126.418C174.933 126.534 174.903 126.64 174.844 126.737C174.787 126.834 174.711 126.912 174.613 126.972C174.519 127.028 174.412 127.057 174.294 127.057ZM177.048 127.057C176.873 127.057 176.722 126.994 176.597 126.869C176.471 126.743 176.409 126.593 176.409 126.418C176.409 126.242 176.471 126.092 176.597 125.967C176.722 125.841 176.873 125.778 177.048 125.778C177.223 125.778 177.373 125.841 177.499 125.967C177.624 126.092 177.687 126.242 177.687 126.418C177.687 126.534 177.657 126.64 177.598 126.737C177.541 126.834 177.464 126.912 177.367 126.972C177.273 127.028 177.166 127.057 177.048 127.057ZM179.802 127.057C179.626 127.057 179.476 126.994 179.351 126.869C179.225 126.743 179.162 126.593 179.162 126.418C179.162 126.242 179.225 126.092 179.351 125.967C179.476 125.841 179.626 125.778 179.802 125.778C179.977 125.778 180.127 125.841 180.253 125.967C180.378 126.092 180.441 126.242 180.441 126.418C180.441 126.534 180.411 126.64 180.352 126.737C180.295 126.834 180.218 126.912 180.121 126.972C180.027 127.028 179.92 127.057 179.802 127.057ZM182.556 127.057C182.38 127.057 182.23 126.994 182.105 126.869C181.979 126.743 181.916 126.593 181.916 126.418C181.916 126.242 181.979 126.092 182.105 125.967C182.23 125.841 182.38 125.778 182.556 125.778C182.731 125.778 182.881 125.841 183.007 125.967C183.132 126.092 183.195 126.242 183.195 126.418C183.195 126.534 183.165 126.64 183.106 126.737C183.049 126.834 182.972 126.912 182.875 126.972C182.78 127.028 182.674 127.057 182.556 127.057ZM185.309 127.057C185.134 127.057 184.984 126.994 184.858 126.869C184.733 126.743 184.67 126.593 184.67 126.418C184.67 126.242 184.733 126.092 184.858 125.967C184.984 125.841 185.134 125.778 185.309 125.778C185.485 125.778 185.635 125.841 185.76 125.967C185.886 126.092 185.949 126.242 185.949 126.418C185.949 126.534 185.919 126.64 185.86 126.737C185.803 126.834 185.726 126.912 185.629 126.972C185.534 127.028 185.428 127.057 185.309 127.057ZM188.063 127.057C187.888 127.057 187.738 126.994 187.612 126.869C187.487 126.743 187.424 126.593 187.424 126.418C187.424 126.242 187.487 126.092 187.612 125.967C187.738 125.841 187.888 125.778 188.063 125.778C188.239 125.778 188.389 125.841 188.514 125.967C188.64 126.092 188.703 126.242 188.703 126.418C188.703 126.534 188.673 126.64 188.614 126.737C188.557 126.834 188.48 126.912 188.383 126.972C188.288 127.028 188.182 127.057 188.063 127.057ZM190.817 127.057C190.642 127.057 190.492 126.994 190.366 126.869C190.241 126.743 190.178 126.593 190.178 126.418C190.178 126.242 190.241 126.092 190.366 125.967C190.492 125.841 190.642 125.778 190.817 125.778C190.992 125.778 191.143 125.841 191.268 125.967C191.394 126.092 191.456 126.242 191.456 126.418C191.456 126.534 191.427 126.64 191.368 126.737C191.311 126.834 191.234 126.912 191.137 126.972C191.042 127.028 190.936 127.057 190.817 127.057ZM193.571 127.057C193.396 127.057 193.246 126.994 193.12 126.869C192.995 126.743 192.932 126.593 192.932 126.418C192.932 126.242 192.995 126.092 193.12 125.967C193.246 125.841 193.396 125.778 193.571 125.778C193.746 125.778 193.897 125.841 194.022 125.967C194.148 126.092 194.21 126.242 194.21 126.418C194.21 126.534 194.181 126.64 194.122 126.737C194.065 126.834 193.988 126.912 193.891 126.972C193.796 127.028 193.69 127.057 193.571 127.057ZM196.325 127.057C196.15 127.057 196 126.994 195.874 126.869C195.749 126.743 195.686 126.593 195.686 126.418C195.686 126.242 195.749 126.092 195.874 125.967C196 125.841 196.15 125.778 196.325 125.778C196.5 125.778 196.651 125.841 196.776 125.967C196.902 126.092 196.964 126.242 196.964 126.418C196.964 126.534 196.935 126.64 196.876 126.737C196.819 126.834 196.742 126.912 196.645 126.972C196.55 127.028 196.443 127.057 196.325 127.057ZM199.079 127.057C198.904 127.057 198.753 126.994 198.628 126.869C198.503 126.743 198.44 126.593 198.44 126.418C198.44 126.242 198.503 126.092 198.628 125.967C198.753 125.841 198.904 125.778 199.079 125.778C199.254 125.778 199.405 125.841 199.53 125.967C199.655 126.092 199.718 126.242 199.718 126.418C199.718 126.534 199.689 126.64 199.629 126.737C199.573 126.834 199.496 126.912 199.399 126.972C199.304 127.028 199.197 127.057 199.079 127.057ZM201.833 127.057C201.658 127.057 201.507 126.994 201.382 126.869C201.256 126.743 201.194 126.593 201.194 126.418C201.194 126.242 201.256 126.092 201.382 125.967C201.507 125.841 201.658 125.778 201.833 125.778C202.008 125.778 202.158 125.841 202.284 125.967C202.409 126.092 202.472 126.242 202.472 126.418C202.472 126.534 202.443 126.64 202.383 126.737C202.327 126.834 202.25 126.912 202.153 126.972C202.058 127.028 201.951 127.057 201.833 127.057ZM204.587 127.057C204.412 127.057 204.261 126.994 204.136 126.869C204.01 126.743 203.948 126.593 203.948 126.418C203.948 126.242 204.01 126.092 204.136 125.967C204.261 125.841 204.412 125.778 204.587 125.778C204.762 125.778 204.912 125.841 205.038 125.967C205.163 126.092 205.226 126.242 205.226 126.418C205.226 126.534 205.196 126.64 205.137 126.737C205.08 126.834 205.003 126.912 204.906 126.972C204.812 127.028 204.705 127.057 204.587 127.057ZM207.341 127.057C207.166 127.057 207.015 126.994 206.89 126.869C206.764 126.743 206.702 126.593 206.702 126.418C206.702 126.242 206.764 126.092 206.89 125.967C207.015 125.841 207.166 125.778 207.341 125.778C207.516 125.778 207.666 125.841 207.792 125.967C207.917 126.092 207.98 126.242 207.98 126.418C207.98 126.534 207.95 126.64 207.891 126.737C207.834 126.834 207.757 126.912 207.66 126.972C207.566 127.028 207.459 127.057 207.341 127.057ZM210.095 127.057C209.919 127.057 209.769 126.994 209.644 126.869C209.518 126.743 209.455 126.593 209.455 126.418C209.455 126.242 209.518 126.092 209.644 125.967C209.769 125.841 209.919 125.778 210.095 125.778C210.27 125.778 210.42 125.841 210.546 125.967C210.671 126.092 210.734 126.242 210.734 126.418C210.734 126.534 210.704 126.64 210.645 126.737C210.588 126.834 210.511 126.912 210.414 126.972C210.32 127.028 210.213 127.057 210.095 127.057ZM212.849 127.057C212.673 127.057 212.523 126.994 212.398 126.869C212.272 126.743 212.209 126.593 212.209 126.418C212.209 126.242 212.272 126.092 212.398 125.967C212.523 125.841 212.673 125.778 212.849 125.778C213.024 125.778 213.174 125.841 213.3 125.967C213.425 126.092 213.488 126.242 213.488 126.418C213.488 126.534 213.458 126.64 213.399 126.737C213.342 126.834 213.265 126.912 213.168 126.972C213.073 127.028 212.967 127.057 212.849 127.057ZM215.602 127.057C215.427 127.057 215.277 126.994 215.151 126.869C215.026 126.743 214.963 126.593 214.963 126.418C214.963 126.242 215.026 126.092 215.151 125.967C215.277 125.841 215.427 125.778 215.602 125.778C215.778 125.778 215.928 125.841 216.053 125.967C216.179 126.092 216.242 126.242 216.242 126.418C216.242 126.534 216.212 126.64 216.153 126.737C216.096 126.834 216.019 126.912 215.922 126.972C215.827 127.028 215.721 127.057 215.602 127.057ZM218.356 127.057C218.181 127.057 218.031 126.994 217.905 126.869C217.78 126.743 217.717 126.593 217.717 126.418C217.717 126.242 217.78 126.092 217.905 125.967C218.031 125.841 218.181 125.778 218.356 125.778C218.532 125.778 218.682 125.841 218.807 125.967C218.933 126.092 218.996 126.242 218.996 126.418C218.996 126.534 218.966 126.64 218.907 126.737C218.85 126.834 218.773 126.912 218.676 126.972C218.581 127.028 218.475 127.057 218.356 127.057ZM221.11 127.057C220.935 127.057 220.785 126.994 220.659 126.869C220.534 126.743 220.471 126.593 220.471 126.418C220.471 126.242 220.534 126.092 220.659 125.967C220.785 125.841 220.935 125.778 221.11 125.778C221.285 125.778 221.436 125.841 221.561 125.967C221.687 126.092 221.749 126.242 221.749 126.418C221.749 126.534 221.72 126.64 221.661 126.737C221.604 126.834 221.527 126.912 221.43 126.972C221.335 127.028 221.229 127.057 221.11 127.057ZM223.864 127.057C223.689 127.057 223.539 126.994 223.413 126.869C223.288 126.743 223.225 126.593 223.225 126.418C223.225 126.242 223.288 126.092 223.413 125.967C223.539 125.841 223.689 125.778 223.864 125.778C224.039 125.778 224.19 125.841 224.315 125.967C224.441 126.092 224.503 126.242 224.503 126.418C224.503 126.534 224.474 126.64 224.415 126.737C224.358 126.834 224.281 126.912 224.184 126.972C224.089 127.028 223.983 127.057 223.864 127.057Z" fill="#B4B4B4"/>
<path d="M225.418 127L226.625 119.727H229.537C230.072 119.727 230.505 119.807 230.837 119.965C231.171 120.124 231.404 120.344 231.536 120.626C231.669 120.905 231.704 121.227 231.643 121.592C231.593 121.876 231.493 122.124 231.341 122.337C231.192 122.55 231.007 122.726 230.787 122.863C230.567 123 230.328 123.097 230.07 123.154L230.056 123.225C230.33 123.237 230.578 123.315 230.798 123.46C231.018 123.602 231.182 123.803 231.291 124.063C231.4 124.324 231.425 124.633 231.366 124.99C231.302 125.376 231.149 125.72 230.908 126.023C230.666 126.324 230.344 126.562 229.942 126.737C229.542 126.912 229.07 127 228.525 127H225.418ZM227.169 125.743H228.422C228.848 125.743 229.174 125.66 229.399 125.494C229.624 125.329 229.758 125.11 229.803 124.837C229.834 124.636 229.814 124.459 229.743 124.305C229.674 124.151 229.557 124.03 229.392 123.942C229.228 123.855 229.021 123.811 228.77 123.811H227.485L227.169 125.743ZM227.662 122.771H228.802C229.01 122.771 229.203 122.734 229.381 122.661C229.561 122.585 229.709 122.478 229.825 122.341C229.943 122.201 230.018 122.037 230.048 121.847C230.091 121.582 230.032 121.37 229.871 121.212C229.712 121.051 229.464 120.97 229.125 120.97H227.96L227.662 122.771ZM233.283 127H231.635L235.353 119.727H237.335L238.634 127H236.987L236.102 121.389H236.045L233.283 127ZM233.659 124.141H237.551L237.345 125.342H233.453L233.659 124.141ZM239.338 120.995L239.551 119.727H245.524L245.311 120.995H243.085L242.09 127H240.57L241.565 120.995H239.338ZM245.301 127L246.508 119.727H248.046L247.548 122.728H250.67L251.167 119.727H252.701L251.494 127H249.96L250.457 123.996H247.335L246.838 127H245.301ZM252.762 127L253.969 119.727H256.838C257.387 119.727 257.84 119.824 258.195 120.018C258.552 120.213 258.803 120.488 258.948 120.846C259.094 121.201 259.129 121.62 259.051 122.103C258.97 122.586 258.796 123 258.529 123.346C258.263 123.692 257.918 123.958 257.492 124.145C257.068 124.33 256.577 124.422 256.018 124.422H254.097L254.31 123.186H255.979C256.272 123.186 256.523 123.146 256.732 123.065C256.94 122.985 257.105 122.864 257.225 122.703C257.348 122.542 257.429 122.342 257.467 122.103C257.507 121.859 257.493 121.656 257.424 121.492C257.356 121.326 257.231 121.201 257.051 121.116C256.871 121.028 256.635 120.984 256.341 120.984H255.304L254.299 127H252.762ZM257.236 123.69L258.497 127H256.799L255.578 123.69H257.236ZM266.655 123.463C266.523 124.24 266.266 124.899 265.885 125.441C265.506 125.983 265.043 126.395 264.496 126.677C263.952 126.959 263.365 127.099 262.735 127.099C262.074 127.099 261.505 126.949 261.027 126.648C260.551 126.348 260.206 125.913 259.993 125.345C259.78 124.775 259.74 124.087 259.873 123.282C260.001 122.503 260.255 121.843 260.636 121.3C261.017 120.756 261.483 120.342 262.032 120.058C262.581 119.771 263.172 119.628 263.804 119.628C264.46 119.628 265.025 119.779 265.501 120.082C265.979 120.385 266.324 120.823 266.535 121.396C266.748 121.967 266.788 122.656 266.655 123.463ZM265.125 123.282C265.208 122.782 265.204 122.363 265.114 122.025C265.027 121.684 264.866 121.426 264.631 121.251C264.397 121.076 264.101 120.988 263.743 120.988C263.355 120.988 262.999 121.085 262.675 121.279C262.353 121.473 262.08 121.755 261.858 122.124C261.638 122.491 261.485 122.937 261.4 123.463C261.314 123.965 261.317 124.384 261.407 124.72C261.499 125.056 261.664 125.311 261.9 125.484C262.14 125.654 262.437 125.739 262.792 125.739C263.178 125.739 263.53 125.645 263.85 125.455C264.172 125.263 264.443 124.985 264.663 124.621C264.883 124.254 265.037 123.808 265.125 123.282ZM274.478 123.463C274.345 124.24 274.088 124.899 273.707 125.441C273.328 125.983 272.865 126.395 272.319 126.677C271.774 126.959 271.187 127.099 270.557 127.099C269.897 127.099 269.327 126.949 268.849 126.648C268.373 126.348 268.029 125.913 267.816 125.345C267.603 124.775 267.562 124.087 267.695 123.282C267.823 122.503 268.077 121.843 268.458 121.3C268.84 120.756 269.305 120.342 269.854 120.058C270.403 119.771 270.994 119.628 271.626 119.628C272.282 119.628 272.848 119.779 273.324 120.082C273.802 120.385 274.146 120.823 274.357 121.396C274.57 121.967 274.61 122.656 274.478 123.463ZM272.947 123.282C273.03 122.782 273.026 122.363 272.936 122.025C272.849 121.684 272.688 121.426 272.453 121.251C272.219 121.076 271.923 120.988 271.566 120.988C271.177 120.988 270.821 121.085 270.497 121.279C270.175 121.473 269.903 121.755 269.68 122.124C269.46 122.491 269.307 122.937 269.222 123.463C269.137 123.965 269.139 124.384 269.229 124.72C269.321 125.056 269.486 125.311 269.723 125.484C269.962 125.654 270.259 125.739 270.614 125.739C271 125.739 271.353 125.645 271.672 125.455C271.994 125.263 272.265 124.985 272.485 124.621C272.706 124.254 272.859 123.808 272.947 123.282ZM276.235 119.727H278.131L279.328 124.614H279.413L282.222 119.727H284.118L282.911 127H281.419L282.208 122.266H282.144L279.487 126.964H278.468L277.374 122.249H277.314L276.519 127H275.027L276.235 119.727Z" fill="black"/>
<path d="M149.206 85.0568C149.031 85.0568 148.88 84.9941 148.755 84.8686C148.629 84.7431 148.567 84.5928 148.567 84.4176C148.567 84.2424 148.629 84.0921 148.755 83.9666C148.88 83.8411 149.031 83.7784 149.206 83.7784C149.381 83.7784 149.531 83.8411 149.657 83.9666C149.782 84.0921 149.845 84.2424 149.845 84.4176C149.845 84.5336 149.816 84.6402 149.756 84.7372C149.7 84.8343 149.623 84.9124 149.526 84.9716C149.431 85.0284 149.324 85.0568 149.206 85.0568ZM151.96 85.0568C151.785 85.0568 151.634 84.9941 151.509 84.8686C151.383 84.7431 151.321 84.5928 151.321 84.4176C151.321 84.2424 151.383 84.0921 151.509 83.9666C151.634 83.8411 151.785 83.7784 151.96 83.7784C152.135 83.7784 152.285 83.8411 152.411 83.9666C152.536 84.0921 152.599 84.2424 152.599 84.4176C152.599 84.5336 152.569 84.6402 152.51 84.7372C152.453 84.8343 152.377 84.9124 152.279 84.9716C152.185 85.0284 152.078 85.0568 151.96 85.0568ZM154.714 85.0568C154.539 85.0568 154.388 84.9941 154.263 84.8686C154.137 84.7431 154.075 84.5928 154.075 84.4176C154.075 84.2424 154.137 84.0921 154.263 83.9666C154.388 83.8411 154.539 83.7784 154.714 83.7784C154.889 83.7784 155.039 83.8411 155.165 83.9666C155.29 84.0921 155.353 84.2424 155.353 84.4176C155.353 84.5336 155.323 84.6402 155.264 84.7372C155.207 84.8343 155.13 84.9124 155.033 84.9716C154.939 85.0284 154.832 85.0568 154.714 85.0568ZM157.468 85.0568C157.292 85.0568 157.142 84.9941 157.017 84.8686C156.891 84.7431 156.828 84.5928 156.828 84.4176C156.828 84.2424 156.891 84.0921 157.017 83.9666C157.142 83.8411 157.292 83.7784 157.468 83.7784C157.643 83.7784 157.793 83.8411 157.919 83.9666C158.044 84.0921 158.107 84.2424 158.107 84.4176C158.107 84.5336 158.077 84.6402 158.018 84.7372C157.961 84.8343 157.884 84.9124 157.787 84.9716C157.693 85.0284 157.586 85.0568 157.468 85.0568ZM160.222 85.0568C160.046 85.0568 159.896 84.9941 159.771 84.8686C159.645 84.7431 159.582 84.5928 159.582 84.4176C159.582 84.2424 159.645 84.0921 159.771 83.9666C159.896 83.8411 160.046 83.7784 160.222 83.7784C160.397 83.7784 160.547 83.8411 160.673 83.9666C160.798 84.0921 160.861 84.2424 160.861 84.4176C160.861 84.5336 160.831 84.6402 160.772 84.7372C160.715 84.8343 160.638 84.9124 160.541 84.9716C160.446 85.0284 160.34 85.0568 160.222 85.0568ZM162.975 85.0568C162.8 85.0568 162.65 84.9941 162.525 84.8686C162.399 84.7431 162.336 84.5928 162.336 84.4176C162.336 84.2424 162.399 84.0921 162.525 83.9666C162.65 83.8411 162.8 83.7784 162.975 83.7784C163.151 83.7784 163.301 83.8411 163.426 83.9666C163.552 84.0921 163.615 84.2424 163.615 84.4176C163.615 84.5336 163.585 84.6402 163.526 84.7372C163.469 84.8343 163.392 84.9124 163.295 84.9716C163.2 85.0284 163.094 85.0568 162.975 85.0568ZM165.729 85.0568C165.554 85.0568 165.404 84.9941 165.278 84.8686C165.153 84.7431 165.09 84.5928 165.09 84.4176C165.09 84.2424 165.153 84.0921 165.278 83.9666C165.404 83.8411 165.554 83.7784 165.729 83.7784C165.905 83.7784 166.055 83.8411 166.18 83.9666C166.306 84.0921 166.369 84.2424 166.369 84.4176C166.369 84.5336 166.339 84.6402 166.28 84.7372C166.223 84.8343 166.146 84.9124 166.049 84.9716C165.954 85.0284 165.848 85.0568 165.729 85.0568ZM168.483 85.0568C168.308 85.0568 168.158 84.9941 168.032 84.8686C167.907 84.7431 167.844 84.5928 167.844 84.4176C167.844 84.2424 167.907 84.0921 168.032 83.9666C168.158 83.8411 168.308 83.7784 168.483 83.7784C168.658 83.7784 168.809 83.8411 168.934 83.9666C169.06 84.0921 169.123 84.2424 169.123 84.4176C169.123 84.5336 169.093 84.6402 169.034 84.7372C168.977 84.8343 168.9 84.9124 168.803 84.9716C168.708 85.0284 168.602 85.0568 168.483 85.0568ZM171.237 85.0568C171.062 85.0568 170.912 84.9941 170.786 84.8686C170.661 84.7431 170.598 84.5928 170.598 84.4176C170.598 84.2424 170.661 84.0921 170.786 83.9666C170.912 83.8411 171.062 83.7784 171.237 83.7784C171.412 83.7784 171.563 83.8411 171.688 83.9666C171.814 84.0921 171.876 84.2424 171.876 84.4176C171.876 84.5336 171.847 84.6402 171.788 84.7372C171.731 84.8343 171.654 84.9124 171.557 84.9716C171.462 85.0284 171.356 85.0568 171.237 85.0568ZM173.991 85.0568C173.816 85.0568 173.666 84.9941 173.54 84.8686C173.415 84.7431 173.352 84.5928 173.352 84.4176C173.352 84.2424 173.415 84.0921 173.54 83.9666C173.666 83.8411 173.816 83.7784 173.991 83.7784C174.166 83.7784 174.317 83.8411 174.442 83.9666C174.568 84.0921 174.63 84.2424 174.63 84.4176C174.63 84.5336 174.601 84.6402 174.542 84.7372C174.485 84.8343 174.408 84.9124 174.311 84.9716C174.216 85.0284 174.109 85.0568 173.991 85.0568ZM176.745 85.0568C176.57 85.0568 176.42 84.9941 176.294 84.8686C176.169 84.7431 176.106 84.5928 176.106 84.4176C176.106 84.2424 176.169 84.0921 176.294 83.9666C176.42 83.8411 176.57 83.7784 176.745 83.7784C176.92 83.7784 177.071 83.8411 177.196 83.9666C177.321 84.0921 177.384 84.2424 177.384 84.4176C177.384 84.5336 177.355 84.6402 177.295 84.7372C177.239 84.8343 177.162 84.9124 177.065 84.9716C176.97 85.0284 176.863 85.0568 176.745 85.0568ZM179.499 85.0568C179.324 85.0568 179.173 84.9941 179.048 84.8686C178.922 84.7431 178.86 84.5928 178.86 84.4176C178.86 84.2424 178.922 84.0921 179.048 83.9666C179.173 83.8411 179.324 83.7784 179.499 83.7784C179.674 83.7784 179.824 83.8411 179.95 83.9666C180.075 84.0921 180.138 84.2424 180.138 84.4176C180.138 84.5336 180.109 84.6402 180.049 84.7372C179.993 84.8343 179.916 84.9124 179.819 84.9716C179.724 85.0284 179.617 85.0568 179.499 85.0568ZM182.253 85.0568C182.078 85.0568 181.927 84.9941 181.802 84.8686C181.676 84.7431 181.614 84.5928 181.614 84.4176C181.614 84.2424 181.676 84.0921 181.802 83.9666C181.927 83.8411 182.078 83.7784 182.253 83.7784C182.428 83.7784 182.578 83.8411 182.704 83.9666C182.829 84.0921 182.892 84.2424 182.892 84.4176C182.892 84.5336 182.862 84.6402 182.803 84.7372C182.746 84.8343 182.67 84.9124 182.572 84.9716C182.478 85.0284 182.371 85.0568 182.253 85.0568ZM185.007 85.0568C184.832 85.0568 184.681 84.9941 184.556 84.8686C184.43 84.7431 184.368 84.5928 184.368 84.4176C184.368 84.2424 184.43 84.0921 184.556 83.9666C184.681 83.8411 184.832 83.7784 185.007 83.7784C185.182 83.7784 185.332 83.8411 185.458 83.9666C185.583 84.0921 185.646 84.2424 185.646 84.4176C185.646 84.5336 185.616 84.6402 185.557 84.7372C185.5 84.8343 185.423 84.9124 185.326 84.9716C185.232 85.0284 185.125 85.0568 185.007 85.0568ZM187.761 85.0568C187.585 85.0568 187.435 84.9941 187.31 84.8686C187.184 84.7431 187.121 84.5928 187.121 84.4176C187.121 84.2424 187.184 84.0921 187.31 83.9666C187.435 83.8411 187.585 83.7784 187.761 83.7784C187.936 83.7784 188.086 83.8411 188.212 83.9666C188.337 84.0921 188.4 84.2424 188.4 84.4176C188.4 84.5336 188.37 84.6402 188.311 84.7372C188.254 84.8343 188.177 84.9124 188.08 84.9716C187.986 85.0284 187.879 85.0568 187.761 85.0568ZM190.515 85.0568C190.339 85.0568 190.189 84.9941 190.064 84.8686C189.938 84.7431 189.875 84.5928 189.875 84.4176C189.875 84.2424 189.938 84.0921 190.064 83.9666C190.189 83.8411 190.339 83.7784 190.515 83.7784C190.69 83.7784 190.84 83.8411 190.966 83.9666C191.091 84.0921 191.154 84.2424 191.154 84.4176C191.154 84.5336 191.124 84.6402 191.065 84.7372C191.008 84.8343 190.931 84.9124 190.834 84.9716C190.739 85.0284 190.633 85.0568 190.515 85.0568ZM193.268 85.0568C193.093 85.0568 192.943 84.9941 192.817 84.8686C192.692 84.7431 192.629 84.5928 192.629 84.4176C192.629 84.2424 192.692 84.0921 192.817 83.9666C192.943 83.8411 193.093 83.7784 193.268 83.7784C193.444 83.7784 193.594 83.8411 193.719 83.9666C193.845 84.0921 193.908 84.2424 193.908 84.4176C193.908 84.5336 193.878 84.6402 193.819 84.7372C193.762 84.8343 193.685 84.9124 193.588 84.9716C193.493 85.0284 193.387 85.0568 193.268 85.0568ZM196.022 85.0568C195.847 85.0568 195.697 84.9941 195.571 84.8686C195.446 84.7431 195.383 84.5928 195.383 84.4176C195.383 84.2424 195.446 84.0921 195.571 83.9666C195.697 83.8411 195.847 83.7784 196.022 83.7784C196.198 83.7784 196.348 83.8411 196.473 83.9666C196.599 84.0921 196.662 84.2424 196.662 84.4176C196.662 84.5336 196.632 84.6402 196.573 84.7372C196.516 84.8343 196.439 84.9124 196.342 84.9716C196.247 85.0284 196.141 85.0568 196.022 85.0568ZM198.776 85.0568C198.601 85.0568 198.451 84.9941 198.325 84.8686C198.2 84.7431 198.137 84.5928 198.137 84.4176C198.137 84.2424 198.2 84.0921 198.325 83.9666C198.451 83.8411 198.601 83.7784 198.776 83.7784C198.951 83.7784 199.102 83.8411 199.227 83.9666C199.353 84.0921 199.415 84.2424 199.415 84.4176C199.415 84.5336 199.386 84.6402 199.327 84.7372C199.27 84.8343 199.193 84.9124 199.096 84.9716C199.001 85.0284 198.895 85.0568 198.776 85.0568ZM201.53 85.0568C201.355 85.0568 201.205 84.9941 201.079 84.8686C200.954 84.7431 200.891 84.5928 200.891 84.4176C200.891 84.2424 200.954 84.0921 201.079 83.9666C201.205 83.8411 201.355 83.7784 201.53 83.7784C201.705 83.7784 201.856 83.8411 201.981 83.9666C202.107 84.0921 202.169 84.2424 202.169 84.4176C202.169 84.5336 202.14 84.6402 202.081 84.7372C202.024 84.8343 201.947 84.9124 201.85 84.9716C201.755 85.0284 201.649 85.0568 201.53 85.0568ZM204.284 85.0568C204.109 85.0568 203.959 84.9941 203.833 84.8686C203.708 84.7431 203.645 84.5928 203.645 84.4176C203.645 84.2424 203.708 84.0921 203.833 83.9666C203.959 83.8411 204.109 83.7784 204.284 83.7784C204.459 83.7784 204.61 83.8411 204.735 83.9666C204.861 84.0921 204.923 84.2424 204.923 84.4176C204.923 84.5336 204.894 84.6402 204.835 84.7372C204.778 84.8343 204.701 84.9124 204.604 84.9716C204.509 85.0284 204.402 85.0568 204.284 85.0568ZM207.038 85.0568C206.863 85.0568 206.712 84.9941 206.587 84.8686C206.462 84.7431 206.399 84.5928 206.399 84.4176C206.399 84.2424 206.462 84.0921 206.587 83.9666C206.712 83.8411 206.863 83.7784 207.038 83.7784C207.213 83.7784 207.364 83.8411 207.489 83.9666C207.614 84.0921 207.677 84.2424 207.677 84.4176C207.677 84.5336 207.648 84.6402 207.588 84.7372C207.532 84.8343 207.455 84.9124 207.358 84.9716C207.263 85.0284 207.156 85.0568 207.038 85.0568ZM209.792 85.0568C209.617 85.0568 209.466 84.9941 209.341 84.8686C209.215 84.7431 209.153 84.5928 209.153 84.4176C209.153 84.2424 209.215 84.0921 209.341 83.9666C209.466 83.8411 209.617 83.7784 209.792 83.7784C209.967 83.7784 210.117 83.8411 210.243 83.9666C210.368 84.0921 210.431 84.2424 210.431 84.4176C210.431 84.5336 210.402 84.6402 210.342 84.7372C210.286 84.8343 210.209 84.9124 210.112 84.9716C210.017 85.0284 209.91 85.0568 209.792 85.0568ZM212.546 85.0568C212.371 85.0568 212.22 84.9941 212.095 84.8686C211.969 84.7431 211.907 84.5928 211.907 84.4176C211.907 84.2424 211.969 84.0921 212.095 83.9666C212.22 83.8411 212.371 83.7784 212.546 83.7784C212.721 83.7784 212.871 83.8411 212.997 83.9666C213.122 84.0921 213.185 84.2424 213.185 84.4176C213.185 84.5336 213.155 84.6402 213.096 84.7372C213.039 84.8343 212.962 84.9124 212.865 84.9716C212.771 85.0284 212.664 85.0568 212.546 85.0568ZM215.3 85.0568C215.125 85.0568 214.974 84.9941 214.849 84.8686C214.723 84.7431 214.661 84.5928 214.661 84.4176C214.661 84.2424 214.723 84.0921 214.849 83.9666C214.974 83.8411 215.125 83.7784 215.3 83.7784C215.475 83.7784 215.625 83.8411 215.751 83.9666C215.876 84.0921 215.939 84.2424 215.939 84.4176C215.939 84.5336 215.909 84.6402 215.85 84.7372C215.793 84.8343 215.716 84.9124 215.619 84.9716C215.525 85.0284 215.418 85.0568 215.3 85.0568ZM218.054 85.0568C217.878 85.0568 217.728 84.9941 217.603 84.8686C217.477 84.7431 217.414 84.5928 217.414 84.4176C217.414 84.2424 217.477 84.0921 217.603 83.9666C217.728 83.8411 217.878 83.7784 218.054 83.7784C218.229 83.7784 218.379 83.8411 218.505 83.9666C218.63 84.0921 218.693 84.2424 218.693 84.4176C218.693 84.5336 218.663 84.6402 218.604 84.7372C218.547 84.8343 218.47 84.9124 218.373 84.9716C218.279 85.0284 218.172 85.0568 218.054 85.0568ZM220.808 85.0568C220.632 85.0568 220.482 84.9941 220.357 84.8686C220.231 84.7431 220.168 84.5928 220.168 84.4176C220.168 84.2424 220.231 84.0921 220.357 83.9666C220.482 83.8411 220.632 83.7784 220.808 83.7784C220.983 83.7784 221.133 83.8411 221.259 83.9666C221.384 84.0921 221.447 84.2424 221.447 84.4176C221.447 84.5336 221.417 84.6402 221.358 84.7372C221.301 84.8343 221.224 84.9124 221.127 84.9716C221.032 85.0284 220.926 85.0568 220.808 85.0568ZM223.561 85.0568C223.386 85.0568 223.236 84.9941 223.11 84.8686C222.985 84.7431 222.922 84.5928 222.922 84.4176C222.922 84.2424 222.985 84.0921 223.11 83.9666C223.236 83.8411 223.386 83.7784 223.561 83.7784C223.737 83.7784 223.887 83.8411 224.012 83.9666C224.138 84.0921 224.201 84.2424 224.201 84.4176C224.201 84.5336 224.171 84.6402 224.112 84.7372C224.055 84.8343 223.978 84.9124 223.881 84.9716C223.786 85.0284 223.68 85.0568 223.561 85.0568ZM226.315 85.0568C226.14 85.0568 225.99 84.9941 225.864 84.8686C225.739 84.7431 225.676 84.5928 225.676 84.4176C225.676 84.2424 225.739 84.0921 225.864 83.9666C225.99 83.8411 226.14 83.7784 226.315 83.7784C226.491 83.7784 226.641 83.8411 226.766 83.9666C226.892 84.0921 226.955 84.2424 226.955 84.4176C226.955 84.5336 226.925 84.6402 226.866 84.7372C226.809 84.8343 226.732 84.9124 226.635 84.9716C226.54 85.0284 226.434 85.0568 226.315 85.0568ZM229.069 85.0568C228.894 85.0568 228.744 84.9941 228.618 84.8686C228.493 84.7431 228.43 84.5928 228.43 84.4176C228.43 84.2424 228.493 84.0921 228.618 83.9666C228.744 83.8411 228.894 83.7784 229.069 83.7784C229.244 83.7784 229.395 83.8411 229.52 83.9666C229.646 84.0921 229.708 84.2424 229.708 84.4176C229.708 84.5336 229.679 84.6402 229.62 84.7372C229.563 84.8343 229.486 84.9124 229.389 84.9716C229.294 85.0284 229.188 85.0568 229.069 85.0568ZM231.823 85.0568C231.648 85.0568 231.498 84.9941 231.372 84.8686C231.247 84.7431 231.184 84.5928 231.184 84.4176C231.184 84.2424 231.247 84.0921 231.372 83.9666C231.498 83.8411 231.648 83.7784 231.823 83.7784C231.998 83.7784 232.149 83.8411 232.274 83.9666C232.4 84.0921 232.462 84.2424 232.462 84.4176C232.462 84.5336 232.433 84.6402 232.374 84.7372C232.317 84.8343 232.24 84.9124 232.143 84.9716C232.048 85.0284 231.942 85.0568 231.823 85.0568ZM234.577 85.0568C234.402 85.0568 234.252 84.9941 234.126 84.8686C234.001 84.7431 233.938 84.5928 233.938 84.4176C233.938 84.2424 234.001 84.0921 234.126 83.9666C234.252 83.8411 234.402 83.7784 234.577 83.7784C234.752 83.7784 234.903 83.8411 235.028 83.9666C235.154 84.0921 235.216 84.2424 235.216 84.4176C235.216 84.5336 235.187 84.6402 235.127 84.7372C235.071 84.8343 234.994 84.9124 234.897 84.9716C234.802 85.0284 234.695 85.0568 234.577 85.0568ZM237.331 85.0568C237.156 85.0568 237.005 84.9941 236.88 84.8686C236.754 84.7431 236.692 84.5928 236.692 84.4176C236.692 84.2424 236.754 84.0921 236.88 83.9666C237.005 83.8411 237.156 83.7784 237.331 83.7784C237.506 83.7784 237.656 83.8411 237.782 83.9666C237.907 84.0921 237.97 84.2424 237.97 84.4176C237.97 84.5336 237.941 84.6402 237.881 84.7372C237.825 84.8343 237.748 84.9124 237.651 84.9716C237.556 85.0284 237.449 85.0568 237.331 85.0568ZM240.085 85.0568C239.91 85.0568 239.759 84.9941 239.634 84.8686C239.508 84.7431 239.446 84.5928 239.446 84.4176C239.446 84.2424 239.508 84.0921 239.634 83.9666C239.759 83.8411 239.91 83.7784 240.085 83.7784C240.26 83.7784 240.41 83.8411 240.536 83.9666C240.661 84.0921 240.724 84.2424 240.724 84.4176C240.724 84.5336 240.694 84.6402 240.635 84.7372C240.578 84.8343 240.502 84.9124 240.404 84.9716C240.31 85.0284 240.203 85.0568 240.085 85.0568ZM242.839 85.0568C242.664 85.0568 242.513 84.9941 242.388 84.8686C242.262 84.7431 242.2 84.5928 242.2 84.4176C242.2 84.2424 242.262 84.0921 242.388 83.9666C242.513 83.8411 242.664 83.7784 242.839 83.7784C243.014 83.7784 243.164 83.8411 243.29 83.9666C243.415 84.0921 243.478 84.2424 243.478 84.4176C243.478 84.5336 243.448 84.6402 243.389 84.7372C243.332 84.8343 243.255 84.9124 243.158 84.9716C243.064 85.0284 242.957 85.0568 242.839 85.0568ZM245.593 85.0568C245.417 85.0568 245.267 84.9941 245.142 84.8686C245.016 84.7431 244.953 84.5928 244.953 84.4176C244.953 84.2424 245.016 84.0921 245.142 83.9666C245.267 83.8411 245.417 83.7784 245.593 83.7784C245.768 83.7784 245.918 83.8411 246.044 83.9666C246.169 84.0921 246.232 84.2424 246.232 84.4176C246.232 84.5336 246.202 84.6402 246.143 84.7372C246.086 84.8343 246.009 84.9124 245.912 84.9716C245.818 85.0284 245.711 85.0568 245.593 85.0568ZM248.347 85.0568C248.171 85.0568 248.021 84.9941 247.896 84.8686C247.77 84.7431 247.707 84.5928 247.707 84.4176C247.707 84.2424 247.77 84.0921 247.896 83.9666C248.021 83.8411 248.171 83.7784 248.347 83.7784C248.522 83.7784 248.672 83.8411 248.798 83.9666C248.923 84.0921 248.986 84.2424 248.986 84.4176C248.986 84.5336 248.956 84.6402 248.897 84.7372C248.84 84.8343 248.763 84.9124 248.666 84.9716C248.571 85.0284 248.465 85.0568 248.347 85.0568ZM251.1 85.0568C250.925 85.0568 250.775 84.9941 250.65 84.8686C250.524 84.7431 250.461 84.5928 250.461 84.4176C250.461 84.2424 250.524 84.0921 250.65 83.9666C250.775 83.8411 250.925 83.7784 251.1 83.7784C251.276 83.7784 251.426 83.8411 251.551 83.9666C251.677 84.0921 251.74 84.2424 251.74 84.4176C251.74 84.5336 251.71 84.6402 251.651 84.7372C251.594 84.8343 251.517 84.9124 251.42 84.9716C251.325 85.0284 251.219 85.0568 251.1 85.0568ZM253.854 85.0568C253.679 85.0568 253.529 84.9941 253.403 84.8686C253.278 84.7431 253.215 84.5928 253.215 84.4176C253.215 84.2424 253.278 84.0921 253.403 83.9666C253.529 83.8411 253.679 83.7784 253.854 83.7784C254.03 83.7784 254.18 83.8411 254.305 83.9666C254.431 84.0921 254.494 84.2424 254.494 84.4176C254.494 84.5336 254.464 84.6402 254.405 84.7372C254.348 84.8343 254.271 84.9124 254.174 84.9716C254.079 85.0284 253.973 85.0568 253.854 85.0568Z" fill="#B4B4B4"/>
<path d="M255.408 85L256.615 77.7273H261.431L261.218 78.995H257.94L257.656 80.728H260.614L260.401 81.9957H257.443L256.946 85H255.408ZM268.53 81.4631C268.398 82.2396 268.141 82.8989 267.76 83.4411C267.381 83.9832 266.918 84.3951 266.371 84.6768C265.827 84.9586 265.24 85.0994 264.61 85.0994C263.949 85.0994 263.38 84.9491 262.902 84.6484C262.426 84.3478 262.081 83.9134 261.868 83.3452C261.655 82.7746 261.615 82.0869 261.748 81.282C261.876 80.5031 262.13 79.8426 262.511 79.3004C262.892 78.7559 263.358 78.3416 263.907 78.0575C264.456 77.7711 265.047 77.6278 265.679 77.6278C266.335 77.6278 266.9 77.7794 267.376 78.0824C267.854 78.3854 268.199 78.8234 268.41 79.3963C268.623 79.9669 268.663 80.6558 268.53 81.4631ZM267 81.282C267.083 80.7824 267.079 80.3634 266.989 80.0249C266.902 79.6839 266.741 79.4259 266.506 79.2507C266.272 79.0755 265.976 78.9879 265.618 78.9879C265.23 78.9879 264.874 79.085 264.55 79.2791C264.228 79.4732 263.955 79.755 263.733 80.1243C263.513 80.4912 263.36 80.9375 263.275 81.4631C263.189 81.965 263.192 82.384 263.282 82.7202C263.374 83.0563 263.539 83.3108 263.775 83.4837C264.015 83.6541 264.312 83.7393 264.667 83.7393C265.053 83.7393 265.405 83.6446 265.725 83.4553C266.047 83.2635 266.318 82.9853 266.538 82.6207C266.758 82.2538 266.912 81.8075 267 81.282ZM276.353 81.4631C276.22 82.2396 275.963 82.8989 275.582 83.4411C275.203 83.9832 274.74 84.3951 274.194 84.6768C273.649 84.9586 273.062 85.0994 272.432 85.0994C271.772 85.0994 271.202 84.9491 270.724 84.6484C270.248 84.3478 269.904 83.9134 269.691 83.3452C269.478 82.7746 269.437 82.0869 269.57 81.282C269.698 80.5031 269.952 79.8426 270.333 79.3004C270.715 78.7559 271.18 78.3416 271.729 78.0575C272.278 77.7711 272.869 77.6278 273.501 77.6278C274.157 77.6278 274.723 77.7794 275.199 78.0824C275.677 78.3854 276.021 78.8234 276.232 79.3963C276.445 79.9669 276.485 80.6558 276.353 81.4631ZM274.822 81.282C274.905 80.7824 274.901 80.3634 274.811 80.0249C274.724 79.6839 274.563 79.4259 274.328 79.2507C274.094 79.0755 273.798 78.9879 273.441 78.9879C273.052 78.9879 272.696 79.085 272.372 79.2791C272.05 79.4732 271.778 79.755 271.555 80.1243C271.335 80.4912 271.182 80.9375 271.097 81.4631C271.012 81.965 271.014 82.384 271.104 82.7202C271.196 83.0563 271.361 83.3108 271.598 83.4837C271.837 83.6541 272.134 83.7393 272.489 83.7393C272.875 83.7393 273.228 83.6446 273.547 83.4553C273.869 83.2635 274.14 82.9853 274.36 82.6207C274.581 82.2538 274.734 81.8075 274.822 81.282ZM279.516 85H276.902L278.11 77.7273H280.673C281.405 77.7273 282.012 77.8764 282.495 78.1747C282.981 78.473 283.323 78.9003 283.521 79.4567C283.72 80.0107 283.756 80.6723 283.628 81.4418C283.505 82.1851 283.26 82.8232 282.893 83.3558C282.526 83.8861 282.056 84.2933 281.483 84.5774C280.91 84.8591 280.254 85 279.516 85ZM278.66 83.6825H279.605C280.061 83.6825 280.462 83.5973 280.805 83.4268C281.151 83.2564 281.433 82.9936 281.654 82.6385C281.876 82.2834 282.034 81.8288 282.126 81.2749C282.213 80.7493 282.208 80.3232 282.108 79.9964C282.011 79.6674 281.823 79.4271 281.544 79.2756C281.264 79.1217 280.897 79.0447 280.443 79.0447H279.431L278.66 83.6825Z" fill="black"/>
<path d="M150.407 166.057C150.232 166.057 150.082 165.994 149.956 165.869C149.831 165.743 149.768 165.593 149.768 165.418C149.768 165.242 149.831 165.092 149.956 164.967C150.082 164.841 150.232 164.778 150.407 164.778C150.582 164.778 150.733 164.841 150.858 164.967C150.984 165.092 151.046 165.242 151.046 165.418C151.046 165.534 151.017 165.64 150.958 165.737C150.901 165.834 150.824 165.912 150.727 165.972C150.632 166.028 150.526 166.057 150.407 166.057ZM153.161 166.057C152.986 166.057 152.836 165.994 152.71 165.869C152.585 165.743 152.522 165.593 152.522 165.418C152.522 165.242 152.585 165.092 152.71 164.967C152.836 164.841 152.986 164.778 153.161 164.778C153.336 164.778 153.487 164.841 153.612 164.967C153.738 165.092 153.8 165.242 153.8 165.418C153.8 165.534 153.771 165.64 153.711 165.737C153.655 165.834 153.578 165.912 153.481 165.972C153.386 166.028 153.279 166.057 153.161 166.057ZM155.915 166.057C155.74 166.057 155.589 165.994 155.464 165.869C155.338 165.743 155.276 165.593 155.276 165.418C155.276 165.242 155.338 165.092 155.464 164.967C155.589 164.841 155.74 164.778 155.915 164.778C156.09 164.778 156.24 164.841 156.366 164.967C156.491 165.092 156.554 165.242 156.554 165.418C156.554 165.534 156.525 165.64 156.465 165.737C156.409 165.834 156.332 165.912 156.235 165.972C156.14 166.028 156.033 166.057 155.915 166.057ZM158.669 166.057C158.494 166.057 158.343 165.994 158.218 165.869C158.092 165.743 158.03 165.593 158.03 165.418C158.03 165.242 158.092 165.092 158.218 164.967C158.343 164.841 158.494 164.778 158.669 164.778C158.844 164.778 158.994 164.841 159.12 164.967C159.245 165.092 159.308 165.242 159.308 165.418C159.308 165.534 159.278 165.64 159.219 165.737C159.162 165.834 159.086 165.912 158.988 165.972C158.894 166.028 158.787 166.057 158.669 166.057ZM161.423 166.057C161.248 166.057 161.097 165.994 160.972 165.869C160.846 165.743 160.784 165.593 160.784 165.418C160.784 165.242 160.846 165.092 160.972 164.967C161.097 164.841 161.248 164.778 161.423 164.778C161.598 164.778 161.748 164.841 161.874 164.967C161.999 165.092 162.062 165.242 162.062 165.418C162.062 165.534 162.032 165.64 161.973 165.737C161.916 165.834 161.839 165.912 161.742 165.972C161.648 166.028 161.541 166.057 161.423 166.057ZM164.177 166.057C164.001 166.057 163.851 165.994 163.726 165.869C163.6 165.743 163.537 165.593 163.537 165.418C163.537 165.242 163.6 165.092 163.726 164.967C163.851 164.841 164.001 164.778 164.177 164.778C164.352 164.778 164.502 164.841 164.628 164.967C164.753 165.092 164.816 165.242 164.816 165.418C164.816 165.534 164.786 165.64 164.727 165.737C164.67 165.834 164.593 165.912 164.496 165.972C164.402 166.028 164.295 166.057 164.177 166.057ZM166.931 166.057C166.755 166.057 166.605 165.994 166.48 165.869C166.354 165.743 166.291 165.593 166.291 165.418C166.291 165.242 166.354 165.092 166.48 164.967C166.605 164.841 166.755 164.778 166.931 164.778C167.106 164.778 167.256 164.841 167.382 164.967C167.507 165.092 167.57 165.242 167.57 165.418C167.57 165.534 167.54 165.64 167.481 165.737C167.424 165.834 167.347 165.912 167.25 165.972C167.155 166.028 167.049 166.057 166.931 166.057ZM169.684 166.057C169.509 166.057 169.359 165.994 169.233 165.869C169.108 165.743 169.045 165.593 169.045 165.418C169.045 165.242 169.108 165.092 169.233 164.967C169.359 164.841 169.509 164.778 169.684 164.778C169.86 164.778 170.01 164.841 170.135 164.967C170.261 165.092 170.324 165.242 170.324 165.418C170.324 165.534 170.294 165.64 170.235 165.737C170.178 165.834 170.101 165.912 170.004 165.972C169.909 166.028 169.803 166.057 169.684 166.057ZM172.438 166.057C172.263 166.057 172.113 165.994 171.987 165.869C171.862 165.743 171.799 165.593 171.799 165.418C171.799 165.242 171.862 165.092 171.987 164.967C172.113 164.841 172.263 164.778 172.438 164.778C172.614 164.778 172.764 164.841 172.889 164.967C173.015 165.092 173.078 165.242 173.078 165.418C173.078 165.534 173.048 165.64 172.989 165.737C172.932 165.834 172.855 165.912 172.758 165.972C172.663 166.028 172.557 166.057 172.438 166.057ZM175.192 166.057C175.017 166.057 174.867 165.994 174.741 165.869C174.616 165.743 174.553 165.593 174.553 165.418C174.553 165.242 174.616 165.092 174.741 164.967C174.867 164.841 175.017 164.778 175.192 164.778C175.367 164.778 175.518 164.841 175.643 164.967C175.769 165.092 175.831 165.242 175.831 165.418C175.831 165.534 175.802 165.64 175.743 165.737C175.686 165.834 175.609 165.912 175.512 165.972C175.417 166.028 175.311 166.057 175.192 166.057ZM177.946 166.057C177.771 166.057 177.621 165.994 177.495 165.869C177.37 165.743 177.307 165.593 177.307 165.418C177.307 165.242 177.37 165.092 177.495 164.967C177.621 164.841 177.771 164.778 177.946 164.778C178.121 164.778 178.272 164.841 178.397 164.967C178.523 165.092 178.585 165.242 178.585 165.418C178.585 165.534 178.556 165.64 178.497 165.737C178.44 165.834 178.363 165.912 178.266 165.972C178.171 166.028 178.065 166.057 177.946 166.057ZM180.7 166.057C180.525 166.057 180.375 165.994 180.249 165.869C180.124 165.743 180.061 165.593 180.061 165.418C180.061 165.242 180.124 165.092 180.249 164.967C180.375 164.841 180.525 164.778 180.7 164.778C180.875 164.778 181.026 164.841 181.151 164.967C181.277 165.092 181.339 165.242 181.339 165.418C181.339 165.534 181.31 165.64 181.251 165.737C181.194 165.834 181.117 165.912 181.02 165.972C180.925 166.028 180.818 166.057 180.7 166.057ZM183.454 166.057C183.279 166.057 183.128 165.994 183.003 165.869C182.878 165.743 182.815 165.593 182.815 165.418C182.815 165.242 182.878 165.092 183.003 164.967C183.128 164.841 183.279 164.778 183.454 164.778C183.629 164.778 183.78 164.841 183.905 164.967C184.03 165.092 184.093 165.242 184.093 165.418C184.093 165.534 184.064 165.64 184.004 165.737C183.948 165.834 183.871 165.912 183.774 165.972C183.679 166.028 183.572 166.057 183.454 166.057ZM186.208 166.057C186.033 166.057 185.882 165.994 185.757 165.869C185.631 165.743 185.569 165.593 185.569 165.418C185.569 165.242 185.631 165.092 185.757 164.967C185.882 164.841 186.033 164.778 186.208 164.778C186.383 164.778 186.533 164.841 186.659 164.967C186.784 165.092 186.847 165.242 186.847 165.418C186.847 165.534 186.818 165.64 186.758 165.737C186.702 165.834 186.625 165.912 186.528 165.972C186.433 166.028 186.326 166.057 186.208 166.057ZM188.962 166.057C188.787 166.057 188.636 165.994 188.511 165.869C188.385 165.743 188.323 165.593 188.323 165.418C188.323 165.242 188.385 165.092 188.511 164.967C188.636 164.841 188.787 164.778 188.962 164.778C189.137 164.778 189.287 164.841 189.413 164.967C189.538 165.092 189.601 165.242 189.601 165.418C189.601 165.534 189.571 165.64 189.512 165.737C189.455 165.834 189.378 165.912 189.281 165.972C189.187 166.028 189.08 166.057 188.962 166.057ZM191.716 166.057C191.541 166.057 191.39 165.994 191.265 165.869C191.139 165.743 191.077 165.593 191.077 165.418C191.077 165.242 191.139 165.092 191.265 164.967C191.39 164.841 191.541 164.778 191.716 164.778C191.891 164.778 192.041 164.841 192.167 164.967C192.292 165.092 192.355 165.242 192.355 165.418C192.355 165.534 192.325 165.64 192.266 165.737C192.209 165.834 192.132 165.912 192.035 165.972C191.941 166.028 191.834 166.057 191.716 166.057ZM194.47 166.057C194.294 166.057 194.144 165.994 194.019 165.869C193.893 165.743 193.83 165.593 193.83 165.418C193.83 165.242 193.893 165.092 194.019 164.967C194.144 164.841 194.294 164.778 194.47 164.778C194.645 164.778 194.795 164.841 194.921 164.967C195.046 165.092 195.109 165.242 195.109 165.418C195.109 165.534 195.079 165.64 195.02 165.737C194.963 165.834 194.886 165.912 194.789 165.972C194.695 166.028 194.588 166.057 194.47 166.057ZM197.224 166.057C197.048 166.057 196.898 165.994 196.773 165.869C196.647 165.743 196.584 165.593 196.584 165.418C196.584 165.242 196.647 165.092 196.773 164.967C196.898 164.841 197.048 164.778 197.224 164.778C197.399 164.778 197.549 164.841 197.675 164.967C197.8 165.092 197.863 165.242 197.863 165.418C197.863 165.534 197.833 165.64 197.774 165.737C197.717 165.834 197.64 165.912 197.543 165.972C197.448 166.028 197.342 166.057 197.224 166.057ZM199.977 166.057C199.802 166.057 199.652 165.994 199.526 165.869C199.401 165.743 199.338 165.593 199.338 165.418C199.338 165.242 199.401 165.092 199.526 164.967C199.652 164.841 199.802 164.778 199.977 164.778C200.153 164.778 200.303 164.841 200.428 164.967C200.554 165.092 200.617 165.242 200.617 165.418C200.617 165.534 200.587 165.64 200.528 165.737C200.471 165.834 200.394 165.912 200.297 165.972C200.202 166.028 200.096 166.057 199.977 166.057ZM202.731 166.057C202.556 166.057 202.406 165.994 202.28 165.869C202.155 165.743 202.092 165.593 202.092 165.418C202.092 165.242 202.155 165.092 202.28 164.967C202.406 164.841 202.556 164.778 202.731 164.778C202.907 164.778 203.057 164.841 203.182 164.967C203.308 165.092 203.371 165.242 203.371 165.418C203.371 165.534 203.341 165.64 203.282 165.737C203.225 165.834 203.148 165.912 203.051 165.972C202.956 166.028 202.85 166.057 202.731 166.057ZM205.485 166.057C205.31 166.057 205.16 165.994 205.034 165.869C204.909 165.743 204.846 165.593 204.846 165.418C204.846 165.242 204.909 165.092 205.034 164.967C205.16 164.841 205.31 164.778 205.485 164.778C205.66 164.778 205.811 164.841 205.936 164.967C206.062 165.092 206.124 165.242 206.124 165.418C206.124 165.534 206.095 165.64 206.036 165.737C205.979 165.834 205.902 165.912 205.805 165.972C205.71 166.028 205.604 166.057 205.485 166.057ZM208.239 166.057C208.064 166.057 207.914 165.994 207.788 165.869C207.663 165.743 207.6 165.593 207.6 165.418C207.6 165.242 207.663 165.092 207.788 164.967C207.914 164.841 208.064 164.778 208.239 164.778C208.414 164.778 208.565 164.841 208.69 164.967C208.816 165.092 208.878 165.242 208.878 165.418C208.878 165.534 208.849 165.64 208.79 165.737C208.733 165.834 208.656 165.912 208.559 165.972C208.464 166.028 208.358 166.057 208.239 166.057ZM210.993 166.057C210.818 166.057 210.668 165.994 210.542 165.869C210.417 165.743 210.354 165.593 210.354 165.418C210.354 165.242 210.417 165.092 210.542 164.967C210.668 164.841 210.818 164.778 210.993 164.778C211.168 164.778 211.319 164.841 211.444 164.967C211.57 165.092 211.632 165.242 211.632 165.418C211.632 165.534 211.603 165.64 211.544 165.737C211.487 165.834 211.41 165.912 211.313 165.972C211.218 166.028 211.111 166.057 210.993 166.057ZM213.747 166.057C213.572 166.057 213.421 165.994 213.296 165.869C213.171 165.743 213.108 165.593 213.108 165.418C213.108 165.242 213.171 165.092 213.296 164.967C213.421 164.841 213.572 164.778 213.747 164.778C213.922 164.778 214.073 164.841 214.198 164.967C214.323 165.092 214.386 165.242 214.386 165.418C214.386 165.534 214.357 165.64 214.297 165.737C214.241 165.834 214.164 165.912 214.067 165.972C213.972 166.028 213.865 166.057 213.747 166.057ZM216.501 166.057C216.326 166.057 216.175 165.994 216.05 165.869C215.924 165.743 215.862 165.593 215.862 165.418C215.862 165.242 215.924 165.092 216.05 164.967C216.175 164.841 216.326 164.778 216.501 164.778C216.676 164.778 216.826 164.841 216.952 164.967C217.077 165.092 217.14 165.242 217.14 165.418C217.14 165.534 217.11 165.64 217.051 165.737C216.994 165.834 216.918 165.912 216.82 165.972C216.726 166.028 216.619 166.057 216.501 166.057ZM219.255 166.057C219.08 166.057 218.929 165.994 218.804 165.869C218.678 165.743 218.616 165.593 218.616 165.418C218.616 165.242 218.678 165.092 218.804 164.967C218.929 164.841 219.08 164.778 219.255 164.778C219.43 164.778 219.58 164.841 219.706 164.967C219.831 165.092 219.894 165.242 219.894 165.418C219.894 165.534 219.864 165.64 219.805 165.737C219.748 165.834 219.671 165.912 219.574 165.972C219.48 166.028 219.373 166.057 219.255 166.057ZM222.009 166.057C221.834 166.057 221.683 165.994 221.558 165.869C221.432 165.743 221.369 165.593 221.369 165.418C221.369 165.242 221.432 165.092 221.558 164.967C221.683 164.841 221.834 164.778 222.009 164.778C222.184 164.778 222.334 164.841 222.46 164.967C222.585 165.092 222.648 165.242 222.648 165.418C222.648 165.534 222.618 165.64 222.559 165.737C222.502 165.834 222.425 165.912 222.328 165.972C222.234 166.028 222.127 166.057 222.009 166.057ZM224.763 166.057C224.587 166.057 224.437 165.994 224.312 165.869C224.186 165.743 224.123 165.593 224.123 165.418C224.123 165.242 224.186 165.092 224.312 164.967C224.437 164.841 224.587 164.778 224.763 164.778C224.938 164.778 225.088 164.841 225.214 164.967C225.339 165.092 225.402 165.242 225.402 165.418C225.402 165.534 225.372 165.64 225.313 165.737C225.256 165.834 225.179 165.912 225.082 165.972C224.988 166.028 224.881 166.057 224.763 166.057ZM227.517 166.057C227.341 166.057 227.191 165.994 227.066 165.869C226.94 165.743 226.877 165.593 226.877 165.418C226.877 165.242 226.94 165.092 227.066 164.967C227.191 164.841 227.341 164.778 227.517 164.778C227.692 164.778 227.842 164.841 227.968 164.967C228.093 165.092 228.156 165.242 228.156 165.418C228.156 165.534 228.126 165.64 228.067 165.737C228.01 165.834 227.933 165.912 227.836 165.972C227.741 166.028 227.635 166.057 227.517 166.057ZM230.27 166.057C230.095 166.057 229.945 165.994 229.819 165.869C229.694 165.743 229.631 165.593 229.631 165.418C229.631 165.242 229.694 165.092 229.819 164.967C229.945 164.841 230.095 164.778 230.27 164.778C230.446 164.778 230.596 164.841 230.721 164.967C230.847 165.092 230.91 165.242 230.91 165.418C230.91 165.534 230.88 165.64 230.821 165.737C230.764 165.834 230.687 165.912 230.59 165.972C230.495 166.028 230.389 166.057 230.27 166.057ZM233.024 166.057C232.849 166.057 232.699 165.994 232.573 165.869C232.448 165.743 232.385 165.593 232.385 165.418C232.385 165.242 232.448 165.092 232.573 164.967C232.699 164.841 232.849 164.778 233.024 164.778C233.2 164.778 233.35 164.841 233.475 164.967C233.601 165.092 233.664 165.242 233.664 165.418C233.664 165.534 233.634 165.64 233.575 165.737C233.518 165.834 233.441 165.912 233.344 165.972C233.249 166.028 233.143 166.057 233.024 166.057ZM235.778 166.057C235.603 166.057 235.453 165.994 235.327 165.869C235.202 165.743 235.139 165.593 235.139 165.418C235.139 165.242 235.202 165.092 235.327 164.967C235.453 164.841 235.603 164.778 235.778 164.778C235.953 164.778 236.104 164.841 236.229 164.967C236.355 165.092 236.417 165.242 236.417 165.418C236.417 165.534 236.388 165.64 236.329 165.737C236.272 165.834 236.195 165.912 236.098 165.972C236.003 166.028 235.897 166.057 235.778 166.057ZM238.532 166.057C238.357 166.057 238.207 165.994 238.081 165.869C237.956 165.743 237.893 165.593 237.893 165.418C237.893 165.242 237.956 165.092 238.081 164.967C238.207 164.841 238.357 164.778 238.532 164.778C238.707 164.778 238.858 164.841 238.983 164.967C239.109 165.092 239.171 165.242 239.171 165.418C239.171 165.534 239.142 165.64 239.083 165.737C239.026 165.834 238.949 165.912 238.852 165.972C238.757 166.028 238.651 166.057 238.532 166.057ZM241.286 166.057C241.111 166.057 240.961 165.994 240.835 165.869C240.71 165.743 240.647 165.593 240.647 165.418C240.647 165.242 240.71 165.092 240.835 164.967C240.961 164.841 241.111 164.778 241.286 164.778C241.461 164.778 241.612 164.841 241.737 164.967C241.863 165.092 241.925 165.242 241.925 165.418C241.925 165.534 241.896 165.64 241.836 165.737C241.78 165.834 241.703 165.912 241.606 165.972C241.511 166.028 241.404 166.057 241.286 166.057ZM244.04 166.057C243.865 166.057 243.714 165.994 243.589 165.869C243.463 165.743 243.401 165.593 243.401 165.418C243.401 165.242 243.463 165.092 243.589 164.967C243.714 164.841 243.865 164.778 244.04 164.778C244.215 164.778 244.365 164.841 244.491 164.967C244.616 165.092 244.679 165.242 244.679 165.418C244.679 165.534 244.65 165.64 244.59 165.737C244.534 165.834 244.457 165.912 244.36 165.972C244.265 166.028 244.158 166.057 244.04 166.057ZM246.794 166.057C246.619 166.057 246.468 165.994 246.343 165.869C246.217 165.743 246.155 165.593 246.155 165.418C246.155 165.242 246.217 165.092 246.343 164.967C246.468 164.841 246.619 164.778 246.794 164.778C246.969 164.778 247.119 164.841 247.245 164.967C247.37 165.092 247.433 165.242 247.433 165.418C247.433 165.534 247.403 165.64 247.344 165.737C247.287 165.834 247.211 165.912 247.113 165.972C247.019 166.028 246.912 166.057 246.794 166.057ZM249.548 166.057C249.373 166.057 249.222 165.994 249.097 165.869C248.971 165.743 248.909 165.593 248.909 165.418C248.909 165.242 248.971 165.092 249.097 164.967C249.222 164.841 249.373 164.778 249.548 164.778C249.723 164.778 249.873 164.841 249.999 164.967C250.124 165.092 250.187 165.242 250.187 165.418C250.187 165.534 250.157 165.64 250.098 165.737C250.041 165.834 249.964 165.912 249.867 165.972C249.773 166.028 249.666 166.057 249.548 166.057ZM252.302 166.057C252.126 166.057 251.976 165.994 251.851 165.869C251.725 165.743 251.662 165.593 251.662 165.418C251.662 165.242 251.725 165.092 251.851 164.967C251.976 164.841 252.126 164.778 252.302 164.778C252.477 164.778 252.627 164.841 252.753 164.967C252.878 165.092 252.941 165.242 252.941 165.418C252.941 165.534 252.911 165.64 252.852 165.737C252.795 165.834 252.718 165.912 252.621 165.972C252.527 166.028 252.42 166.057 252.302 166.057Z" fill="#B4B4B4"/>
<path d="M253.855 166L255.063 158.727H256.6L255.606 164.732H258.724L258.511 166H253.855ZM260.968 166H259.32L263.039 158.727H265.02L266.32 166H264.672L263.788 160.389H263.731L260.968 166ZM261.345 163.141H265.237L265.031 164.342H261.139L261.345 163.141ZM268.1 166L267.226 158.727H268.906L269.275 163.781H269.336L271.498 158.727H272.936L273.426 163.791H273.49L275.529 158.727H277.208L273.92 166H272.422L271.832 161.245H271.775L269.598 166H268.1ZM284.115 158.727L282.907 166H281.579L279.182 161.423H279.125L278.362 166H276.824L278.031 158.727H279.381L281.767 163.301H281.828L282.584 158.727H284.115Z" fill="black"/>
<path d="M149.938 206.057C149.763 206.057 149.613 205.994 149.487 205.869C149.362 205.743 149.299 205.593 149.299 205.418C149.299 205.242 149.362 205.092 149.487 204.967C149.613 204.841 149.763 204.778 149.938 204.778C150.114 204.778 150.264 204.841 150.389 204.967C150.515 205.092 150.578 205.242 150.578 205.418C150.578 205.534 150.548 205.64 150.489 205.737C150.432 205.834 150.355 205.912 150.258 205.972C150.163 206.028 150.057 206.057 149.938 206.057ZM152.692 206.057C152.517 206.057 152.367 205.994 152.241 205.869C152.116 205.743 152.053 205.593 152.053 205.418C152.053 205.242 152.116 205.092 152.241 204.967C152.367 204.841 152.517 204.778 152.692 204.778C152.867 204.778 153.018 204.841 153.143 204.967C153.269 205.092 153.331 205.242 153.331 205.418C153.331 205.534 153.302 205.64 153.243 205.737C153.186 205.834 153.109 205.912 153.012 205.972C152.917 206.028 152.811 206.057 152.692 206.057ZM155.446 206.057C155.271 206.057 155.121 205.994 154.995 205.869C154.87 205.743 154.807 205.593 154.807 205.418C154.807 205.242 154.87 205.092 154.995 204.967C155.121 204.841 155.271 204.778 155.446 204.778C155.621 204.778 155.772 204.841 155.897 204.967C156.023 205.092 156.085 205.242 156.085 205.418C156.085 205.534 156.056 205.64 155.997 205.737C155.94 205.834 155.863 205.912 155.766 205.972C155.671 206.028 155.565 206.057 155.446 206.057ZM158.2 206.057C158.025 206.057 157.875 205.994 157.749 205.869C157.624 205.743 157.561 205.593 157.561 205.418C157.561 205.242 157.624 205.092 157.749 204.967C157.875 204.841 158.025 204.778 158.2 204.778C158.375 204.778 158.526 204.841 158.651 204.967C158.777 205.092 158.839 205.242 158.839 205.418C158.839 205.534 158.81 205.64 158.751 205.737C158.694 205.834 158.617 205.912 158.52 205.972C158.425 206.028 158.318 206.057 158.2 206.057ZM160.954 206.057C160.779 206.057 160.628 205.994 160.503 205.869C160.378 205.743 160.315 205.593 160.315 205.418C160.315 205.242 160.378 205.092 160.503 204.967C160.628 204.841 160.779 204.778 160.954 204.778C161.129 204.778 161.28 204.841 161.405 204.967C161.53 205.092 161.593 205.242 161.593 205.418C161.593 205.534 161.564 205.64 161.504 205.737C161.448 205.834 161.371 205.912 161.274 205.972C161.179 206.028 161.072 206.057 160.954 206.057ZM163.708 206.057C163.533 206.057 163.382 205.994 163.257 205.869C163.131 205.743 163.069 205.593 163.069 205.418C163.069 205.242 163.131 205.092 163.257 204.967C163.382 204.841 163.533 204.778 163.708 204.778C163.883 204.778 164.033 204.841 164.159 204.967C164.284 205.092 164.347 205.242 164.347 205.418C164.347 205.534 164.318 205.64 164.258 205.737C164.202 205.834 164.125 205.912 164.028 205.972C163.933 206.028 163.826 206.057 163.708 206.057ZM166.462 206.057C166.287 206.057 166.136 205.994 166.011 205.869C165.885 205.743 165.823 205.593 165.823 205.418C165.823 205.242 165.885 205.092 166.011 204.967C166.136 204.841 166.287 204.778 166.462 204.778C166.637 204.778 166.787 204.841 166.913 204.967C167.038 205.092 167.101 205.242 167.101 205.418C167.101 205.534 167.071 205.64 167.012 205.737C166.955 205.834 166.878 205.912 166.781 205.972C166.687 206.028 166.58 206.057 166.462 206.057ZM169.216 206.057C169.041 206.057 168.89 205.994 168.765 205.869C168.639 205.743 168.577 205.593 168.577 205.418C168.577 205.242 168.639 205.092 168.765 204.967C168.89 204.841 169.041 204.778 169.216 204.778C169.391 204.778 169.541 204.841 169.667 204.967C169.792 205.092 169.855 205.242 169.855 205.418C169.855 205.534 169.825 205.64 169.766 205.737C169.709 205.834 169.632 205.912 169.535 205.972C169.441 206.028 169.334 206.057 169.216 206.057ZM171.97 206.057C171.794 206.057 171.644 205.994 171.519 205.869C171.393 205.743 171.33 205.593 171.33 205.418C171.33 205.242 171.393 205.092 171.519 204.967C171.644 204.841 171.794 204.778 171.97 204.778C172.145 204.778 172.295 204.841 172.421 204.967C172.546 205.092 172.609 205.242 172.609 205.418C172.609 205.534 172.579 205.64 172.52 205.737C172.463 205.834 172.386 205.912 172.289 205.972C172.195 206.028 172.088 206.057 171.97 206.057ZM174.724 206.057C174.548 206.057 174.398 205.994 174.273 205.869C174.147 205.743 174.084 205.593 174.084 205.418C174.084 205.242 174.147 205.092 174.273 204.967C174.398 204.841 174.548 204.778 174.724 204.778C174.899 204.778 175.049 204.841 175.175 204.967C175.3 205.092 175.363 205.242 175.363 205.418C175.363 205.534 175.333 205.64 175.274 205.737C175.217 205.834 175.14 205.912 175.043 205.972C174.948 206.028 174.842 206.057 174.724 206.057ZM177.477 206.057C177.302 206.057 177.152 205.994 177.026 205.869C176.901 205.743 176.838 205.593 176.838 205.418C176.838 205.242 176.901 205.092 177.026 204.967C177.152 204.841 177.302 204.778 177.477 204.778C177.653 204.778 177.803 204.841 177.928 204.967C178.054 205.092 178.117 205.242 178.117 205.418C178.117 205.534 178.087 205.64 178.028 205.737C177.971 205.834 177.894 205.912 177.797 205.972C177.702 206.028 177.596 206.057 177.477 206.057ZM180.231 206.057C180.056 206.057 179.906 205.994 179.78 205.869C179.655 205.743 179.592 205.593 179.592 205.418C179.592 205.242 179.655 205.092 179.78 204.967C179.906 204.841 180.056 204.778 180.231 204.778C180.407 204.778 180.557 204.841 180.682 204.967C180.808 205.092 180.871 205.242 180.871 205.418C180.871 205.534 180.841 205.64 180.782 205.737C180.725 205.834 180.648 205.912 180.551 205.972C180.456 206.028 180.35 206.057 180.231 206.057ZM182.985 206.057C182.81 206.057 182.66 205.994 182.534 205.869C182.409 205.743 182.346 205.593 182.346 205.418C182.346 205.242 182.409 205.092 182.534 204.967C182.66 204.841 182.81 204.778 182.985 204.778C183.16 204.778 183.311 204.841 183.436 204.967C183.562 205.092 183.624 205.242 183.624 205.418C183.624 205.534 183.595 205.64 183.536 205.737C183.479 205.834 183.402 205.912 183.305 205.972C183.21 206.028 183.104 206.057 182.985 206.057ZM185.739 206.057C185.564 206.057 185.414 205.994 185.288 205.869C185.163 205.743 185.1 205.593 185.1 205.418C185.1 205.242 185.163 205.092 185.288 204.967C185.414 204.841 185.564 204.778 185.739 204.778C185.914 204.778 186.065 204.841 186.19 204.967C186.316 205.092 186.378 205.242 186.378 205.418C186.378 205.534 186.349 205.64 186.29 205.737C186.233 205.834 186.156 205.912 186.059 205.972C185.964 206.028 185.858 206.057 185.739 206.057ZM188.493 206.057C188.318 206.057 188.168 205.994 188.042 205.869C187.917 205.743 187.854 205.593 187.854 205.418C187.854 205.242 187.917 205.092 188.042 204.967C188.168 204.841 188.318 204.778 188.493 204.778C188.668 204.778 188.819 204.841 188.944 204.967C189.07 205.092 189.132 205.242 189.132 205.418C189.132 205.534 189.103 205.64 189.044 205.737C188.987 205.834 188.91 205.912 188.813 205.972C188.718 206.028 188.611 206.057 188.493 206.057ZM191.247 206.057C191.072 206.057 190.921 205.994 190.796 205.869C190.671 205.743 190.608 205.593 190.608 205.418C190.608 205.242 190.671 205.092 190.796 204.967C190.921 204.841 191.072 204.778 191.247 204.778C191.422 204.778 191.573 204.841 191.698 204.967C191.823 205.092 191.886 205.242 191.886 205.418C191.886 205.534 191.857 205.64 191.797 205.737C191.741 205.834 191.664 205.912 191.567 205.972C191.472 206.028 191.365 206.057 191.247 206.057ZM194.001 206.057C193.826 206.057 193.675 205.994 193.55 205.869C193.424 205.743 193.362 205.593 193.362 205.418C193.362 205.242 193.424 205.092 193.55 204.967C193.675 204.841 193.826 204.778 194.001 204.778C194.176 204.778 194.326 204.841 194.452 204.967C194.577 205.092 194.64 205.242 194.64 205.418C194.64 205.534 194.61 205.64 194.551 205.737C194.494 205.834 194.418 205.912 194.32 205.972C194.226 206.028 194.119 206.057 194.001 206.057ZM196.755 206.057C196.58 206.057 196.429 205.994 196.304 205.869C196.178 205.743 196.116 205.593 196.116 205.418C196.116 205.242 196.178 205.092 196.304 204.967C196.429 204.841 196.58 204.778 196.755 204.778C196.93 204.778 197.08 204.841 197.206 204.967C197.331 205.092 197.394 205.242 197.394 205.418C197.394 205.534 197.364 205.64 197.305 205.737C197.248 205.834 197.171 205.912 197.074 205.972C196.98 206.028 196.873 206.057 196.755 206.057ZM199.509 206.057C199.334 206.057 199.183 205.994 199.058 205.869C198.932 205.743 198.869 205.593 198.869 205.418C198.869 205.242 198.932 205.092 199.058 204.967C199.183 204.841 199.334 204.778 199.509 204.778C199.684 204.778 199.834 204.841 199.96 204.967C200.085 205.092 200.148 205.242 200.148 205.418C200.148 205.534 200.118 205.64 200.059 205.737C200.002 205.834 199.925 205.912 199.828 205.972C199.734 206.028 199.627 206.057 199.509 206.057ZM202.263 206.057C202.087 206.057 201.937 205.994 201.812 205.869C201.686 205.743 201.623 205.593 201.623 205.418C201.623 205.242 201.686 205.092 201.812 204.967C201.937 204.841 202.087 204.778 202.263 204.778C202.438 204.778 202.588 204.841 202.714 204.967C202.839 205.092 202.902 205.242 202.902 205.418C202.902 205.534 202.872 205.64 202.813 205.737C202.756 205.834 202.679 205.912 202.582 205.972C202.488 206.028 202.381 206.057 202.263 206.057ZM205.017 206.057C204.841 206.057 204.691 205.994 204.566 205.869C204.44 205.743 204.377 205.593 204.377 205.418C204.377 205.242 204.44 205.092 204.566 204.967C204.691 204.841 204.841 204.778 205.017 204.778C205.192 204.778 205.342 204.841 205.468 204.967C205.593 205.092 205.656 205.242 205.656 205.418C205.656 205.534 205.626 205.64 205.567 205.737C205.51 205.834 205.433 205.912 205.336 205.972C205.241 206.028 205.135 206.057 205.017 206.057ZM207.77 206.057C207.595 206.057 207.445 205.994 207.319 205.869C207.194 205.743 207.131 205.593 207.131 205.418C207.131 205.242 207.194 205.092 207.319 204.967C207.445 204.841 207.595 204.778 207.77 204.778C207.946 204.778 208.096 204.841 208.221 204.967C208.347 205.092 208.41 205.242 208.41 205.418C208.41 205.534 208.38 205.64 208.321 205.737C208.264 205.834 208.187 205.912 208.09 205.972C207.995 206.028 207.889 206.057 207.77 206.057ZM210.524 206.057C210.349 206.057 210.199 205.994 210.073 205.869C209.948 205.743 209.885 205.593 209.885 205.418C209.885 205.242 209.948 205.092 210.073 204.967C210.199 204.841 210.349 204.778 210.524 204.778C210.7 204.778 210.85 204.841 210.975 204.967C211.101 205.092 211.164 205.242 211.164 205.418C211.164 205.534 211.134 205.64 211.075 205.737C211.018 205.834 210.941 205.912 210.844 205.972C210.749 206.028 210.643 206.057 210.524 206.057ZM213.278 206.057C213.103 206.057 212.953 205.994 212.827 205.869C212.702 205.743 212.639 205.593 212.639 205.418C212.639 205.242 212.702 205.092 212.827 204.967C212.953 204.841 213.103 204.778 213.278 204.778C213.453 204.778 213.604 204.841 213.729 204.967C213.855 205.092 213.917 205.242 213.917 205.418C213.917 205.534 213.888 205.64 213.829 205.737C213.772 205.834 213.695 205.912 213.598 205.972C213.503 206.028 213.397 206.057 213.278 206.057ZM216.032 206.057C215.857 206.057 215.707 205.994 215.581 205.869C215.456 205.743 215.393 205.593 215.393 205.418C215.393 205.242 215.456 205.092 215.581 204.967C215.707 204.841 215.857 204.778 216.032 204.778C216.207 204.778 216.358 204.841 216.483 204.967C216.609 205.092 216.671 205.242 216.671 205.418C216.671 205.534 216.642 205.64 216.583 205.737C216.526 205.834 216.449 205.912 216.352 205.972C216.257 206.028 216.151 206.057 216.032 206.057ZM218.786 206.057C218.611 206.057 218.461 205.994 218.335 205.869C218.21 205.743 218.147 205.593 218.147 205.418C218.147 205.242 218.21 205.092 218.335 204.967C218.461 204.841 218.611 204.778 218.786 204.778C218.961 204.778 219.112 204.841 219.237 204.967C219.363 205.092 219.425 205.242 219.425 205.418C219.425 205.534 219.396 205.64 219.336 205.737C219.28 205.834 219.203 205.912 219.106 205.972C219.011 206.028 218.904 206.057 218.786 206.057ZM221.54 206.057C221.365 206.057 221.214 205.994 221.089 205.869C220.963 205.743 220.901 205.593 220.901 205.418C220.901 205.242 220.963 205.092 221.089 204.967C221.214 204.841 221.365 204.778 221.54 204.778C221.715 204.778 221.865 204.841 221.991 204.967C222.116 205.092 222.179 205.242 222.179 205.418C222.179 205.534 222.15 205.64 222.09 205.737C222.034 205.834 221.957 205.912 221.86 205.972C221.765 206.028 221.658 206.057 221.54 206.057ZM224.294 206.057C224.119 206.057 223.968 205.994 223.843 205.869C223.717 205.743 223.655 205.593 223.655 205.418C223.655 205.242 223.717 205.092 223.843 204.967C223.968 204.841 224.119 204.778 224.294 204.778C224.469 204.778 224.619 204.841 224.745 204.967C224.87 205.092 224.933 205.242 224.933 205.418C224.933 205.534 224.903 205.64 224.844 205.737C224.787 205.834 224.711 205.912 224.613 205.972C224.519 206.028 224.412 206.057 224.294 206.057ZM227.048 206.057C226.873 206.057 226.722 205.994 226.597 205.869C226.471 205.743 226.409 205.593 226.409 205.418C226.409 205.242 226.471 205.092 226.597 204.967C226.722 204.841 226.873 204.778 227.048 204.778C227.223 204.778 227.373 204.841 227.499 204.967C227.624 205.092 227.687 205.242 227.687 205.418C227.687 205.534 227.657 205.64 227.598 205.737C227.541 205.834 227.464 205.912 227.367 205.972C227.273 206.028 227.166 206.057 227.048 206.057ZM229.802 206.057C229.626 206.057 229.476 205.994 229.351 205.869C229.225 205.743 229.162 205.593 229.162 205.418C229.162 205.242 229.225 205.092 229.351 204.967C229.476 204.841 229.626 204.778 229.802 204.778C229.977 204.778 230.127 204.841 230.253 204.967C230.378 205.092 230.441 205.242 230.441 205.418C230.441 205.534 230.411 205.64 230.352 205.737C230.295 205.834 230.218 205.912 230.121 205.972C230.027 206.028 229.92 206.057 229.802 206.057Z" fill="#B4B4B4"/>
<path d="M236.153 200.84C236.165 200.544 236.078 200.316 235.894 200.155C235.711 199.994 235.436 199.913 235.066 199.913C234.815 199.913 234.597 199.949 234.413 200.02C234.228 200.089 234.08 200.184 233.969 200.308C233.86 200.428 233.793 200.568 233.767 200.727C233.74 200.857 233.749 200.97 233.791 201.067C233.836 201.165 233.906 201.249 234.001 201.32C234.098 201.388 234.213 201.449 234.345 201.501C234.478 201.55 234.619 201.593 234.768 201.629L235.393 201.785C235.698 201.856 235.973 201.951 236.217 202.069C236.463 202.187 236.669 202.333 236.835 202.506C237.003 202.679 237.121 202.882 237.19 203.116C237.258 203.351 237.268 203.62 237.218 203.923C237.142 204.368 236.966 204.754 236.689 205.08C236.412 205.405 236.049 205.657 235.599 205.837C235.149 206.014 234.628 206.103 234.036 206.103C233.449 206.103 232.953 206.013 232.548 205.833C232.144 205.653 231.849 205.387 231.664 205.034C231.482 204.679 231.427 204.24 231.501 203.717H232.989C232.963 203.96 232.998 204.164 233.095 204.327C233.195 204.488 233.343 204.61 233.539 204.693C233.736 204.774 233.967 204.814 234.232 204.814C234.494 204.814 234.728 204.776 234.931 204.7C235.137 204.625 235.304 204.519 235.432 204.384C235.56 204.249 235.638 204.094 235.666 203.919C235.695 203.756 235.67 203.618 235.592 203.507C235.514 203.396 235.388 203.301 235.215 203.223C235.045 203.143 234.833 203.071 234.58 203.01L233.82 202.811C233.233 202.662 232.789 202.429 232.488 202.112C232.187 201.794 232.08 201.367 232.165 200.83C232.241 200.389 232.424 200.004 232.715 199.675C233.009 199.344 233.378 199.087 233.823 198.905C234.271 198.72 234.76 198.628 235.29 198.628C235.83 198.628 236.285 198.721 236.657 198.908C237.029 199.093 237.3 199.351 237.47 199.683C237.641 200.014 237.693 200.4 237.627 200.84H236.153ZM237.908 206L239.115 198.727H241.985C242.534 198.727 242.985 198.833 243.338 199.043C243.693 199.252 243.941 199.542 244.083 199.913C244.228 200.283 244.261 200.709 244.183 201.192C244.102 201.677 243.927 202.104 243.657 202.474C243.39 202.841 243.042 203.127 242.613 203.333C242.185 203.539 241.69 203.642 241.129 203.642H239.3L239.502 202.41H241.083C241.381 202.41 241.636 202.359 241.846 202.257C242.059 202.153 242.229 202.01 242.354 201.827C242.48 201.643 242.561 201.431 242.599 201.192C242.639 200.948 242.626 200.736 242.56 200.556C242.494 200.376 242.372 200.237 242.194 200.137C242.019 200.035 241.783 199.984 241.488 199.984H240.451L239.446 206H237.908ZM244.383 206L245.59 198.727H250.491L250.278 199.995H246.915L246.631 201.728H249.741L249.528 202.996H246.417L246.133 204.732H249.51L249.297 206H244.383ZM251.759 206H250.112L253.83 198.727H255.811L257.111 206H255.463L254.579 200.389H254.522L251.759 206ZM252.136 203.141H256.028L255.822 204.342H251.93L252.136 203.141ZM257.986 206L259.194 198.727H260.731L260.202 201.934H260.298L263.444 198.727H265.287L262.059 201.984L264.112 206H262.272L260.788 203.01L259.872 203.94L259.524 206H257.986ZM264.881 206L266.088 198.727H270.989L270.776 199.995H267.413L267.129 201.728H270.239L270.026 202.996H266.915L266.631 204.732H270.009L269.795 206H264.881ZM271.004 206L272.211 198.727H275.08C275.63 198.727 276.082 198.824 276.437 199.018C276.794 199.213 277.045 199.488 277.19 199.846C277.337 200.201 277.371 200.62 277.293 201.103C277.212 201.586 277.038 202 276.771 202.346C276.506 202.692 276.16 202.958 275.734 203.145C275.31 203.33 274.819 203.422 274.26 203.422H272.339L272.552 202.186H274.221C274.515 202.186 274.766 202.146 274.974 202.065C275.182 201.985 275.347 201.864 275.468 201.703C275.591 201.542 275.671 201.342 275.709 201.103C275.749 200.859 275.735 200.656 275.666 200.492C275.598 200.326 275.473 200.201 275.294 200.116C275.114 200.028 274.877 199.984 274.583 199.984H273.546L272.541 206H271.004ZM275.478 202.69L276.739 206H275.041L273.82 202.69H275.478ZM282.422 200.84C282.434 200.544 282.348 200.316 282.163 200.155C281.981 199.994 281.705 199.913 281.336 199.913C281.085 199.913 280.867 199.949 280.682 200.02C280.498 200.089 280.35 200.184 280.238 200.308C280.13 200.428 280.062 200.568 280.036 200.727C280.01 200.857 280.018 200.97 280.061 201.067C280.106 201.165 280.176 201.249 280.27 201.32C280.367 201.388 280.482 201.449 280.615 201.501C280.747 201.55 280.888 201.593 281.037 201.629L281.662 201.785C281.968 201.856 282.242 201.951 282.486 202.069C282.733 202.187 282.939 202.333 283.104 202.506C283.272 202.679 283.391 202.882 283.459 203.116C283.528 203.351 283.537 203.62 283.488 203.923C283.412 204.368 283.236 204.754 282.959 205.08C282.682 205.405 282.318 205.657 281.868 205.837C281.419 206.014 280.898 206.103 280.306 206.103C279.719 206.103 279.223 206.013 278.818 205.833C278.413 205.653 278.118 205.387 277.934 205.034C277.751 204.679 277.697 204.24 277.77 203.717H279.258C279.232 203.96 279.268 204.164 279.365 204.327C279.464 204.488 279.612 204.61 279.809 204.693C280.005 204.774 280.236 204.814 280.501 204.814C280.764 204.814 280.997 204.776 281.201 204.7C281.407 204.625 281.574 204.519 281.702 204.384C281.829 204.249 281.907 204.094 281.936 203.919C281.964 203.756 281.939 203.618 281.861 203.507C281.783 203.396 281.658 203.301 281.485 203.223C281.314 203.143 281.103 203.071 280.849 203.01L280.089 202.811C279.502 202.662 279.058 202.429 278.758 202.112C278.457 201.794 278.349 201.367 278.434 200.83C278.51 200.389 278.694 200.004 278.985 199.675C279.278 199.344 279.648 199.087 280.093 198.905C280.54 198.72 281.029 198.628 281.559 198.628C282.099 198.628 282.555 198.721 282.927 198.908C283.298 199.093 283.569 199.351 283.74 199.683C283.91 200.014 283.962 200.4 283.896 200.84H282.422Z" fill="black"/>
</svg>
