<svg width="240" height="44" viewBox="0 0 240 44" fill="none" xmlns="http://www.w3.org/2000/svg">
<rect width="240" height="44" fill="white"/>
<path d="M100.914 30V14.6H103.294V23H105.634L109.874 18.4H112.514V18.96L107.754 24.2L112.514 29.44V30H109.874L105.634 25.4H103.294V30H100.914ZM116.425 30C115.931 30 115.485 29.88 115.085 29.64C114.685 29.3867 114.358 29.06 114.105 28.66C113.865 28.26 113.745 27.8133 113.745 27.32V21.08C113.745 20.5867 113.865 20.14 114.105 19.74C114.358 19.34 114.685 19.02 115.085 18.78C115.485 18.5267 115.931 18.4 116.425 18.4H122.845C123.351 18.4 123.805 18.5267 124.205 18.78C124.605 19.02 124.925 19.34 125.165 19.74C125.405 20.14 125.525 20.5867 125.525 21.08V25.4H116.125V27.24C116.125 27.3467 116.158 27.44 116.225 27.52C116.305 27.5867 116.398 27.62 116.505 27.62H125.525V30H116.425ZM116.125 23.22H123.145V21.16C123.145 21.0533 123.105 20.9667 123.025 20.9C122.958 20.82 122.871 20.78 122.765 20.78H116.505C116.398 20.78 116.305 20.82 116.225 20.9C116.158 20.9667 116.125 21.0533 116.125 21.16V23.22ZM129.295 34.36V31.96H136.355C136.448 31.96 136.528 31.92 136.595 31.84C136.675 31.7733 136.715 31.6933 136.715 31.6V30H129.995C129.515 30 129.068 29.88 128.655 29.64C128.255 29.3867 127.928 29.06 127.675 28.66C127.435 28.26 127.315 27.8133 127.315 27.32V18.44H129.695V27.24C129.695 27.3467 129.728 27.44 129.795 27.52C129.875 27.5867 129.968 27.62 130.075 27.62H136.355C136.448 27.62 136.528 27.5867 136.595 27.52C136.675 27.44 136.715 27.3467 136.715 27.24V18.44H139.095V31.68C139.095 32.1867 138.975 32.64 138.735 33.04C138.508 33.44 138.188 33.76 137.775 34C137.375 34.24 136.928 34.36 136.435 34.36H129.295Z" fill="black"/>
</svg>
