<svg width="190" height="44" viewBox="0 0 190 44" fill="none" xmlns="http://www.w3.org/2000/svg">
<rect width="190" height="44" fill="white"/>
<path d="M11.991 30C11.4977 30 11.051 29.88 10.651 29.64C10.251 29.3867 9.92435 29.06 9.67102 28.66C9.43102 28.26 9.31102 27.8133 9.31102 27.32V21.08C9.31102 20.5867 9.43102 20.14 9.67102 19.74C9.92435 19.34 10.251 19.02 10.651 18.78C11.051 18.5267 11.4977 18.4 11.991 18.4H21.071V20.78H12.071C11.9643 20.78 11.871 20.82 11.791 20.9C11.7243 20.9667 11.691 21.0533 11.691 21.16V27.24C11.691 27.3467 11.7243 27.44 11.791 27.52C11.871 27.5867 11.9643 27.62 12.071 27.62H21.091V30H11.991ZM25.7996 30C25.3063 30 24.8596 29.88 24.4596 29.64C24.0596 29.3867 23.7329 29.06 23.4796 28.66C23.2396 28.26 23.1196 27.8133 23.1196 27.32V21.08C23.1196 20.5867 23.2396 20.14 23.4796 19.74C23.7329 19.34 24.0596 19.02 24.4596 18.78C24.8596 18.5267 25.3063 18.4 25.7996 18.4H32.2196C32.7263 18.4 33.1796 18.5267 33.5796 18.78C33.9796 19.02 34.2996 19.34 34.5396 19.74C34.7796 20.14 34.8996 20.5867 34.8996 21.08V27.32C34.8996 27.8133 34.7796 28.26 34.5396 28.66C34.2996 29.06 33.9796 29.3867 33.5796 29.64C33.1796 29.88 32.7263 30 32.2196 30H25.7996ZM25.8796 27.62H32.1396C32.2463 27.62 32.3329 27.5867 32.3996 27.52C32.4796 27.44 32.5196 27.3467 32.5196 27.24V21.16C32.5196 21.0533 32.4796 20.9667 32.3996 20.9C32.3329 20.82 32.2463 20.78 32.1396 20.78H25.8796C25.7729 20.78 25.6796 20.82 25.5996 20.9C25.5329 20.9667 25.4996 21.0533 25.4996 21.16V27.24C25.4996 27.3467 25.5329 27.44 25.5996 27.52C25.6796 27.5867 25.7729 27.62 25.8796 27.62ZM36.578 30V18.4H45.698C46.178 18.4 46.618 18.5267 47.018 18.78C47.4314 19.02 47.758 19.34 47.998 19.74C48.238 20.14 48.358 20.5867 48.358 21.08V30H45.978V21.16C45.978 21.0533 45.938 20.9667 45.858 20.9C45.7914 20.82 45.7114 20.78 45.618 20.78H39.338C39.2447 20.78 39.158 20.82 39.078 20.9C38.998 20.9667 38.958 21.0533 38.958 21.16V30H36.578ZM53.1638 30C52.6705 30 52.2172 29.88 51.8038 29.64C51.4038 29.3867 51.0838 29.06 50.8438 28.66C50.6038 28.26 50.4838 27.8133 50.4838 27.32V14.78H52.8638V18.4H57.5038V20.78H52.8638V27.24C52.8638 27.3467 52.8972 27.44 52.9638 27.52C53.0438 27.5867 53.1372 27.62 53.2438 27.62H57.5038V30H53.1638ZM61.7566 30C61.2633 30 60.8166 29.88 60.4166 29.64C60.0166 29.3867 59.69 29.06 59.4366 28.66C59.1966 28.26 59.0766 27.8133 59.0766 27.32V21.08C59.0766 20.5867 59.1966 20.14 59.4366 19.74C59.69 19.34 60.0166 19.02 60.4166 18.78C60.8166 18.5267 61.2633 18.4 61.7566 18.4H68.1766C68.6833 18.4 69.1366 18.5267 69.5366 18.78C69.9366 19.02 70.2566 19.34 70.4966 19.74C70.7366 20.14 70.8566 20.5867 70.8566 21.08V25.4H61.4566V27.24C61.4566 27.3467 61.49 27.44 61.5566 27.52C61.6366 27.5867 61.73 27.62 61.8366 27.62H70.8566V30H61.7566ZM61.4566 23.22H68.4766V21.16C68.4766 21.0533 68.4366 20.9667 68.3566 20.9C68.29 20.82 68.2033 20.78 68.0966 20.78H61.8366C61.73 20.78 61.6366 20.82 61.5566 20.9C61.49 20.9667 61.4566 21.0533 61.4566 21.16V23.22ZM72.9843 30V18.4H82.1043C82.5843 18.4 83.0243 18.5267 83.4243 18.78C83.8376 19.02 84.1643 19.34 84.4043 19.74C84.6443 20.14 84.7643 20.5867 84.7643 21.08V30H82.3843V21.16C82.3843 21.0533 82.3443 20.9667 82.2643 20.9C82.1976 20.82 82.1176 20.78 82.0243 20.78H75.7443C75.651 20.78 75.5643 20.82 75.4843 20.9C75.4043 20.9667 75.3643 21.0533 75.3643 21.16V30H72.9843ZM89.5701 30C89.0767 30 88.6234 29.88 88.2101 29.64C87.8101 29.3867 87.4901 29.06 87.2501 28.66C87.0101 28.26 86.8901 27.8133 86.8901 27.32V14.78H89.2701V18.4H93.9101V20.78H89.2701V27.24C89.2701 27.3467 89.3034 27.44 89.3701 27.52C89.4501 27.5867 89.5434 27.62 89.6501 27.62H93.9101V30H89.5701ZM104.06 30C103.567 30 103.12 29.88 102.72 29.64C102.32 29.3867 101.993 29.06 101.74 28.66C101.5 28.26 101.38 27.8133 101.38 27.32V26.94H103.76V27.24C103.76 27.3467 103.793 27.44 103.86 27.52C103.94 27.5867 104.033 27.62 104.14 27.62H110.4C110.507 27.62 110.593 27.5867 110.66 27.52C110.74 27.44 110.78 27.3467 110.78 27.24V25.76C110.78 25.6667 110.74 25.5867 110.66 25.52C110.593 25.44 110.507 25.4 110.4 25.4H104.06C103.567 25.4 103.12 25.28 102.72 25.04C102.32 24.7867 101.993 24.46 101.74 24.06C101.5 23.66 101.38 23.2133 101.38 22.72V21.08C101.38 20.5867 101.5 20.14 101.74 19.74C101.993 19.34 102.32 19.02 102.72 18.78C103.12 18.5267 103.567 18.4 104.06 18.4H110.48C110.987 18.4 111.44 18.5267 111.84 18.78C112.24 19.02 112.56 19.34 112.8 19.74C113.053 20.14 113.18 20.5867 113.18 21.08V21.46H110.78V21.16C110.78 21.0533 110.74 20.9667 110.66 20.9C110.593 20.82 110.507 20.78 110.4 20.78H104.14C104.033 20.78 103.94 20.82 103.86 20.9C103.793 20.9667 103.76 21.0533 103.76 21.16V22.64C103.76 22.7333 103.793 22.82 103.86 22.9C103.94 22.9667 104.033 23 104.14 23H110.48C110.987 23 111.44 23.1267 111.84 23.38C112.24 23.62 112.56 23.94 112.8 24.34C113.053 24.74 113.18 25.1867 113.18 25.68V27.32C113.18 27.8133 113.053 28.26 112.8 28.66C112.56 29.06 112.24 29.3867 111.84 29.64C111.44 29.88 110.987 30 110.48 30H104.06ZM115.211 34.6V18.4H124.331C124.811 18.4 125.251 18.5267 125.651 18.78C126.064 19.02 126.391 19.34 126.631 19.74C126.871 20.14 126.991 20.5867 126.991 21.08V27.32C126.991 27.8133 126.871 28.26 126.631 28.66C126.391 29.06 126.064 29.3867 125.651 29.64C125.251 29.88 124.811 30 124.331 30H117.591V34.6H115.211ZM117.971 27.62H124.251C124.344 27.62 124.424 27.5867 124.491 27.52C124.571 27.44 124.611 27.3467 124.611 27.24V21.16C124.611 21.0533 124.571 20.9667 124.491 20.9C124.424 20.82 124.344 20.78 124.251 20.78H117.971C117.878 20.78 117.791 20.82 117.711 20.9C117.631 20.9667 117.591 21.0533 117.591 21.16V27.24C117.591 27.3467 117.631 27.44 117.711 27.52C117.791 27.5867 117.878 27.62 117.971 27.62ZM131.132 30C130.639 30 130.185 29.88 129.772 29.64C129.372 29.3867 129.052 29.06 128.812 28.66C128.572 28.26 128.452 27.8133 128.452 27.32V23H137.852V21.16C137.852 21.0533 137.812 20.9667 137.732 20.9C137.665 20.82 137.579 20.78 137.472 20.78H128.452V18.4H137.552C138.059 18.4 138.512 18.5267 138.912 18.78C139.312 19.02 139.632 19.34 139.872 19.74C140.112 20.14 140.232 20.5867 140.232 21.08V30H131.132ZM131.212 27.62H137.852V25.18H130.832V27.24C130.832 27.3467 130.865 27.44 130.932 27.52C131.012 27.5867 131.105 27.62 131.212 27.62ZM144.55 30C144.056 30 143.61 29.88 143.21 29.64C142.81 29.3867 142.483 29.06 142.23 28.66C141.99 28.26 141.87 27.8133 141.87 27.32V21.08C141.87 20.5867 141.99 20.14 142.23 19.74C142.483 19.34 142.81 19.02 143.21 18.78C143.61 18.5267 144.056 18.4 144.55 18.4H153.63V20.78H144.63C144.523 20.78 144.43 20.82 144.35 20.9C144.283 20.9667 144.25 21.0533 144.25 21.16V27.24C144.25 27.3467 144.283 27.44 144.35 27.52C144.43 27.5867 144.523 27.62 144.63 27.62H153.65V30H144.55ZM157.948 30C157.455 30 157.008 29.88 156.608 29.64C156.208 29.3867 155.881 29.06 155.628 28.66C155.388 28.26 155.268 27.8133 155.268 27.32V21.08C155.268 20.5867 155.388 20.14 155.628 19.74C155.881 19.34 156.208 19.02 156.608 18.78C157.008 18.5267 157.455 18.4 157.948 18.4H164.368C164.875 18.4 165.328 18.5267 165.728 18.78C166.128 19.02 166.448 19.34 166.688 19.74C166.928 20.14 167.048 20.5867 167.048 21.08V25.4H157.648V27.24C157.648 27.3467 157.681 27.44 157.748 27.52C157.828 27.5867 157.921 27.62 158.028 27.62H167.048V30H157.948ZM157.648 23.22H164.668V21.16C164.668 21.0533 164.628 20.9667 164.548 20.9C164.481 20.82 164.395 20.78 164.288 20.78H158.028C157.921 20.78 157.828 20.82 157.748 20.9C157.681 20.9667 157.648 21.0533 157.648 21.16V23.22ZM171.638 30C171.145 30 170.698 29.88 170.298 29.64C169.898 29.3867 169.571 29.06 169.318 28.66C169.078 28.26 168.958 27.8133 168.958 27.32V26.94H171.338V27.24C171.338 27.3467 171.371 27.44 171.438 27.52C171.518 27.5867 171.611 27.62 171.718 27.62H177.978C178.085 27.62 178.171 27.5867 178.238 27.52C178.318 27.44 178.358 27.3467 178.358 27.24V25.76C178.358 25.6667 178.318 25.5867 178.238 25.52C178.171 25.44 178.085 25.4 177.978 25.4H171.638C171.145 25.4 170.698 25.28 170.298 25.04C169.898 24.7867 169.571 24.46 169.318 24.06C169.078 23.66 168.958 23.2133 168.958 22.72V21.08C168.958 20.5867 169.078 20.14 169.318 19.74C169.571 19.34 169.898 19.02 170.298 18.78C170.698 18.5267 171.145 18.4 171.638 18.4H178.058C178.565 18.4 179.018 18.5267 179.418 18.78C179.818 19.02 180.138 19.34 180.378 19.74C180.631 20.14 180.758 20.5867 180.758 21.08V21.46H178.358V21.16C178.358 21.0533 178.318 20.9667 178.238 20.9C178.171 20.82 178.085 20.78 177.978 20.78H171.718C171.611 20.78 171.518 20.82 171.438 20.9C171.371 20.9667 171.338 21.0533 171.338 21.16V22.64C171.338 22.7333 171.371 22.82 171.438 22.9C171.518 22.9667 171.611 23 171.718 23H178.058C178.565 23 179.018 23.1267 179.418 23.38C179.818 23.62 180.138 23.94 180.378 24.34C180.631 24.74 180.758 25.1867 180.758 25.68V27.32C180.758 27.8133 180.631 28.26 180.378 28.66C180.138 29.06 179.818 29.3867 179.418 29.64C179.018 29.88 178.565 30 178.058 30H171.638Z" fill="black"/>
</svg>
