<svg width="300" height="50" viewBox="0 0 300 50" fill="none" xmlns="http://www.w3.org/2000/svg">
<path d="M0.999998 50L30 0V50H0.999998Z" fill="#0E183D"/>
<rect width="240" height="50" transform="translate(30)" fill="#0E183D"/>
<path d="M106.403 35C105.762 35 105.181 34.844 104.661 34.532C104.141 34.2027 103.717 33.778 103.387 33.258C103.075 32.738 102.919 32.1573 102.919 31.516V14.954H106.039V31.412C106.039 31.5507 106.083 31.672 106.169 31.776C106.273 31.8627 106.386 31.906 106.507 31.906H109.315V35H106.403ZM114.655 35C114.013 35 113.433 34.844 112.913 34.532C112.393 34.2027 111.968 33.778 111.639 33.258C111.327 32.738 111.171 32.1573 111.171 31.516V23.404C111.171 22.7627 111.327 22.182 111.639 21.662C111.968 21.142 112.393 20.726 112.913 20.414C113.433 20.0847 114.013 19.92 114.655 19.92H123.001C123.659 19.92 124.249 20.0847 124.769 20.414C125.289 20.726 125.705 21.142 126.017 21.662C126.329 22.182 126.485 22.7627 126.485 23.404V29.02H114.265V31.412C114.265 31.5507 114.308 31.672 114.395 31.776C114.499 31.8627 114.62 31.906 114.759 31.906H126.485V35H114.655ZM114.265 26.186H123.391V23.508C123.391 23.3693 123.339 23.2567 123.235 23.17C123.148 23.066 123.035 23.014 122.897 23.014H114.759C114.62 23.014 114.499 23.066 114.395 23.17C114.308 23.2567 114.265 23.3693 114.265 23.508V26.186ZM131.36 40.954V37.834H140.538C140.659 37.834 140.763 37.782 140.85 37.678C140.954 37.5913 141.006 37.4787 141.006 37.34V35H132.27C131.646 35 131.065 34.844 130.528 34.532C130.008 34.2027 129.583 33.778 129.254 33.258C128.942 32.738 128.786 32.1573 128.786 31.516V23.404C128.786 22.7627 128.942 22.182 129.254 21.662C129.583 21.142 130.008 20.726 130.528 20.414C131.065 20.0847 131.646 19.92 132.27 19.92H140.642C141.283 19.92 141.864 20.0847 142.384 20.414C142.921 20.726 143.337 21.142 143.632 21.662C143.944 22.182 144.1 22.7627 144.1 23.404V37.47C144.1 38.1113 143.944 38.692 143.632 39.212C143.337 39.7493 142.921 40.174 142.384 40.486C141.864 40.798 141.283 40.954 140.642 40.954H131.36ZM132.374 31.906L140.538 31.906C140.659 31.906 140.763 31.8627 140.85 31.776C140.954 31.672 141.006 31.5507 141.006 31.412V23.508C141.006 23.3693 140.954 23.2567 140.85 23.17C140.763 23.066 140.659 23.014 140.538 23.014H132.374C132.235 23.014 132.114 23.066 132.01 23.17C131.923 23.2567 131.88 23.3693 131.88 23.508V31.412C131.88 31.5507 131.923 31.672 132.01 31.776C132.114 31.8627 132.235 31.906 132.374 31.906ZM149.795 35C149.154 35 148.573 34.844 148.053 34.532C147.533 34.2027 147.109 33.778 146.779 33.258C146.467 32.738 146.311 32.1573 146.311 31.516V23.404C146.311 22.7627 146.467 22.182 146.779 21.662C147.109 21.142 147.533 20.726 148.053 20.414C148.573 20.0847 149.154 19.92 149.795 19.92H158.141C158.8 19.92 159.389 20.0847 159.909 20.414C160.429 20.726 160.845 21.142 161.157 21.662C161.469 22.182 161.625 22.7627 161.625 23.404V29.02H149.405V31.412C149.405 31.5507 149.449 31.672 149.535 31.776C149.639 31.8627 149.761 31.906 149.899 31.906H161.625V35H149.795ZM149.405 26.186H158.531V23.508C158.531 23.3693 158.479 23.2567 158.375 23.17C158.289 23.066 158.176 23.014 158.037 23.014H149.899C149.761 23.014 149.639 23.066 149.535 23.17C149.449 23.2567 149.405 23.3693 149.405 23.508V26.186ZM164.391 35V19.92H176.247C176.871 19.92 177.443 20.0847 177.963 20.414C178.501 20.726 178.925 21.142 179.237 21.662C179.549 22.182 179.705 22.7627 179.705 23.404V35H176.611V23.508C176.611 23.3693 176.559 23.2567 176.455 23.17C176.369 23.066 176.265 23.014 176.143 23.014H167.979C167.858 23.014 167.745 23.066 167.641 23.17C167.537 23.2567 167.485 23.3693 167.485 23.508V35H164.391ZM185.173 35C184.531 35 183.942 34.844 183.405 34.532C182.885 34.2027 182.469 33.778 182.157 33.258C181.845 32.738 181.689 32.1573 181.689 31.516V23.404C181.689 22.7627 181.845 22.182 182.157 21.662C182.469 21.142 182.885 20.726 183.405 20.414C183.942 20.0847 184.531 19.92 185.173 19.92H193.935V14.98H197.029V35H185.173ZM185.303 31.906H193.441C193.579 31.906 193.692 31.8627 193.779 31.776C193.883 31.672 193.935 31.5507 193.935 31.412V23.508C193.935 23.3693 193.883 23.2567 193.779 23.17C193.692 23.066 193.579 23.014 193.441 23.014H185.303C185.164 23.014 185.043 23.066 184.939 23.17C184.852 23.2567 184.809 23.3693 184.809 23.508V31.412C184.809 31.5507 184.852 31.672 184.939 31.776C185.043 31.8627 185.164 31.906 185.303 31.906Z" fill="white"/>
<path d="M299 0L270 50V0H299Z" fill="#0E183D"/>
</svg>
