<svg width="300" height="144" viewBox="0 0 300 144" fill="none" xmlns="http://www.w3.org/2000/svg">
<rect x="1" y="1" width="298" height="142" fill="white"/>
<rect x="1" y="1" width="298" height="142" stroke="black" stroke-width="2"/>
<path d="M47.5 16.5V47.5H16.5V16.5H47.5Z" fill="#FFFF36" stroke="black"/>
<path d="M24.75 21.5H39.75L38.4631 38.2301C38.3428 39.7931 37.0395 41 35.4719 41H29.0281C27.4605 41 26.1572 39.7931 26.0369 38.2301L24.75 21.5Z" fill="black"/>
<path d="M24 20H40.5" stroke="black" stroke-width="1.5"/>
<path d="M27.75 31.8386C28.7411 30.7971 30.3375 30.0623 31.6875 30.7971C33.0175 31.521 33.998 32.1684 35.18 31.9606C35.8749 31.8384 36.3815 31.2758 36.75 30.674" stroke="#FFFF36" stroke-width="1.5" stroke-linecap="round"/>
<path d="M47.5 56.5V87.5H16.5V56.5H47.5Z" fill="#FFFF36" stroke="black"/>
<path d="M23 64H38V76C38 77.6569 36.6569 79 35 79H26C24.3431 79 23 77.6569 23 76V64Z" fill="black"/>
<path d="M36.5 67H39.5C40.3284 67 41 67.6716 41 68.5V73C41 73.8284 40.3284 74.5 39.5 74.5H36.5" stroke="black" stroke-width="1.5"/>
<path d="M47.5 96.5V127.5H16.5V96.5H47.5Z" fill="#FFFF36" stroke="black"/>
<path d="M41.5 101H29.5L22 113.75H29.5V121.25L41.5 109.25H33.25L41.5 101Z" fill="black"/>
<path d="M148.796 34.0568C148.621 34.0568 148.47 33.9941 148.345 33.8686C148.219 33.7431 148.157 33.5928 148.157 33.4176C148.157 33.2424 148.219 33.0921 148.345 32.9666C148.47 32.8411 148.621 32.7784 148.796 32.7784C148.971 32.7784 149.121 32.8411 149.247 32.9666C149.372 33.0921 149.435 33.2424 149.435 33.4176C149.435 33.5336 149.405 33.6402 149.346 33.7372C149.289 33.8343 149.212 33.9124 149.115 33.9716C149.021 34.0284 148.914 34.0568 148.796 34.0568ZM151.55 34.0568C151.375 34.0568 151.224 33.9941 151.099 33.8686C150.973 33.7431 150.911 33.5928 150.911 33.4176C150.911 33.2424 150.973 33.0921 151.099 32.9666C151.224 32.8411 151.375 32.7784 151.55 32.7784C151.725 32.7784 151.875 32.8411 152.001 32.9666C152.126 33.0921 152.189 33.2424 152.189 33.4176C152.189 33.5336 152.159 33.6402 152.1 33.7372C152.043 33.8343 151.966 33.9124 151.869 33.9716C151.775 34.0284 151.668 34.0568 151.55 34.0568ZM154.304 34.0568C154.128 34.0568 153.978 33.9941 153.853 33.8686C153.727 33.7431 153.664 33.5928 153.664 33.4176C153.664 33.2424 153.727 33.0921 153.853 32.9666C153.978 32.8411 154.128 32.7784 154.304 32.7784C154.479 32.7784 154.629 32.8411 154.755 32.9666C154.88 33.0921 154.943 33.2424 154.943 33.4176C154.943 33.5336 154.913 33.6402 154.854 33.7372C154.797 33.8343 154.72 33.9124 154.623 33.9716C154.529 34.0284 154.422 34.0568 154.304 34.0568ZM157.058 34.0568C156.882 34.0568 156.732 33.9941 156.607 33.8686C156.481 33.7431 156.418 33.5928 156.418 33.4176C156.418 33.2424 156.481 33.0921 156.607 32.9666C156.732 32.8411 156.882 32.7784 157.058 32.7784C157.233 32.7784 157.383 32.8411 157.509 32.9666C157.634 33.0921 157.697 33.2424 157.697 33.4176C157.697 33.5336 157.667 33.6402 157.608 33.7372C157.551 33.8343 157.474 33.9124 157.377 33.9716C157.282 34.0284 157.176 34.0568 157.058 34.0568ZM159.811 34.0568C159.636 34.0568 159.486 33.9941 159.36 33.8686C159.235 33.7431 159.172 33.5928 159.172 33.4176C159.172 33.2424 159.235 33.0921 159.36 32.9666C159.486 32.8411 159.636 32.7784 159.811 32.7784C159.987 32.7784 160.137 32.8411 160.262 32.9666C160.388 33.0921 160.451 33.2424 160.451 33.4176C160.451 33.5336 160.421 33.6402 160.362 33.7372C160.305 33.8343 160.228 33.9124 160.131 33.9716C160.036 34.0284 159.93 34.0568 159.811 34.0568ZM162.565 34.0568C162.39 34.0568 162.24 33.9941 162.114 33.8686C161.989 33.7431 161.926 33.5928 161.926 33.4176C161.926 33.2424 161.989 33.0921 162.114 32.9666C162.24 32.8411 162.39 32.7784 162.565 32.7784C162.741 32.7784 162.891 32.8411 163.016 32.9666C163.142 33.0921 163.205 33.2424 163.205 33.4176C163.205 33.5336 163.175 33.6402 163.116 33.7372C163.059 33.8343 162.982 33.9124 162.885 33.9716C162.79 34.0284 162.684 34.0568 162.565 34.0568ZM165.319 34.0568C165.144 34.0568 164.994 33.9941 164.868 33.8686C164.743 33.7431 164.68 33.5928 164.68 33.4176C164.68 33.2424 164.743 33.0921 164.868 32.9666C164.994 32.8411 165.144 32.7784 165.319 32.7784C165.494 32.7784 165.645 32.8411 165.77 32.9666C165.896 33.0921 165.958 33.2424 165.958 33.4176C165.958 33.5336 165.929 33.6402 165.87 33.7372C165.813 33.8343 165.736 33.9124 165.639 33.9716C165.544 34.0284 165.438 34.0568 165.319 34.0568ZM168.073 34.0568C167.898 34.0568 167.748 33.9941 167.622 33.8686C167.497 33.7431 167.434 33.5928 167.434 33.4176C167.434 33.2424 167.497 33.0921 167.622 32.9666C167.748 32.8411 167.898 32.7784 168.073 32.7784C168.248 32.7784 168.399 32.8411 168.524 32.9666C168.65 33.0921 168.712 33.2424 168.712 33.4176C168.712 33.5336 168.683 33.6402 168.624 33.7372C168.567 33.8343 168.49 33.9124 168.393 33.9716C168.298 34.0284 168.192 34.0568 168.073 34.0568ZM170.827 34.0568C170.652 34.0568 170.502 33.9941 170.376 33.8686C170.251 33.7431 170.188 33.5928 170.188 33.4176C170.188 33.2424 170.251 33.0921 170.376 32.9666C170.502 32.8411 170.652 32.7784 170.827 32.7784C171.002 32.7784 171.153 32.8411 171.278 32.9666C171.404 33.0921 171.466 33.2424 171.466 33.4176C171.466 33.5336 171.437 33.6402 171.377 33.7372C171.321 33.8343 171.244 33.9124 171.147 33.9716C171.052 34.0284 170.945 34.0568 170.827 34.0568ZM173.581 34.0568C173.406 34.0568 173.255 33.9941 173.13 33.8686C173.004 33.7431 172.942 33.5928 172.942 33.4176C172.942 33.2424 173.004 33.0921 173.13 32.9666C173.255 32.8411 173.406 32.7784 173.581 32.7784C173.756 32.7784 173.906 32.8411 174.032 32.9666C174.157 33.0921 174.22 33.2424 174.22 33.4176C174.22 33.5336 174.191 33.6402 174.131 33.7372C174.075 33.8343 173.998 33.9124 173.901 33.9716C173.806 34.0284 173.699 34.0568 173.581 34.0568ZM176.335 34.0568C176.16 34.0568 176.009 33.9941 175.884 33.8686C175.758 33.7431 175.696 33.5928 175.696 33.4176C175.696 33.2424 175.758 33.0921 175.884 32.9666C176.009 32.8411 176.16 32.7784 176.335 32.7784C176.51 32.7784 176.66 32.8411 176.786 32.9666C176.911 33.0921 176.974 33.2424 176.974 33.4176C176.974 33.5336 176.944 33.6402 176.885 33.7372C176.828 33.8343 176.752 33.9124 176.654 33.9716C176.56 34.0284 176.453 34.0568 176.335 34.0568ZM179.089 34.0568C178.914 34.0568 178.763 33.9941 178.638 33.8686C178.512 33.7431 178.45 33.5928 178.45 33.4176C178.45 33.2424 178.512 33.0921 178.638 32.9666C178.763 32.8411 178.914 32.7784 179.089 32.7784C179.264 32.7784 179.414 32.8411 179.54 32.9666C179.665 33.0921 179.728 33.2424 179.728 33.4176C179.728 33.5336 179.698 33.6402 179.639 33.7372C179.582 33.8343 179.505 33.9124 179.408 33.9716C179.314 34.0284 179.207 34.0568 179.089 34.0568ZM181.843 34.0568C181.667 34.0568 181.517 33.9941 181.392 33.8686C181.266 33.7431 181.203 33.5928 181.203 33.4176C181.203 33.2424 181.266 33.0921 181.392 32.9666C181.517 32.8411 181.667 32.7784 181.843 32.7784C182.018 32.7784 182.168 32.8411 182.294 32.9666C182.419 33.0921 182.482 33.2424 182.482 33.4176C182.482 33.5336 182.452 33.6402 182.393 33.7372C182.336 33.8343 182.259 33.9124 182.162 33.9716C182.068 34.0284 181.961 34.0568 181.843 34.0568ZM184.597 34.0568C184.421 34.0568 184.271 33.9941 184.146 33.8686C184.02 33.7431 183.957 33.5928 183.957 33.4176C183.957 33.2424 184.02 33.0921 184.146 32.9666C184.271 32.8411 184.421 32.7784 184.597 32.7784C184.772 32.7784 184.922 32.8411 185.048 32.9666C185.173 33.0921 185.236 33.2424 185.236 33.4176C185.236 33.5336 185.206 33.6402 185.147 33.7372C185.09 33.8343 185.013 33.9124 184.916 33.9716C184.821 34.0284 184.715 34.0568 184.597 34.0568ZM187.35 34.0568C187.175 34.0568 187.025 33.9941 186.9 33.8686C186.774 33.7431 186.711 33.5928 186.711 33.4176C186.711 33.2424 186.774 33.0921 186.9 32.9666C187.025 32.8411 187.175 32.7784 187.35 32.7784C187.526 32.7784 187.676 32.8411 187.801 32.9666C187.927 33.0921 187.99 33.2424 187.99 33.4176C187.99 33.5336 187.96 33.6402 187.901 33.7372C187.844 33.8343 187.767 33.9124 187.67 33.9716C187.575 34.0284 187.469 34.0568 187.35 34.0568ZM190.104 34.0568C189.929 34.0568 189.779 33.9941 189.653 33.8686C189.528 33.7431 189.465 33.5928 189.465 33.4176C189.465 33.2424 189.528 33.0921 189.653 32.9666C189.779 32.8411 189.929 32.7784 190.104 32.7784C190.28 32.7784 190.43 32.8411 190.555 32.9666C190.681 33.0921 190.744 33.2424 190.744 33.4176C190.744 33.5336 190.714 33.6402 190.655 33.7372C190.598 33.8343 190.521 33.9124 190.424 33.9716C190.329 34.0284 190.223 34.0568 190.104 34.0568ZM192.858 34.0568C192.683 34.0568 192.533 33.9941 192.407 33.8686C192.282 33.7431 192.219 33.5928 192.219 33.4176C192.219 33.2424 192.282 33.0921 192.407 32.9666C192.533 32.8411 192.683 32.7784 192.858 32.7784C193.033 32.7784 193.184 32.8411 193.309 32.9666C193.435 33.0921 193.498 33.2424 193.498 33.4176C193.498 33.5336 193.468 33.6402 193.409 33.7372C193.352 33.8343 193.275 33.9124 193.178 33.9716C193.083 34.0284 192.977 34.0568 192.858 34.0568ZM195.612 34.0568C195.437 34.0568 195.287 33.9941 195.161 33.8686C195.036 33.7431 194.973 33.5928 194.973 33.4176C194.973 33.2424 195.036 33.0921 195.161 32.9666C195.287 32.8411 195.437 32.7784 195.612 32.7784C195.787 32.7784 195.938 32.8411 196.063 32.9666C196.189 33.0921 196.251 33.2424 196.251 33.4176C196.251 33.5336 196.222 33.6402 196.163 33.7372C196.106 33.8343 196.029 33.9124 195.932 33.9716C195.837 34.0284 195.731 34.0568 195.612 34.0568ZM198.366 34.0568C198.191 34.0568 198.041 33.9941 197.915 33.8686C197.79 33.7431 197.727 33.5928 197.727 33.4176C197.727 33.2424 197.79 33.0921 197.915 32.9666C198.041 32.8411 198.191 32.7784 198.366 32.7784C198.541 32.7784 198.692 32.8411 198.817 32.9666C198.943 33.0921 199.005 33.2424 199.005 33.4176C199.005 33.5336 198.976 33.6402 198.917 33.7372C198.86 33.8343 198.783 33.9124 198.686 33.9716C198.591 34.0284 198.484 34.0568 198.366 34.0568ZM201.12 34.0568C200.945 34.0568 200.795 33.9941 200.669 33.8686C200.544 33.7431 200.481 33.5928 200.481 33.4176C200.481 33.2424 200.544 33.0921 200.669 32.9666C200.795 32.8411 200.945 32.7784 201.12 32.7784C201.295 32.7784 201.446 32.8411 201.571 32.9666C201.696 33.0921 201.759 33.2424 201.759 33.4176C201.759 33.5336 201.73 33.6402 201.67 33.7372C201.614 33.8343 201.537 33.9124 201.44 33.9716C201.345 34.0284 201.238 34.0568 201.12 34.0568ZM203.874 34.0568C203.699 34.0568 203.548 33.9941 203.423 33.8686C203.297 33.7431 203.235 33.5928 203.235 33.4176C203.235 33.2424 203.297 33.0921 203.423 32.9666C203.548 32.8411 203.699 32.7784 203.874 32.7784C204.049 32.7784 204.199 32.8411 204.325 32.9666C204.45 33.0921 204.513 33.2424 204.513 33.4176C204.513 33.5336 204.484 33.6402 204.424 33.7372C204.368 33.8343 204.291 33.9124 204.194 33.9716C204.099 34.0284 203.992 34.0568 203.874 34.0568ZM206.628 34.0568C206.453 34.0568 206.302 33.9941 206.177 33.8686C206.051 33.7431 205.989 33.5928 205.989 33.4176C205.989 33.2424 206.051 33.0921 206.177 32.9666C206.302 32.8411 206.453 32.7784 206.628 32.7784C206.803 32.7784 206.953 32.8411 207.079 32.9666C207.204 33.0921 207.267 33.2424 207.267 33.4176C207.267 33.5336 207.237 33.6402 207.178 33.7372C207.121 33.8343 207.045 33.9124 206.947 33.9716C206.853 34.0284 206.746 34.0568 206.628 34.0568ZM209.382 34.0568C209.207 34.0568 209.056 33.9941 208.931 33.8686C208.805 33.7431 208.743 33.5928 208.743 33.4176C208.743 33.2424 208.805 33.0921 208.931 32.9666C209.056 32.8411 209.207 32.7784 209.382 32.7784C209.557 32.7784 209.707 32.8411 209.833 32.9666C209.958 33.0921 210.021 33.2424 210.021 33.4176C210.021 33.5336 209.991 33.6402 209.932 33.7372C209.875 33.8343 209.798 33.9124 209.701 33.9716C209.607 34.0284 209.5 34.0568 209.382 34.0568ZM212.136 34.0568C211.96 34.0568 211.81 33.9941 211.685 33.8686C211.559 33.7431 211.496 33.5928 211.496 33.4176C211.496 33.2424 211.559 33.0921 211.685 32.9666C211.81 32.8411 211.96 32.7784 212.136 32.7784C212.311 32.7784 212.461 32.8411 212.587 32.9666C212.712 33.0921 212.775 33.2424 212.775 33.4176C212.775 33.5336 212.745 33.6402 212.686 33.7372C212.629 33.8343 212.552 33.9124 212.455 33.9716C212.361 34.0284 212.254 34.0568 212.136 34.0568ZM214.89 34.0568C214.714 34.0568 214.564 33.9941 214.439 33.8686C214.313 33.7431 214.25 33.5928 214.25 33.4176C214.25 33.2424 214.313 33.0921 214.439 32.9666C214.564 32.8411 214.714 32.7784 214.89 32.7784C215.065 32.7784 215.215 32.8411 215.341 32.9666C215.466 33.0921 215.529 33.2424 215.529 33.4176C215.529 33.5336 215.499 33.6402 215.44 33.7372C215.383 33.8343 215.306 33.9124 215.209 33.9716C215.114 34.0284 215.008 34.0568 214.89 34.0568ZM217.643 34.0568C217.468 34.0568 217.318 33.9941 217.192 33.8686C217.067 33.7431 217.004 33.5928 217.004 33.4176C217.004 33.2424 217.067 33.0921 217.192 32.9666C217.318 32.8411 217.468 32.7784 217.643 32.7784C217.819 32.7784 217.969 32.8411 218.094 32.9666C218.22 33.0921 218.283 33.2424 218.283 33.4176C218.283 33.5336 218.253 33.6402 218.194 33.7372C218.137 33.8343 218.06 33.9124 217.963 33.9716C217.868 34.0284 217.762 34.0568 217.643 34.0568ZM220.397 34.0568C220.222 34.0568 220.072 33.9941 219.946 33.8686C219.821 33.7431 219.758 33.5928 219.758 33.4176C219.758 33.2424 219.821 33.0921 219.946 32.9666C220.072 32.8411 220.222 32.7784 220.397 32.7784C220.573 32.7784 220.723 32.8411 220.848 32.9666C220.974 33.0921 221.037 33.2424 221.037 33.4176C221.037 33.5336 221.007 33.6402 220.948 33.7372C220.891 33.8343 220.814 33.9124 220.717 33.9716C220.622 34.0284 220.516 34.0568 220.397 34.0568ZM223.151 34.0568C222.976 34.0568 222.826 33.9941 222.7 33.8686C222.575 33.7431 222.512 33.5928 222.512 33.4176C222.512 33.2424 222.575 33.0921 222.7 32.9666C222.826 32.8411 222.976 32.7784 223.151 32.7784C223.326 32.7784 223.477 32.8411 223.602 32.9666C223.728 33.0921 223.79 33.2424 223.79 33.4176C223.79 33.5336 223.761 33.6402 223.702 33.7372C223.645 33.8343 223.568 33.9124 223.471 33.9716C223.376 34.0284 223.27 34.0568 223.151 34.0568ZM225.905 34.0568C225.73 34.0568 225.58 33.9941 225.454 33.8686C225.329 33.7431 225.266 33.5928 225.266 33.4176C225.266 33.2424 225.329 33.0921 225.454 32.9666C225.58 32.8411 225.73 32.7784 225.905 32.7784C226.08 32.7784 226.231 32.8411 226.356 32.9666C226.482 33.0921 226.544 33.2424 226.544 33.4176C226.544 33.5336 226.515 33.6402 226.456 33.7372C226.399 33.8343 226.322 33.9124 226.225 33.9716C226.13 34.0284 226.024 34.0568 225.905 34.0568ZM228.659 34.0568C228.484 34.0568 228.334 33.9941 228.208 33.8686C228.083 33.7431 228.02 33.5928 228.02 33.4176C228.02 33.2424 228.083 33.0921 228.208 32.9666C228.334 32.8411 228.484 32.7784 228.659 32.7784C228.834 32.7784 228.985 32.8411 229.11 32.9666C229.236 33.0921 229.298 33.2424 229.298 33.4176C229.298 33.5336 229.269 33.6402 229.21 33.7372C229.153 33.8343 229.076 33.9124 228.979 33.9716C228.884 34.0284 228.777 34.0568 228.659 34.0568ZM231.413 34.0568C231.238 34.0568 231.087 33.9941 230.962 33.8686C230.837 33.7431 230.774 33.5928 230.774 33.4176C230.774 33.2424 230.837 33.0921 230.962 32.9666C231.087 32.8411 231.238 32.7784 231.413 32.7784C231.588 32.7784 231.739 32.8411 231.864 32.9666C231.989 33.0921 232.052 33.2424 232.052 33.4176C232.052 33.5336 232.023 33.6402 231.963 33.7372C231.907 33.8343 231.83 33.9124 231.733 33.9716C231.638 34.0284 231.531 34.0568 231.413 34.0568ZM234.167 34.0568C233.992 34.0568 233.841 33.9941 233.716 33.8686C233.59 33.7431 233.528 33.5928 233.528 33.4176C233.528 33.2424 233.59 33.0921 233.716 32.9666C233.841 32.8411 233.992 32.7784 234.167 32.7784C234.342 32.7784 234.492 32.8411 234.618 32.9666C234.743 33.0921 234.806 33.2424 234.806 33.4176C234.806 33.5336 234.777 33.6402 234.717 33.7372C234.661 33.8343 234.584 33.9124 234.487 33.9716C234.392 34.0284 234.285 34.0568 234.167 34.0568ZM236.921 34.0568C236.746 34.0568 236.595 33.9941 236.47 33.8686C236.344 33.7431 236.282 33.5928 236.282 33.4176C236.282 33.2424 236.344 33.0921 236.47 32.9666C236.595 32.8411 236.746 32.7784 236.921 32.7784C237.096 32.7784 237.246 32.8411 237.372 32.9666C237.497 33.0921 237.56 33.2424 237.56 33.4176C237.56 33.5336 237.53 33.6402 237.471 33.7372C237.414 33.8343 237.337 33.9124 237.24 33.9716C237.146 34.0284 237.039 34.0568 236.921 34.0568ZM239.675 34.0568C239.5 34.0568 239.349 33.9941 239.224 33.8686C239.098 33.7431 239.036 33.5928 239.036 33.4176C239.036 33.2424 239.098 33.0921 239.224 32.9666C239.349 32.8411 239.5 32.7784 239.675 32.7784C239.85 32.7784 240 32.8411 240.126 32.9666C240.251 33.0921 240.314 33.2424 240.314 33.4176C240.314 33.5336 240.284 33.6402 240.225 33.7372C240.168 33.8343 240.091 33.9124 239.994 33.9716C239.9 34.0284 239.793 34.0568 239.675 34.0568ZM242.429 34.0568C242.253 34.0568 242.103 33.9941 241.978 33.8686C241.852 33.7431 241.789 33.5928 241.789 33.4176C241.789 33.2424 241.852 33.0921 241.978 32.9666C242.103 32.8411 242.253 32.7784 242.429 32.7784C242.604 32.7784 242.754 32.8411 242.88 32.9666C243.005 33.0921 243.068 33.2424 243.068 33.4176C243.068 33.5336 243.038 33.6402 242.979 33.7372C242.922 33.8343 242.845 33.9124 242.748 33.9716C242.654 34.0284 242.547 34.0568 242.429 34.0568ZM245.183 34.0568C245.007 34.0568 244.857 33.9941 244.732 33.8686C244.606 33.7431 244.543 33.5928 244.543 33.4176C244.543 33.2424 244.606 33.0921 244.732 32.9666C244.857 32.8411 245.007 32.7784 245.183 32.7784C245.358 32.7784 245.508 32.8411 245.634 32.9666C245.759 33.0921 245.822 33.2424 245.822 33.4176C245.822 33.5336 245.792 33.6402 245.733 33.7372C245.676 33.8343 245.599 33.9124 245.502 33.9716C245.407 34.0284 245.301 34.0568 245.183 34.0568Z" fill="#B4B4B4"/>
<path d="M249.35 34H246.736L247.944 26.7273H250.507C251.239 26.7273 251.846 26.8764 252.329 27.1747C252.815 27.473 253.157 27.9003 253.355 28.4567C253.554 29.0107 253.59 29.6723 253.462 30.4418C253.339 31.1851 253.094 31.8232 252.727 32.3558C252.36 32.8861 251.89 33.2933 251.317 33.5774C250.744 33.8591 250.088 34 249.35 34ZM248.494 32.6825H249.439C249.895 32.6825 250.296 32.5973 250.639 32.4268C250.984 32.2564 251.267 31.9936 251.488 31.6385C251.71 31.2834 251.868 30.8288 251.96 30.2749C252.047 29.7493 252.042 29.3232 251.942 28.9964C251.845 28.6674 251.657 28.4271 251.377 28.2756C251.098 28.1217 250.731 28.0447 250.277 28.0447H249.265L248.494 32.6825ZM254.012 34L255.219 26.7273H258.088C258.637 26.7273 259.09 26.8243 259.445 27.0185C259.802 27.2126 260.053 27.4884 260.198 27.8459C260.344 28.201 260.379 28.62 260.301 29.103C260.22 29.5859 260.046 30.0002 259.779 30.3459C259.513 30.6915 259.168 30.9579 258.742 31.1449C258.318 31.3295 257.827 31.4219 257.268 31.4219H255.347L255.56 30.1861H257.229C257.522 30.1861 257.773 30.1458 257.982 30.0653C258.19 29.9848 258.355 29.8641 258.475 29.7031C258.598 29.5421 258.679 29.3421 258.717 29.103C258.757 28.8591 258.743 28.6555 258.674 28.4922C258.606 28.3265 258.481 28.201 258.301 28.1158C258.121 28.0282 257.885 27.9844 257.591 27.9844H256.554L255.549 34H254.012ZM258.486 30.6903L259.747 34H258.049L256.828 30.6903H258.486ZM263.378 26.7273L262.17 34H260.633L261.84 26.7273H263.378ZM270.726 26.7273L269.518 34H268.19L265.793 29.4226H265.737L264.973 34H263.435L264.643 26.7273H265.992L268.379 31.3011H268.439L269.195 26.7273H270.726ZM270.789 34L271.996 26.7273H273.534L273.005 29.9339H273.101L276.247 26.7273H278.09L274.862 29.9837L276.915 34H275.075L273.591 31.0099L272.675 31.9403L272.327 34H270.789ZM282.422 28.8402C282.434 28.5443 282.348 28.3158 282.163 28.1548C281.981 27.9938 281.705 27.9134 281.336 27.9134C281.085 27.9134 280.867 27.9489 280.682 28.0199C280.498 28.0885 280.35 28.1844 280.238 28.3075C280.13 28.4283 280.062 28.5679 280.036 28.7266C280.01 28.8568 280.018 28.9704 280.061 29.0675C280.106 29.1645 280.176 29.2486 280.27 29.3196C280.367 29.3883 280.482 29.4486 280.615 29.5007C280.747 29.5504 280.888 29.593 281.037 29.6286L281.662 29.7848C281.968 29.8558 282.242 29.9505 282.486 30.0689C282.733 30.1873 282.939 30.3329 283.104 30.5057C283.272 30.6785 283.391 30.8821 283.459 31.1165C283.528 31.3509 283.537 31.6196 283.488 31.9226C283.412 32.3677 283.236 32.7536 282.959 33.0803C282.682 33.4046 282.318 33.6567 281.868 33.8366C281.419 34.0142 280.898 34.103 280.306 34.103C279.719 34.103 279.223 34.013 278.818 33.8331C278.413 33.6532 278.118 33.3868 277.934 33.0341C277.751 32.679 277.697 32.2398 277.77 31.7166H279.258C279.232 31.9605 279.268 32.1641 279.365 32.3274C279.464 32.4884 279.612 32.6103 279.809 32.6932C280.005 32.7737 280.236 32.8139 280.501 32.8139C280.764 32.8139 280.997 32.776 281.201 32.7003C281.407 32.6245 281.574 32.5192 281.702 32.3842C281.829 32.2493 281.907 32.0942 281.936 31.919C281.964 31.7557 281.939 31.6184 281.861 31.5071C281.783 31.3958 281.658 31.3011 281.485 31.223C281.314 31.1425 281.103 31.0715 280.849 31.0099L280.089 30.8111C279.502 30.6619 279.058 30.4287 278.758 30.1115C278.457 29.7943 278.349 29.367 278.434 28.8295C278.51 28.3892 278.694 28.0045 278.985 27.6754C279.278 27.344 279.648 27.0871 280.093 26.9048C280.54 26.7202 281.029 26.6278 281.559 26.6278C282.099 26.6278 282.555 26.7214 282.927 26.9084C283.298 27.093 283.569 27.3511 283.74 27.6825C283.91 28.014 283.962 28.3999 283.896 28.8402H282.422Z" fill="black"/>
<path d="M149.704 74.0568C149.529 74.0568 149.378 73.9941 149.253 73.8686C149.128 73.7431 149.065 73.5928 149.065 73.4176C149.065 73.2424 149.128 73.0921 149.253 72.9666C149.378 72.8411 149.529 72.7784 149.704 72.7784C149.879 72.7784 150.03 72.8411 150.155 72.9666C150.28 73.0921 150.343 73.2424 150.343 73.4176C150.343 73.5336 150.314 73.6402 150.254 73.7372C150.198 73.8343 150.121 73.9124 150.024 73.9716C149.929 74.0284 149.822 74.0568 149.704 74.0568ZM152.458 74.0568C152.283 74.0568 152.132 73.9941 152.007 73.8686C151.881 73.7431 151.819 73.5928 151.819 73.4176C151.819 73.2424 151.881 73.0921 152.007 72.9666C152.132 72.8411 152.283 72.7784 152.458 72.7784C152.633 72.7784 152.783 72.8411 152.909 72.9666C153.034 73.0921 153.097 73.2424 153.097 73.4176C153.097 73.5336 153.068 73.6402 153.008 73.7372C152.952 73.8343 152.875 73.9124 152.778 73.9716C152.683 74.0284 152.576 74.0568 152.458 74.0568ZM155.212 74.0568C155.037 74.0568 154.886 73.9941 154.761 73.8686C154.635 73.7431 154.573 73.5928 154.573 73.4176C154.573 73.2424 154.635 73.0921 154.761 72.9666C154.886 72.8411 155.037 72.7784 155.212 72.7784C155.387 72.7784 155.537 72.8411 155.663 72.9666C155.788 73.0921 155.851 73.2424 155.851 73.4176C155.851 73.5336 155.821 73.6402 155.762 73.7372C155.705 73.8343 155.628 73.9124 155.531 73.9716C155.437 74.0284 155.33 74.0568 155.212 74.0568ZM157.966 74.0568C157.791 74.0568 157.64 73.9941 157.515 73.8686C157.389 73.7431 157.327 73.5928 157.327 73.4176C157.327 73.2424 157.389 73.0921 157.515 72.9666C157.64 72.8411 157.791 72.7784 157.966 72.7784C158.141 72.7784 158.291 72.8411 158.417 72.9666C158.542 73.0921 158.605 73.2424 158.605 73.4176C158.605 73.5336 158.575 73.6402 158.516 73.7372C158.459 73.8343 158.382 73.9124 158.285 73.9716C158.191 74.0284 158.084 74.0568 157.966 74.0568ZM160.72 74.0568C160.544 74.0568 160.394 73.9941 160.269 73.8686C160.143 73.7431 160.08 73.5928 160.08 73.4176C160.08 73.2424 160.143 73.0921 160.269 72.9666C160.394 72.8411 160.544 72.7784 160.72 72.7784C160.895 72.7784 161.045 72.8411 161.171 72.9666C161.296 73.0921 161.359 73.2424 161.359 73.4176C161.359 73.5336 161.329 73.6402 161.27 73.7372C161.213 73.8343 161.136 73.9124 161.039 73.9716C160.945 74.0284 160.838 74.0568 160.72 74.0568ZM163.474 74.0568C163.298 74.0568 163.148 73.9941 163.023 73.8686C162.897 73.7431 162.834 73.5928 162.834 73.4176C162.834 73.2424 162.897 73.0921 163.023 72.9666C163.148 72.8411 163.298 72.7784 163.474 72.7784C163.649 72.7784 163.799 72.8411 163.925 72.9666C164.05 73.0921 164.113 73.2424 164.113 73.4176C164.113 73.5336 164.083 73.6402 164.024 73.7372C163.967 73.8343 163.89 73.9124 163.793 73.9716C163.698 74.0284 163.592 74.0568 163.474 74.0568ZM166.227 74.0568C166.052 74.0568 165.902 73.9941 165.776 73.8686C165.651 73.7431 165.588 73.5928 165.588 73.4176C165.588 73.2424 165.651 73.0921 165.776 72.9666C165.902 72.8411 166.052 72.7784 166.227 72.7784C166.403 72.7784 166.553 72.8411 166.678 72.9666C166.804 73.0921 166.867 73.2424 166.867 73.4176C166.867 73.5336 166.837 73.6402 166.778 73.7372C166.721 73.8343 166.644 73.9124 166.547 73.9716C166.452 74.0284 166.346 74.0568 166.227 74.0568ZM168.981 74.0568C168.806 74.0568 168.656 73.9941 168.53 73.8686C168.405 73.7431 168.342 73.5928 168.342 73.4176C168.342 73.2424 168.405 73.0921 168.53 72.9666C168.656 72.8411 168.806 72.7784 168.981 72.7784C169.157 72.7784 169.307 72.8411 169.432 72.9666C169.558 73.0921 169.621 73.2424 169.621 73.4176C169.621 73.5336 169.591 73.6402 169.532 73.7372C169.475 73.8343 169.398 73.9124 169.301 73.9716C169.206 74.0284 169.1 74.0568 168.981 74.0568ZM171.735 74.0568C171.56 74.0568 171.41 73.9941 171.284 73.8686C171.159 73.7431 171.096 73.5928 171.096 73.4176C171.096 73.2424 171.159 73.0921 171.284 72.9666C171.41 72.8411 171.56 72.7784 171.735 72.7784C171.91 72.7784 172.061 72.8411 172.186 72.9666C172.312 73.0921 172.374 73.2424 172.374 73.4176C172.374 73.5336 172.345 73.6402 172.286 73.7372C172.229 73.8343 172.152 73.9124 172.055 73.9716C171.96 74.0284 171.854 74.0568 171.735 74.0568ZM174.489 74.0568C174.314 74.0568 174.164 73.9941 174.038 73.8686C173.913 73.7431 173.85 73.5928 173.85 73.4176C173.85 73.2424 173.913 73.0921 174.038 72.9666C174.164 72.8411 174.314 72.7784 174.489 72.7784C174.664 72.7784 174.815 72.8411 174.94 72.9666C175.066 73.0921 175.128 73.2424 175.128 73.4176C175.128 73.5336 175.099 73.6402 175.04 73.7372C174.983 73.8343 174.906 73.9124 174.809 73.9716C174.714 74.0284 174.608 74.0568 174.489 74.0568ZM177.243 74.0568C177.068 74.0568 176.918 73.9941 176.792 73.8686C176.667 73.7431 176.604 73.5928 176.604 73.4176C176.604 73.2424 176.667 73.0921 176.792 72.9666C176.918 72.8411 177.068 72.7784 177.243 72.7784C177.418 72.7784 177.569 72.8411 177.694 72.9666C177.82 73.0921 177.882 73.2424 177.882 73.4176C177.882 73.5336 177.853 73.6402 177.794 73.7372C177.737 73.8343 177.66 73.9124 177.563 73.9716C177.468 74.0284 177.361 74.0568 177.243 74.0568ZM179.997 74.0568C179.822 74.0568 179.671 73.9941 179.546 73.8686C179.421 73.7431 179.358 73.5928 179.358 73.4176C179.358 73.2424 179.421 73.0921 179.546 72.9666C179.671 72.8411 179.822 72.7784 179.997 72.7784C180.172 72.7784 180.323 72.8411 180.448 72.9666C180.573 73.0921 180.636 73.2424 180.636 73.4176C180.636 73.5336 180.607 73.6402 180.547 73.7372C180.491 73.8343 180.414 73.9124 180.317 73.9716C180.222 74.0284 180.115 74.0568 179.997 74.0568ZM182.751 74.0568C182.576 74.0568 182.425 73.9941 182.3 73.8686C182.174 73.7431 182.112 73.5928 182.112 73.4176C182.112 73.2424 182.174 73.0921 182.3 72.9666C182.425 72.8411 182.576 72.7784 182.751 72.7784C182.926 72.7784 183.076 72.8411 183.202 72.9666C183.327 73.0921 183.39 73.2424 183.39 73.4176C183.39 73.5336 183.36 73.6402 183.301 73.7372C183.244 73.8343 183.168 73.9124 183.07 73.9716C182.976 74.0284 182.869 74.0568 182.751 74.0568ZM185.505 74.0568C185.33 74.0568 185.179 73.9941 185.054 73.8686C184.928 73.7431 184.866 73.5928 184.866 73.4176C184.866 73.2424 184.928 73.0921 185.054 72.9666C185.179 72.8411 185.33 72.7784 185.505 72.7784C185.68 72.7784 185.83 72.8411 185.956 72.9666C186.081 73.0921 186.144 73.2424 186.144 73.4176C186.144 73.5336 186.114 73.6402 186.055 73.7372C185.998 73.8343 185.921 73.9124 185.824 73.9716C185.73 74.0284 185.623 74.0568 185.505 74.0568ZM188.259 74.0568C188.084 74.0568 187.933 73.9941 187.808 73.8686C187.682 73.7431 187.619 73.5928 187.619 73.4176C187.619 73.2424 187.682 73.0921 187.808 72.9666C187.933 72.8411 188.084 72.7784 188.259 72.7784C188.434 72.7784 188.584 72.8411 188.71 72.9666C188.835 73.0921 188.898 73.2424 188.898 73.4176C188.898 73.5336 188.868 73.6402 188.809 73.7372C188.752 73.8343 188.675 73.9124 188.578 73.9716C188.484 74.0284 188.377 74.0568 188.259 74.0568ZM191.013 74.0568C190.837 74.0568 190.687 73.9941 190.562 73.8686C190.436 73.7431 190.373 73.5928 190.373 73.4176C190.373 73.2424 190.436 73.0921 190.562 72.9666C190.687 72.8411 190.837 72.7784 191.013 72.7784C191.188 72.7784 191.338 72.8411 191.464 72.9666C191.589 73.0921 191.652 73.2424 191.652 73.4176C191.652 73.5336 191.622 73.6402 191.563 73.7372C191.506 73.8343 191.429 73.9124 191.332 73.9716C191.238 74.0284 191.131 74.0568 191.013 74.0568ZM193.767 74.0568C193.591 74.0568 193.441 73.9941 193.316 73.8686C193.19 73.7431 193.127 73.5928 193.127 73.4176C193.127 73.2424 193.19 73.0921 193.316 72.9666C193.441 72.8411 193.591 72.7784 193.767 72.7784C193.942 72.7784 194.092 72.8411 194.218 72.9666C194.343 73.0921 194.406 73.2424 194.406 73.4176C194.406 73.5336 194.376 73.6402 194.317 73.7372C194.26 73.8343 194.183 73.9124 194.086 73.9716C193.991 74.0284 193.885 74.0568 193.767 74.0568ZM196.52 74.0568C196.345 74.0568 196.195 73.9941 196.069 73.8686C195.944 73.7431 195.881 73.5928 195.881 73.4176C195.881 73.2424 195.944 73.0921 196.069 72.9666C196.195 72.8411 196.345 72.7784 196.52 72.7784C196.696 72.7784 196.846 72.8411 196.971 72.9666C197.097 73.0921 197.16 73.2424 197.16 73.4176C197.16 73.5336 197.13 73.6402 197.071 73.7372C197.014 73.8343 196.937 73.9124 196.84 73.9716C196.745 74.0284 196.639 74.0568 196.52 74.0568ZM199.274 74.0568C199.099 74.0568 198.949 73.9941 198.823 73.8686C198.698 73.7431 198.635 73.5928 198.635 73.4176C198.635 73.2424 198.698 73.0921 198.823 72.9666C198.949 72.8411 199.099 72.7784 199.274 72.7784C199.45 72.7784 199.6 72.8411 199.725 72.9666C199.851 73.0921 199.914 73.2424 199.914 73.4176C199.914 73.5336 199.884 73.6402 199.825 73.7372C199.768 73.8343 199.691 73.9124 199.594 73.9716C199.499 74.0284 199.393 74.0568 199.274 74.0568ZM202.028 74.0568C201.853 74.0568 201.703 73.9941 201.577 73.8686C201.452 73.7431 201.389 73.5928 201.389 73.4176C201.389 73.2424 201.452 73.0921 201.577 72.9666C201.703 72.8411 201.853 72.7784 202.028 72.7784C202.203 72.7784 202.354 72.8411 202.479 72.9666C202.605 73.0921 202.667 73.2424 202.667 73.4176C202.667 73.5336 202.638 73.6402 202.579 73.7372C202.522 73.8343 202.445 73.9124 202.348 73.9716C202.253 74.0284 202.147 74.0568 202.028 74.0568ZM204.782 74.0568C204.607 74.0568 204.457 73.9941 204.331 73.8686C204.206 73.7431 204.143 73.5928 204.143 73.4176C204.143 73.2424 204.206 73.0921 204.331 72.9666C204.457 72.8411 204.607 72.7784 204.782 72.7784C204.957 72.7784 205.108 72.8411 205.233 72.9666C205.359 73.0921 205.421 73.2424 205.421 73.4176C205.421 73.5336 205.392 73.6402 205.333 73.7372C205.276 73.8343 205.199 73.9124 205.102 73.9716C205.007 74.0284 204.901 74.0568 204.782 74.0568ZM207.536 74.0568C207.361 74.0568 207.211 73.9941 207.085 73.8686C206.96 73.7431 206.897 73.5928 206.897 73.4176C206.897 73.2424 206.96 73.0921 207.085 72.9666C207.211 72.8411 207.361 72.7784 207.536 72.7784C207.711 72.7784 207.862 72.8411 207.987 72.9666C208.113 73.0921 208.175 73.2424 208.175 73.4176C208.175 73.5336 208.146 73.6402 208.086 73.7372C208.03 73.8343 207.953 73.9124 207.856 73.9716C207.761 74.0284 207.654 74.0568 207.536 74.0568ZM210.29 74.0568C210.115 74.0568 209.964 73.9941 209.839 73.8686C209.713 73.7431 209.651 73.5928 209.651 73.4176C209.651 73.2424 209.713 73.0921 209.839 72.9666C209.964 72.8411 210.115 72.7784 210.29 72.7784C210.465 72.7784 210.615 72.8411 210.741 72.9666C210.866 73.0921 210.929 73.2424 210.929 73.4176C210.929 73.5336 210.9 73.6402 210.84 73.7372C210.784 73.8343 210.707 73.9124 210.61 73.9716C210.515 74.0284 210.408 74.0568 210.29 74.0568ZM213.044 74.0568C212.869 74.0568 212.718 73.9941 212.593 73.8686C212.467 73.7431 212.405 73.5928 212.405 73.4176C212.405 73.2424 212.467 73.0921 212.593 72.9666C212.718 72.8411 212.869 72.7784 213.044 72.7784C213.219 72.7784 213.369 72.8411 213.495 72.9666C213.62 73.0921 213.683 73.2424 213.683 73.4176C213.683 73.5336 213.653 73.6402 213.594 73.7372C213.537 73.8343 213.461 73.9124 213.363 73.9716C213.269 74.0284 213.162 74.0568 213.044 74.0568ZM215.798 74.0568C215.623 74.0568 215.472 73.9941 215.347 73.8686C215.221 73.7431 215.159 73.5928 215.159 73.4176C215.159 73.2424 215.221 73.0921 215.347 72.9666C215.472 72.8411 215.623 72.7784 215.798 72.7784C215.973 72.7784 216.123 72.8411 216.249 72.9666C216.374 73.0921 216.437 73.2424 216.437 73.4176C216.437 73.5336 216.407 73.6402 216.348 73.7372C216.291 73.8343 216.214 73.9124 216.117 73.9716C216.023 74.0284 215.916 74.0568 215.798 74.0568ZM218.552 74.0568C218.376 74.0568 218.226 73.9941 218.101 73.8686C217.975 73.7431 217.912 73.5928 217.912 73.4176C217.912 73.2424 217.975 73.0921 218.101 72.9666C218.226 72.8411 218.376 72.7784 218.552 72.7784C218.727 72.7784 218.877 72.8411 219.003 72.9666C219.128 73.0921 219.191 73.2424 219.191 73.4176C219.191 73.5336 219.161 73.6402 219.102 73.7372C219.045 73.8343 218.968 73.9124 218.871 73.9716C218.777 74.0284 218.67 74.0568 218.552 74.0568ZM221.306 74.0568C221.13 74.0568 220.98 73.9941 220.855 73.8686C220.729 73.7431 220.666 73.5928 220.666 73.4176C220.666 73.2424 220.729 73.0921 220.855 72.9666C220.98 72.8411 221.13 72.7784 221.306 72.7784C221.481 72.7784 221.631 72.8411 221.757 72.9666C221.882 73.0921 221.945 73.2424 221.945 73.4176C221.945 73.5336 221.915 73.6402 221.856 73.7372C221.799 73.8343 221.722 73.9124 221.625 73.9716C221.53 74.0284 221.424 74.0568 221.306 74.0568ZM224.059 74.0568C223.884 74.0568 223.734 73.9941 223.608 73.8686C223.483 73.7431 223.42 73.5928 223.42 73.4176C223.42 73.2424 223.483 73.0921 223.608 72.9666C223.734 72.8411 223.884 72.7784 224.059 72.7784C224.235 72.7784 224.385 72.8411 224.51 72.9666C224.636 73.0921 224.699 73.2424 224.699 73.4176C224.699 73.5336 224.669 73.6402 224.61 73.7372C224.553 73.8343 224.476 73.9124 224.379 73.9716C224.284 74.0284 224.178 74.0568 224.059 74.0568ZM226.813 74.0568C226.638 74.0568 226.488 73.9941 226.362 73.8686C226.237 73.7431 226.174 73.5928 226.174 73.4176C226.174 73.2424 226.237 73.0921 226.362 72.9666C226.488 72.8411 226.638 72.7784 226.813 72.7784C226.989 72.7784 227.139 72.8411 227.264 72.9666C227.39 73.0921 227.453 73.2424 227.453 73.4176C227.453 73.5336 227.423 73.6402 227.364 73.7372C227.307 73.8343 227.23 73.9124 227.133 73.9716C227.038 74.0284 226.932 74.0568 226.813 74.0568ZM229.567 74.0568C229.392 74.0568 229.242 73.9941 229.116 73.8686C228.991 73.7431 228.928 73.5928 228.928 73.4176C228.928 73.2424 228.991 73.0921 229.116 72.9666C229.242 72.8411 229.392 72.7784 229.567 72.7784C229.742 72.7784 229.893 72.8411 230.018 72.9666C230.144 73.0921 230.206 73.2424 230.206 73.4176C230.206 73.5336 230.177 73.6402 230.118 73.7372C230.061 73.8343 229.984 73.9124 229.887 73.9716C229.792 74.0284 229.686 74.0568 229.567 74.0568ZM232.321 74.0568C232.146 74.0568 231.996 73.9941 231.87 73.8686C231.745 73.7431 231.682 73.5928 231.682 73.4176C231.682 73.2424 231.745 73.0921 231.87 72.9666C231.996 72.8411 232.146 72.7784 232.321 72.7784C232.496 72.7784 232.647 72.8411 232.772 72.9666C232.898 73.0921 232.96 73.2424 232.96 73.4176C232.96 73.5336 232.931 73.6402 232.872 73.7372C232.815 73.8343 232.738 73.9124 232.641 73.9716C232.546 74.0284 232.44 74.0568 232.321 74.0568ZM235.075 74.0568C234.9 74.0568 234.75 73.9941 234.624 73.8686C234.499 73.7431 234.436 73.5928 234.436 73.4176C234.436 73.2424 234.499 73.0921 234.624 72.9666C234.75 72.8411 234.9 72.7784 235.075 72.7784C235.25 72.7784 235.401 72.8411 235.526 72.9666C235.652 73.0921 235.714 73.2424 235.714 73.4176C235.714 73.5336 235.685 73.6402 235.626 73.7372C235.569 73.8343 235.492 73.9124 235.395 73.9716C235.3 74.0284 235.193 74.0568 235.075 74.0568ZM237.829 74.0568C237.654 74.0568 237.503 73.9941 237.378 73.8686C237.253 73.7431 237.19 73.5928 237.19 73.4176C237.19 73.2424 237.253 73.0921 237.378 72.9666C237.503 72.8411 237.654 72.7784 237.829 72.7784C238.004 72.7784 238.155 72.8411 238.28 72.9666C238.405 73.0921 238.468 73.2424 238.468 73.4176C238.468 73.5336 238.439 73.6402 238.379 73.7372C238.323 73.8343 238.246 73.9124 238.149 73.9716C238.054 74.0284 237.947 74.0568 237.829 74.0568ZM240.583 74.0568C240.408 74.0568 240.257 73.9941 240.132 73.8686C240.006 73.7431 239.944 73.5928 239.944 73.4176C239.944 73.2424 240.006 73.0921 240.132 72.9666C240.257 72.8411 240.408 72.7784 240.583 72.7784C240.758 72.7784 240.908 72.8411 241.034 72.9666C241.159 73.0921 241.222 73.2424 241.222 73.4176C241.222 73.5336 241.193 73.6402 241.133 73.7372C241.077 73.8343 241 73.9124 240.903 73.9716C240.808 74.0284 240.701 74.0568 240.583 74.0568ZM243.337 74.0568C243.162 74.0568 243.011 73.9941 242.886 73.8686C242.76 73.7431 242.698 73.5928 242.698 73.4176C242.698 73.2424 242.76 73.0921 242.886 72.9666C243.011 72.8411 243.162 72.7784 243.337 72.7784C243.512 72.7784 243.662 72.8411 243.788 72.9666C243.913 73.0921 243.976 73.2424 243.976 73.4176C243.976 73.5336 243.946 73.6402 243.887 73.7372C243.83 73.8343 243.753 73.9124 243.656 73.9716C243.562 74.0284 243.455 74.0568 243.337 74.0568Z" fill="#B4B4B4"/>
<path d="M252.085 69.2734H250.551C250.556 69.0698 250.53 68.8899 250.473 68.7337C250.416 68.575 250.331 68.4401 250.217 68.3288C250.106 68.2176 249.97 68.1335 249.809 68.0767C249.648 68.0175 249.467 67.9879 249.265 67.9879C248.877 67.9879 248.521 68.085 248.197 68.2791C247.872 68.4732 247.599 68.755 247.376 69.1243C247.154 69.4912 247 69.9351 246.915 70.456C246.832 70.9579 246.836 71.3781 246.929 71.7166C247.021 72.0552 247.184 72.3108 247.419 72.4837C247.656 72.6541 247.95 72.7393 248.303 72.7393C248.521 72.7393 248.728 72.7121 248.925 72.6577C249.121 72.6009 249.3 72.5204 249.461 72.4162C249.624 72.3097 249.766 72.1806 249.887 72.0291C250.01 71.8776 250.106 71.706 250.175 71.5142H251.719C251.622 71.848 251.471 72.17 251.265 72.4801C251.061 72.7902 250.809 73.0672 250.508 73.3111C250.208 73.5526 249.866 73.7443 249.482 73.8864C249.099 74.0284 248.678 74.0994 248.221 74.0994C247.561 74.0994 246.994 73.9479 246.52 73.6449C246.049 73.3419 245.71 72.9051 245.501 72.3345C245.293 71.764 245.254 71.0762 245.384 70.2713C245.514 69.4924 245.769 68.8319 246.148 68.2898C246.529 67.7453 246.992 67.3321 247.536 67.0504C248.083 66.7687 248.668 66.6278 249.29 66.6278C249.724 66.6278 250.115 66.687 250.466 66.8054C250.816 66.9238 251.114 67.0966 251.361 67.3239C251.609 67.5488 251.796 67.8246 251.922 68.1513C252.047 68.478 252.102 68.852 252.085 69.2734ZM259.683 70.4631C259.55 71.2396 259.293 71.8989 258.912 72.4411C258.533 72.9832 258.07 73.3951 257.524 73.6768C256.979 73.9586 256.392 74.0994 255.762 74.0994C255.102 74.0994 254.532 73.9491 254.054 73.6484C253.578 73.3478 253.234 72.9134 253.021 72.3452C252.808 71.7746 252.767 71.0869 252.9 70.282C253.028 69.5031 253.282 68.8426 253.664 68.3004C254.045 67.7559 254.51 67.3416 255.059 67.0575C255.608 66.7711 256.199 66.6278 256.831 66.6278C257.487 66.6278 258.053 66.7794 258.529 67.0824C259.007 67.3854 259.351 67.8234 259.562 68.3963C259.775 68.9669 259.815 69.6558 259.683 70.4631ZM258.152 70.282C258.235 69.7824 258.231 69.3634 258.142 69.0249C258.054 68.6839 257.893 68.4259 257.659 68.2507C257.424 68.0755 257.128 67.9879 256.771 67.9879C256.383 67.9879 256.026 68.085 255.702 68.2791C255.38 68.4732 255.108 68.755 254.885 69.1243C254.665 69.4912 254.512 69.9375 254.427 70.4631C254.342 70.965 254.344 71.384 254.434 71.7202C254.526 72.0563 254.691 72.3108 254.928 72.4837C255.167 72.6541 255.464 72.7393 255.819 72.7393C256.205 72.7393 256.558 72.6446 256.877 72.4553C257.199 72.2635 257.47 71.9853 257.691 71.6207C257.911 71.2538 258.065 70.8075 258.152 70.282ZM260.232 74L261.44 66.7273H266.255L266.042 67.995H262.764L262.48 69.728H265.438L265.225 70.9957H262.267L261.77 74H260.232ZM266.082 74L267.289 66.7273H272.105L271.892 67.995H268.614L268.33 69.728H271.288L271.075 70.9957H268.117L267.619 74H266.082ZM271.931 74L273.139 66.7273H278.039L277.826 67.995H274.463L274.179 69.728H277.29L277.077 70.9957H273.966L273.682 72.7322H277.059L276.846 74H271.931ZM278.055 74L279.262 66.7273H284.162L283.949 67.995H280.586L280.302 69.728H283.413L283.2 70.9957H280.089L279.805 72.7322H283.182L282.969 74H278.055Z" fill="black"/>
<path d="M149.216 125.057C149.041 125.057 148.89 124.994 148.765 124.869C148.639 124.743 148.577 124.593 148.577 124.418C148.577 124.242 148.639 124.092 148.765 123.967C148.89 123.841 149.041 123.778 149.216 123.778C149.391 123.778 149.541 123.841 149.667 123.967C149.792 124.092 149.855 124.242 149.855 124.418C149.855 124.534 149.825 124.64 149.766 124.737C149.709 124.834 149.632 124.912 149.535 124.972C149.441 125.028 149.334 125.057 149.216 125.057ZM151.97 125.057C151.794 125.057 151.644 124.994 151.519 124.869C151.393 124.743 151.33 124.593 151.33 124.418C151.33 124.242 151.393 124.092 151.519 123.967C151.644 123.841 151.794 123.778 151.97 123.778C152.145 123.778 152.295 123.841 152.421 123.967C152.546 124.092 152.609 124.242 152.609 124.418C152.609 124.534 152.579 124.64 152.52 124.737C152.463 124.834 152.386 124.912 152.289 124.972C152.195 125.028 152.088 125.057 151.97 125.057ZM154.724 125.057C154.548 125.057 154.398 124.994 154.273 124.869C154.147 124.743 154.084 124.593 154.084 124.418C154.084 124.242 154.147 124.092 154.273 123.967C154.398 123.841 154.548 123.778 154.724 123.778C154.899 123.778 155.049 123.841 155.175 123.967C155.3 124.092 155.363 124.242 155.363 124.418C155.363 124.534 155.333 124.64 155.274 124.737C155.217 124.834 155.14 124.912 155.043 124.972C154.948 125.028 154.842 125.057 154.724 125.057ZM157.477 125.057C157.302 125.057 157.152 124.994 157.026 124.869C156.901 124.743 156.838 124.593 156.838 124.418C156.838 124.242 156.901 124.092 157.026 123.967C157.152 123.841 157.302 123.778 157.477 123.778C157.653 123.778 157.803 123.841 157.928 123.967C158.054 124.092 158.117 124.242 158.117 124.418C158.117 124.534 158.087 124.64 158.028 124.737C157.971 124.834 157.894 124.912 157.797 124.972C157.702 125.028 157.596 125.057 157.477 125.057ZM160.231 125.057C160.056 125.057 159.906 124.994 159.78 124.869C159.655 124.743 159.592 124.593 159.592 124.418C159.592 124.242 159.655 124.092 159.78 123.967C159.906 123.841 160.056 123.778 160.231 123.778C160.407 123.778 160.557 123.841 160.682 123.967C160.808 124.092 160.871 124.242 160.871 124.418C160.871 124.534 160.841 124.64 160.782 124.737C160.725 124.834 160.648 124.912 160.551 124.972C160.456 125.028 160.35 125.057 160.231 125.057ZM162.985 125.057C162.81 125.057 162.66 124.994 162.534 124.869C162.409 124.743 162.346 124.593 162.346 124.418C162.346 124.242 162.409 124.092 162.534 123.967C162.66 123.841 162.81 123.778 162.985 123.778C163.16 123.778 163.311 123.841 163.436 123.967C163.562 124.092 163.624 124.242 163.624 124.418C163.624 124.534 163.595 124.64 163.536 124.737C163.479 124.834 163.402 124.912 163.305 124.972C163.21 125.028 163.104 125.057 162.985 125.057ZM165.739 125.057C165.564 125.057 165.414 124.994 165.288 124.869C165.163 124.743 165.1 124.593 165.1 124.418C165.1 124.242 165.163 124.092 165.288 123.967C165.414 123.841 165.564 123.778 165.739 123.778C165.914 123.778 166.065 123.841 166.19 123.967C166.316 124.092 166.378 124.242 166.378 124.418C166.378 124.534 166.349 124.64 166.29 124.737C166.233 124.834 166.156 124.912 166.059 124.972C165.964 125.028 165.858 125.057 165.739 125.057ZM168.493 125.057C168.318 125.057 168.168 124.994 168.042 124.869C167.917 124.743 167.854 124.593 167.854 124.418C167.854 124.242 167.917 124.092 168.042 123.967C168.168 123.841 168.318 123.778 168.493 123.778C168.668 123.778 168.819 123.841 168.944 123.967C169.07 124.092 169.132 124.242 169.132 124.418C169.132 124.534 169.103 124.64 169.044 124.737C168.987 124.834 168.91 124.912 168.813 124.972C168.718 125.028 168.611 125.057 168.493 125.057ZM171.247 125.057C171.072 125.057 170.921 124.994 170.796 124.869C170.671 124.743 170.608 124.593 170.608 124.418C170.608 124.242 170.671 124.092 170.796 123.967C170.921 123.841 171.072 123.778 171.247 123.778C171.422 123.778 171.573 123.841 171.698 123.967C171.823 124.092 171.886 124.242 171.886 124.418C171.886 124.534 171.857 124.64 171.797 124.737C171.741 124.834 171.664 124.912 171.567 124.972C171.472 125.028 171.365 125.057 171.247 125.057ZM174.001 125.057C173.826 125.057 173.675 124.994 173.55 124.869C173.424 124.743 173.362 124.593 173.362 124.418C173.362 124.242 173.424 124.092 173.55 123.967C173.675 123.841 173.826 123.778 174.001 123.778C174.176 123.778 174.326 123.841 174.452 123.967C174.577 124.092 174.64 124.242 174.64 124.418C174.64 124.534 174.61 124.64 174.551 124.737C174.494 124.834 174.418 124.912 174.32 124.972C174.226 125.028 174.119 125.057 174.001 125.057ZM176.755 125.057C176.58 125.057 176.429 124.994 176.304 124.869C176.178 124.743 176.116 124.593 176.116 124.418C176.116 124.242 176.178 124.092 176.304 123.967C176.429 123.841 176.58 123.778 176.755 123.778C176.93 123.778 177.08 123.841 177.206 123.967C177.331 124.092 177.394 124.242 177.394 124.418C177.394 124.534 177.364 124.64 177.305 124.737C177.248 124.834 177.171 124.912 177.074 124.972C176.98 125.028 176.873 125.057 176.755 125.057ZM179.509 125.057C179.334 125.057 179.183 124.994 179.058 124.869C178.932 124.743 178.869 124.593 178.869 124.418C178.869 124.242 178.932 124.092 179.058 123.967C179.183 123.841 179.334 123.778 179.509 123.778C179.684 123.778 179.834 123.841 179.96 123.967C180.085 124.092 180.148 124.242 180.148 124.418C180.148 124.534 180.118 124.64 180.059 124.737C180.002 124.834 179.925 124.912 179.828 124.972C179.734 125.028 179.627 125.057 179.509 125.057ZM182.263 125.057C182.087 125.057 181.937 124.994 181.812 124.869C181.686 124.743 181.623 124.593 181.623 124.418C181.623 124.242 181.686 124.092 181.812 123.967C181.937 123.841 182.087 123.778 182.263 123.778C182.438 123.778 182.588 123.841 182.714 123.967C182.839 124.092 182.902 124.242 182.902 124.418C182.902 124.534 182.872 124.64 182.813 124.737C182.756 124.834 182.679 124.912 182.582 124.972C182.488 125.028 182.381 125.057 182.263 125.057Z" fill="#B4B4B4"/>
<path d="M191.011 120.273H189.477C189.481 120.07 189.455 119.89 189.399 119.734C189.342 119.575 189.257 119.44 189.143 119.329C189.032 119.218 188.896 119.134 188.735 119.077C188.574 119.018 188.392 118.988 188.191 118.988C187.803 118.988 187.447 119.085 187.122 119.279C186.798 119.473 186.525 119.755 186.302 120.124C186.079 120.491 185.926 120.935 185.84 121.456C185.758 121.958 185.762 122.378 185.855 122.717C185.947 123.055 186.11 123.311 186.345 123.484C186.581 123.654 186.876 123.739 187.229 123.739C187.447 123.739 187.654 123.712 187.85 123.658C188.047 123.601 188.226 123.52 188.387 123.416C188.55 123.31 188.692 123.181 188.813 123.029C188.936 122.878 189.032 122.706 189.1 122.514H190.645C190.548 122.848 190.396 123.17 190.191 123.48C189.987 123.79 189.735 124.067 189.434 124.311C189.133 124.553 188.791 124.744 188.408 124.886C188.024 125.028 187.604 125.099 187.147 125.099C186.487 125.099 185.92 124.948 185.446 124.645C184.975 124.342 184.635 123.905 184.427 123.335C184.219 122.764 184.18 122.076 184.31 121.271C184.44 120.492 184.695 119.832 185.073 119.29C185.454 118.745 185.917 118.332 186.462 118.05C187.009 117.769 187.593 117.628 188.216 117.628C188.649 117.628 189.041 117.687 189.392 117.805C189.742 117.924 190.04 118.097 190.286 118.324C190.535 118.549 190.722 118.825 190.847 119.151C190.973 119.478 191.027 119.852 191.011 120.273ZM191.336 125L192.543 117.727H194.081L193.584 120.728H196.705L197.202 117.727H198.736L197.529 125H195.995L196.492 121.996H193.371L192.873 125H191.336ZM200.05 125H198.403L202.121 117.727H204.102L205.402 125H203.754L202.87 119.389H202.813L200.05 125ZM200.427 122.141H204.319L204.113 123.342H200.221L200.427 122.141ZM206.277 125L207.485 117.727H210.354C210.903 117.727 211.355 117.824 211.71 118.018C212.068 118.213 212.319 118.488 212.463 118.846C212.61 119.201 212.644 119.62 212.566 120.103C212.486 120.586 212.312 121 212.044 121.346C211.779 121.692 211.433 121.958 211.007 122.145C210.584 122.33 210.092 122.422 209.534 122.422H207.612L207.825 121.186H209.494C209.788 121.186 210.039 121.146 210.247 121.065C210.456 120.985 210.62 120.864 210.741 120.703C210.864 120.542 210.945 120.342 210.982 120.103C211.023 119.859 211.008 119.656 210.94 119.492C210.871 119.326 210.747 119.201 210.567 119.116C210.387 119.028 210.15 118.984 209.857 118.984H208.82L207.815 125H206.277ZM210.752 121.69L212.012 125H210.315L209.093 121.69H210.752ZM218.537 120.078C218.519 119.905 218.478 119.753 218.417 119.62C218.358 119.485 218.276 119.371 218.172 119.279C218.068 119.184 217.941 119.112 217.792 119.062C217.643 119.013 217.47 118.988 217.273 118.988C216.902 118.988 216.554 119.08 216.229 119.265C215.907 119.45 215.633 119.718 215.405 120.071C215.178 120.421 215.023 120.85 214.94 121.357C214.855 121.863 214.855 122.294 214.94 122.649C215.028 123.004 215.192 123.275 215.434 123.462C215.678 123.647 215.991 123.739 216.375 123.739C216.723 123.739 217.035 123.678 217.312 123.555C217.589 123.429 217.815 123.253 217.991 123.026C218.168 122.798 218.282 122.53 218.331 122.219L218.637 122.266H216.765L216.957 121.108H220.001L219.844 122.024C219.742 122.663 219.519 123.213 219.173 123.672C218.827 124.131 218.397 124.484 217.881 124.73C217.367 124.976 216.803 125.099 216.19 125.099C215.508 125.099 214.934 124.949 214.468 124.648C214.004 124.345 213.674 123.916 213.477 123.359C213.283 122.801 213.249 122.138 213.374 121.371C213.471 120.781 213.644 120.256 213.893 119.794C214.144 119.33 214.45 118.937 214.812 118.615C215.175 118.293 215.576 118.048 216.016 117.88C216.459 117.712 216.919 117.628 217.398 117.628C217.809 117.628 218.182 117.688 218.516 117.809C218.852 117.927 219.14 118.095 219.379 118.313C219.621 118.531 219.803 118.79 219.926 119.091C220.051 119.389 220.109 119.718 220.1 120.078H218.537ZM223.251 117.727L222.043 125H220.506L221.713 117.727H223.251ZM230.599 117.727L229.392 125H228.063L225.666 120.423H225.61L224.846 125H223.308L224.516 117.727H225.865L228.252 122.301H228.312L229.068 117.727H230.599ZM236.301 120.078C236.282 119.905 236.242 119.753 236.18 119.62C236.121 119.485 236.04 119.371 235.935 119.279C235.831 119.184 235.705 119.112 235.555 119.062C235.406 119.013 235.233 118.988 235.037 118.988C234.665 118.988 234.317 119.08 233.993 119.265C233.671 119.45 233.396 119.718 233.169 120.071C232.942 120.421 232.787 120.85 232.704 121.357C232.619 121.863 232.619 122.294 232.704 122.649C232.791 123.004 232.956 123.275 233.197 123.462C233.441 123.647 233.755 123.739 234.138 123.739C234.487 123.739 234.799 123.678 235.076 123.555C235.353 123.429 235.579 123.253 235.754 123.026C235.932 122.798 236.045 122.53 236.095 122.219L236.401 122.266H234.529L234.721 121.108H237.764L237.608 122.024C237.506 122.663 237.282 123.213 236.937 123.672C236.591 124.131 236.16 124.484 235.644 124.73C235.13 124.976 234.567 125.099 233.954 125.099C233.272 125.099 232.698 124.949 232.232 124.648C231.768 124.345 231.437 123.916 231.241 123.359C231.047 122.801 231.012 122.138 231.138 121.371C231.235 120.781 231.408 120.256 231.656 119.794C231.907 119.33 232.214 118.937 232.576 118.615C232.938 118.293 233.339 118.048 233.78 117.88C234.223 117.712 234.683 117.628 235.161 117.628C235.573 117.628 235.946 117.688 236.28 117.809C236.616 117.927 236.904 118.095 237.143 118.313C237.384 118.531 237.567 118.79 237.69 119.091C237.815 119.389 237.873 119.718 237.864 120.078H236.301ZM245.381 119.84C245.393 119.544 245.307 119.316 245.122 119.155C244.94 118.994 244.664 118.913 244.295 118.913C244.044 118.913 243.826 118.949 243.641 119.02C243.457 119.089 243.309 119.184 243.197 119.308C243.089 119.428 243.021 119.568 242.995 119.727C242.969 119.857 242.977 119.97 243.02 120.067C243.065 120.165 243.135 120.249 243.229 120.32C243.326 120.388 243.441 120.449 243.574 120.501C243.706 120.55 243.847 120.593 243.996 120.629L244.621 120.785C244.927 120.856 245.201 120.951 245.445 121.069C245.692 121.187 245.897 121.333 246.063 121.506C246.231 121.679 246.35 121.882 246.418 122.116C246.487 122.351 246.496 122.62 246.447 122.923C246.371 123.368 246.195 123.754 245.918 124.08C245.641 124.405 245.277 124.657 244.827 124.837C244.378 125.014 243.857 125.103 243.265 125.103C242.678 125.103 242.182 125.013 241.777 124.833C241.372 124.653 241.077 124.387 240.893 124.034C240.71 123.679 240.656 123.24 240.729 122.717H242.217C242.191 122.96 242.227 123.164 242.324 123.327C242.423 123.488 242.571 123.61 242.768 123.693C242.964 123.774 243.195 123.814 243.46 123.814C243.723 123.814 243.956 123.776 244.16 123.7C244.366 123.625 244.533 123.519 244.661 123.384C244.788 123.249 244.866 123.094 244.895 122.919C244.923 122.756 244.898 122.618 244.82 122.507C244.742 122.396 244.617 122.301 244.444 122.223C244.273 122.143 244.062 122.071 243.808 122.01L243.048 121.811C242.461 121.662 242.017 121.429 241.717 121.112C241.416 120.794 241.308 120.367 241.393 119.83C241.469 119.389 241.653 119.004 241.944 118.675C242.237 118.344 242.607 118.087 243.052 117.905C243.499 117.72 243.988 117.628 244.518 117.628C245.058 117.628 245.514 117.721 245.886 117.908C246.257 118.093 246.528 118.351 246.699 118.683C246.869 119.014 246.921 119.4 246.855 119.84H245.381ZM247.854 118.995L248.067 117.727H254.04L253.827 118.995H251.6L250.606 125H249.086L250.08 118.995H247.854ZM254.181 125H252.533L256.251 117.727H258.233L259.533 125H257.885L257.001 119.389H256.944L254.181 125ZM254.558 122.141H258.45L258.244 123.342H254.352L254.558 122.141ZM260.237 118.995L260.45 117.727H266.423L266.21 118.995H263.983L262.989 125H261.469L262.463 118.995H260.237ZM268.944 117.727L267.737 125H266.199L267.406 117.727H268.944ZM276.275 121.463C276.142 122.24 275.885 122.899 275.504 123.441C275.125 123.983 274.662 124.395 274.115 124.677C273.571 124.959 272.984 125.099 272.354 125.099C271.694 125.099 271.124 124.949 270.646 124.648C270.17 124.348 269.826 123.913 269.613 123.345C269.4 122.775 269.359 122.087 269.492 121.282C269.62 120.503 269.874 119.843 270.255 119.3C270.636 118.756 271.102 118.342 271.651 118.058C272.2 117.771 272.791 117.628 273.423 117.628C274.079 117.628 274.645 117.779 275.12 118.082C275.599 118.385 275.943 118.823 276.154 119.396C276.367 119.967 276.407 120.656 276.275 121.463ZM274.744 121.282C274.827 120.782 274.823 120.363 274.733 120.025C274.646 119.684 274.485 119.426 274.25 119.251C274.016 119.076 273.72 118.988 273.363 118.988C272.974 118.988 272.618 119.085 272.294 119.279C271.972 119.473 271.699 119.755 271.477 120.124C271.257 120.491 271.104 120.937 271.019 121.463C270.934 121.965 270.936 122.384 271.026 122.72C271.118 123.056 271.283 123.311 271.52 123.484C271.759 123.654 272.056 123.739 272.411 123.739C272.797 123.739 273.15 123.645 273.469 123.455C273.791 123.263 274.062 122.985 274.282 122.621C274.502 122.254 274.656 121.808 274.744 121.282ZM284.115 117.727L282.907 125H281.579L279.182 120.423H279.125L278.362 125H276.824L278.031 117.727H279.381L281.767 122.301H281.828L282.584 117.727H284.115Z" fill="black"/>
<mask id="mask0_56_83270" style="mask-type:luminance" maskUnits="userSpaceOnUse" x="197" y="94" width="87" height="19">
<path d="M283.56 94.3101H197V112.564H283.56V94.3101Z" fill="white"/>
</mask>
<g mask="url(#mask0_56_83270)">
<path d="M283.137 94.7422H239.857V111.954H283.137V94.7422Z" stroke="#231F20" stroke-width="0.848496" stroke-miterlimit="10"/>
</g>
<path d="M239.857 94.7417H197.426V111.954H239.857V94.7417Z" fill="black"/>
<mask id="mask1_56_83270" style="mask-type:luminance" maskUnits="userSpaceOnUse" x="197" y="94" width="87" height="19">
<path d="M283.56 94.3101H197V112.564H283.56V94.3101Z" fill="white"/>
</mask>
<g mask="url(#mask1_56_83270)">
<path d="M239.857 94.7422H197.426V111.954H239.857V94.7422Z" stroke="black" stroke-width="0.848496" stroke-miterlimit="10"/>
<path d="M234.076 100.373V104.063L230.438 100.293H230.316V106.112H231.247V102.539L234.885 106.212H235.007V100.377H234.076V100.373ZM223.934 105.285C222.755 105.285 221.979 104.324 221.979 103.243C221.979 102.161 222.755 101.21 223.934 101.21C225.113 101.21 225.888 102.161 225.888 103.243C225.888 104.324 225.106 105.285 223.934 105.285ZM223.934 106.226C225.697 106.226 226.836 104.84 226.836 103.243C226.836 101.646 225.697 100.266 223.934 100.266C222.171 100.266 221.025 101.652 221.025 103.243C221.025 104.833 222.158 106.226 223.934 106.226ZM217.793 101.294V100.377H214.617V106.115H217.793V105.198H215.555V103.664H217.252V102.747H215.555V101.297H217.793V101.294ZM208.456 105.184H207.819V101.301H208.456C209.628 101.301 210.338 102.144 210.338 103.226C210.338 104.307 209.628 105.184 208.456 105.184ZM208.45 100.373H206.881V106.112H208.45C210.219 106.112 211.296 104.826 211.296 103.226C211.296 101.625 210.219 100.373 208.45 100.373ZM202.272 106.112H203.21V100.373H202.272V106.112Z" fill="white"/>
<path d="M274.213 104.163L275.23 101.672L276.247 104.163H274.21H274.213ZM277.049 106.112H277.759L275.279 100.293H275.174L272.691 106.112H273.411L273.952 104.793H276.508L277.049 106.112ZM268.967 106.112H269.614V100.373H268.967V106.112ZM262.922 105.472H262.129V101.013H262.922C264.295 101.013 265.094 101.987 265.094 103.226C265.094 104.465 264.295 105.472 262.922 105.472ZM262.905 100.373H261.482V106.112H262.905C264.691 106.112 265.751 104.816 265.751 103.226C265.751 101.636 264.691 100.373 262.905 100.373ZM257.936 101.006V100.373H254.889V106.112H257.936V105.479H255.536V103.497H257.412V102.868H255.536V101.006H257.936ZM251.614 106.112L250.346 100.293H250.241L248.454 104.86L246.662 100.293H246.556L245.328 106.112H245.991L246.79 102.154L248.408 106.179H248.504L250.128 102.131L250.96 106.115H251.614V106.112Z" fill="#231F20"/>
</g>
</svg>
