<svg width="300" height="81" viewBox="0 0 300 81" fill="none" xmlns="http://www.w3.org/2000/svg">
<mask id="mask0_56_83481" style="mask-type:alpha" maskUnits="userSpaceOnUse" x="0" y="0" width="300" height="81">
<path d="M0 0H300V81H0V0Z" fill="white"/>
</mask>
<g mask="url(#mask0_56_83481)">
<rect width="300" height="81" fill="white"/>
<circle cx="6.07297" cy="19.3645" r="1.21457" fill="#D9D9D9"/>
<circle cx="18.2187" cy="19.3645" r="1.21457" fill="#D9D9D9"/>
<circle cx="30.3645" cy="19.3645" r="1.21457" fill="#D9D9D9"/>
<circle cx="42.5102" cy="19.3645" r="1.21457" fill="#D9D9D9"/>
<circle cx="54.656" cy="19.3645" r="1.21457" fill="#D9D9D9"/>
<circle cx="6.07297" cy="41.2268" r="1.21457" fill="#D9D9D9"/>
<circle cx="18.2187" cy="41.2268" r="1.21457" fill="#D9D9D9"/>
<circle cx="30.3645" cy="41.2268" r="1.21457" fill="#D9D9D9"/>
<circle cx="42.5102" cy="41.2268" r="1.21457" fill="#D9D9D9"/>
<circle cx="54.656" cy="41.2268" r="1.21457" fill="#D9D9D9"/>
<circle cx="6.07297" cy="63.0891" r="1.21457" fill="#D9D9D9"/>
<circle cx="18.2187" cy="63.0891" r="1.21457" fill="#D9D9D9"/>
<circle cx="30.3645" cy="63.0891" r="1.21457" fill="#D9D9D9"/>
<circle cx="42.5102" cy="63.0891" r="1.21457" fill="#D9D9D9"/>
<circle cx="54.656" cy="63.0891" r="1.21457" fill="#D9D9D9"/>
<circle cx="1.21457" cy="4.78928" r="1.21457" fill="#D9D9D9"/>
<circle cx="13.3603" cy="4.78928" r="1.21457" fill="#D9D9D9"/>
<circle cx="25.5061" cy="4.78928" r="1.21457" fill="#D9D9D9"/>
<circle cx="37.6518" cy="4.78928" r="1.21457" fill="#D9D9D9"/>
<circle cx="49.7976" cy="4.78928" r="1.21457" fill="#D9D9D9"/>
<circle cx="1.21457" cy="26.6521" r="1.21457" fill="#D9D9D9"/>
<circle cx="13.3603" cy="26.6521" r="1.21457" fill="#D9D9D9"/>
<circle cx="25.5061" cy="26.6521" r="1.21457" fill="#D9D9D9"/>
<circle cx="37.6518" cy="26.6521" r="1.21457" fill="#D9D9D9"/>
<circle cx="49.7976" cy="26.6521" r="1.21457" fill="#D9D9D9"/>
<circle cx="1.21457" cy="48.5144" r="1.21457" fill="#D9D9D9"/>
<circle cx="13.3603" cy="48.5144" r="1.21457" fill="#D9D9D9"/>
<circle cx="25.5061" cy="48.5144" r="1.21457" fill="#D9D9D9"/>
<circle cx="37.6518" cy="48.5144" r="1.21457" fill="#D9D9D9"/>
<circle cx="49.7976" cy="48.5144" r="1.21457" fill="#D9D9D9"/>
<circle cx="1.21457" cy="70.3767" r="1.21457" fill="#D9D9D9"/>
<circle cx="13.3603" cy="70.3767" r="1.21457" fill="#D9D9D9"/>
<circle cx="25.5061" cy="70.3767" r="1.21457" fill="#D9D9D9"/>
<circle cx="37.6518" cy="70.3767" r="1.21457" fill="#D9D9D9"/>
<circle cx="49.7976" cy="70.3767" r="1.21457" fill="#D9D9D9"/>
<circle cx="8.50193" cy="12.0769" r="1.21457" fill="#D9D9D9"/>
<circle cx="20.6477" cy="12.0769" r="1.21457" fill="#D9D9D9"/>
<circle cx="32.7934" cy="12.0769" r="1.21457" fill="#D9D9D9"/>
<circle cx="44.9392" cy="12.0769" r="1.21457" fill="#D9D9D9"/>
<circle cx="57.0849" cy="12.0769" r="1.21457" fill="#D9D9D9"/>
<circle cx="8.50193" cy="33.9392" r="1.21457" fill="#D9D9D9"/>
<circle cx="20.6477" cy="33.9392" r="1.21457" fill="#D9D9D9"/>
<circle cx="32.7934" cy="33.9392" r="1.21457" fill="#D9D9D9"/>
<circle cx="44.9392" cy="33.9392" r="1.21457" fill="#D9D9D9"/>
<circle cx="57.0849" cy="33.9392" r="1.21457" fill="#D9D9D9"/>
<circle cx="8.50193" cy="55.8015" r="1.21457" fill="#D9D9D9"/>
<circle cx="20.6477" cy="55.8015" r="1.21457" fill="#D9D9D9"/>
<circle cx="32.7934" cy="55.8015" r="1.21457" fill="#D9D9D9"/>
<circle cx="44.9392" cy="55.8015" r="1.21457" fill="#D9D9D9"/>
<circle cx="57.0849" cy="55.8015" r="1.21457" fill="#D9D9D9"/>
<circle cx="8.50193" cy="77.6638" r="1.21457" fill="#D9D9D9"/>
<circle cx="20.6477" cy="77.6638" r="1.21457" fill="#D9D9D9"/>
<circle cx="32.7934" cy="77.6638" r="1.21457" fill="#D9D9D9"/>
<circle cx="44.9392" cy="77.6638" r="1.21457" fill="#D9D9D9"/>
<circle cx="57.0849" cy="77.6638" r="1.21457" fill="#D9D9D9"/>
<circle cx="66.8017" cy="19.3645" r="1.21457" fill="#D9D9D9"/>
<circle cx="78.9475" cy="19.3645" r="1.21457" fill="#D9D9D9"/>
<circle cx="91.0932" cy="19.3645" r="1.21457" fill="#D9D9D9"/>
<circle cx="103.239" cy="19.3645" r="1.21457" fill="#D9D9D9"/>
<circle cx="115.385" cy="19.3645" r="1.21457" fill="#D9D9D9"/>
<circle cx="66.8017" cy="41.2268" r="1.21457" fill="#D9D9D9"/>
<circle opacity="0.4" cx="78.9475" cy="41.2268" r="1.21457" fill="#D9D9D9"/>
<circle opacity="0.4" cx="91.0932" cy="41.2268" r="1.21457" fill="#D9D9D9"/>
<circle opacity="0.4" cx="103.239" cy="41.2268" r="1.21457" fill="#D9D9D9"/>
<circle opacity="0.4" cx="115.385" cy="41.2268" r="1.21457" fill="#D9D9D9"/>
<circle cx="66.8017" cy="63.0891" r="1.21457" fill="#D9D9D9"/>
<circle cx="78.9475" cy="63.0891" r="1.21457" fill="#D9D9D9"/>
<circle cx="91.0932" cy="63.0891" r="1.21457" fill="#D9D9D9"/>
<circle cx="103.239" cy="63.0891" r="1.21457" fill="#D9D9D9"/>
<circle cx="115.385" cy="63.0891" r="1.21457" fill="#D9D9D9"/>
<circle cx="61.9433" cy="4.78928" r="1.21457" fill="#D9D9D9"/>
<circle cx="74.0891" cy="4.78928" r="1.21457" fill="#D9D9D9"/>
<circle cx="86.2348" cy="4.78928" r="1.21457" fill="#D9D9D9"/>
<circle cx="98.3806" cy="4.78928" r="1.21457" fill="#D9D9D9"/>
<circle cx="110.526" cy="4.78928" r="1.21457" fill="#D9D9D9"/>
<circle cx="61.9433" cy="26.6521" r="1.21457" fill="#D9D9D9"/>
<circle cx="74.0891" cy="26.6521" r="1.21457" fill="#D9D9D9"/>
<circle cx="86.2348" cy="26.6521" r="1.21457" fill="#D9D9D9"/>
<circle opacity="0.4" cx="98.3806" cy="26.6521" r="1.21457" fill="#D9D9D9"/>
<circle opacity="0.4" cx="110.526" cy="26.6521" r="1.21457" fill="#D9D9D9"/>
<circle cx="61.9433" cy="48.5144" r="1.21457" fill="#D9D9D9"/>
<circle cx="74.0891" cy="48.5144" r="1.21457" fill="#D9D9D9"/>
<circle opacity="0.4" cx="86.2348" cy="48.5144" r="1.21457" fill="#D9D9D9"/>
<circle opacity="0.4" cx="98.3806" cy="48.5144" r="1.21457" fill="#D9D9D9"/>
<circle opacity="0.4" cx="110.526" cy="48.5144" r="1.21457" fill="#D9D9D9"/>
<circle cx="61.9433" cy="70.3767" r="1.21457" fill="#D9D9D9"/>
<circle cx="74.0891" cy="70.3767" r="1.21457" fill="#D9D9D9"/>
<circle cx="86.2348" cy="70.3767" r="1.21457" fill="#D9D9D9"/>
<circle cx="98.3806" cy="70.3767" r="1.21457" fill="#D9D9D9"/>
<circle cx="110.526" cy="70.3767" r="1.21457" fill="#D9D9D9"/>
<circle cx="69.2307" cy="12.0769" r="1.21457" fill="#D9D9D9"/>
<circle cx="81.3764" cy="12.0769" r="1.21457" fill="#D9D9D9"/>
<circle cx="93.5222" cy="12.0769" r="1.21457" fill="#D9D9D9"/>
<circle cx="105.668" cy="12.0769" r="1.21457" fill="#D9D9D9"/>
<circle cx="117.814" cy="12.0769" r="1.21457" fill="#D9D9D9"/>
<circle cx="69.2307" cy="33.9392" r="1.21457" fill="#D9D9D9"/>
<circle opacity="0.4" cx="81.3764" cy="33.9392" r="1.21457" fill="#D9D9D9"/>
<circle opacity="0.4" cx="93.5222" cy="33.9392" r="1.21457" fill="#D9D9D9"/>
<circle opacity="0.4" cx="105.668" cy="33.9392" r="1.21457" fill="#D9D9D9"/>
<circle opacity="0.4" cx="117.814" cy="33.9392" r="1.21457" fill="#D9D9D9"/>
<circle cx="69.2307" cy="55.8015" r="1.21457" fill="#D9D9D9"/>
<circle opacity="0.4" cx="81.3764" cy="55.8015" r="1.21457" fill="#D9D9D9"/>
<circle opacity="0.4" cx="93.5222" cy="55.8015" r="1.21457" fill="#D9D9D9"/>
<circle opacity="0.4" cx="105.668" cy="55.8015" r="1.21457" fill="#D9D9D9"/>
<circle opacity="0.4" cx="117.814" cy="55.8015" r="1.21457" fill="#D9D9D9"/>
<circle cx="69.2307" cy="77.6638" r="1.21457" fill="#D9D9D9"/>
<circle cx="81.3764" cy="77.6638" r="1.21457" fill="#D9D9D9"/>
<circle cx="93.5222" cy="77.6638" r="1.21457" fill="#D9D9D9"/>
<circle cx="105.668" cy="77.6638" r="1.21457" fill="#D9D9D9"/>
<circle cx="117.814" cy="77.6638" r="1.21457" fill="#D9D9D9"/>
<circle cx="127.53" cy="19.3645" r="1.21457" fill="#D9D9D9"/>
<circle cx="139.676" cy="19.3645" r="1.21457" fill="#D9D9D9"/>
<circle cx="151.822" cy="19.3645" r="1.21457" fill="#D9D9D9"/>
<circle cx="163.967" cy="19.3645" r="1.21457" fill="#D9D9D9"/>
<circle cx="176.113" cy="19.3645" r="1.21457" fill="#D9D9D9"/>
<g opacity="0.3">
<circle cx="127.53" cy="41.2268" r="1.21457" fill="#D9D9D9"/>
<circle cx="139.676" cy="41.2268" r="1.21457" fill="#D9D9D9"/>
<circle cx="151.822" cy="41.2268" r="1.21457" fill="#D9D9D9"/>
<circle cx="163.967" cy="41.2268" r="1.21457" fill="#D9D9D9"/>
<circle cx="176.113" cy="41.2268" r="1.21457" fill="#D9D9D9"/>
</g>
<circle cx="127.53" cy="63.0891" r="1.21457" fill="#D9D9D9"/>
<circle cx="139.676" cy="63.0891" r="1.21457" fill="#D9D9D9"/>
<circle cx="151.822" cy="63.0891" r="1.21457" fill="#D9D9D9"/>
<circle cx="163.967" cy="63.0891" r="1.21457" fill="#D9D9D9"/>
<circle cx="176.113" cy="63.0891" r="1.21457" fill="#D9D9D9"/>
<circle cx="122.672" cy="4.78928" r="1.21457" fill="#D9D9D9"/>
<circle cx="134.818" cy="4.78928" r="1.21457" fill="#D9D9D9"/>
<circle cx="146.964" cy="4.78928" r="1.21457" fill="#D9D9D9"/>
<circle cx="159.109" cy="4.78928" r="1.21457" fill="#D9D9D9"/>
<circle cx="171.255" cy="4.78928" r="1.21457" fill="#D9D9D9"/>
<g opacity="0.3">
<circle cx="122.672" cy="26.6521" r="1.21457" fill="#D9D9D9"/>
<circle cx="134.818" cy="26.6521" r="1.21457" fill="#D9D9D9"/>
<circle cx="146.964" cy="26.6521" r="1.21457" fill="#D9D9D9"/>
<circle cx="159.109" cy="26.6521" r="1.21457" fill="#D9D9D9"/>
<circle cx="171.255" cy="26.6521" r="1.21457" fill="#D9D9D9"/>
</g>
<g opacity="0.3">
<circle opacity="0.4" cx="122.672" cy="48.5144" r="1.21457" fill="#D9D9D9"/>
<circle cx="134.818" cy="48.5144" r="1.21457" fill="#D9D9D9"/>
<circle cx="146.964" cy="48.5144" r="1.21457" fill="#D9D9D9"/>
<circle cx="159.109" cy="48.5144" r="1.21457" fill="#D9D9D9"/>
<circle cx="171.255" cy="48.5144" r="1.21457" fill="#D9D9D9"/>
</g>
<circle cx="122.672" cy="70.3767" r="1.21457" fill="#D9D9D9"/>
<circle cx="134.818" cy="70.3767" r="1.21457" fill="#D9D9D9"/>
<circle cx="146.964" cy="70.3767" r="1.21457" fill="#D9D9D9"/>
<circle cx="159.109" cy="70.3767" r="1.21457" fill="#D9D9D9"/>
<circle cx="171.255" cy="70.3767" r="1.21457" fill="#D9D9D9"/>
<circle cx="129.959" cy="12.0769" r="1.21457" fill="#D9D9D9"/>
<circle cx="142.105" cy="12.0769" r="1.21457" fill="#D9D9D9"/>
<circle cx="154.251" cy="12.0769" r="1.21457" fill="#D9D9D9"/>
<circle cx="166.397" cy="12.0769" r="1.21457" fill="#D9D9D9"/>
<circle cx="178.542" cy="12.0769" r="1.21457" fill="#D9D9D9"/>
<g opacity="0.3">
<circle cx="129.959" cy="33.9392" r="1.21457" fill="#D9D9D9"/>
<circle cx="142.105" cy="33.9392" r="1.21457" fill="#D9D9D9"/>
<circle cx="154.251" cy="33.9392" r="1.21457" fill="#D9D9D9"/>
<circle cx="166.397" cy="33.9392" r="1.21457" fill="#D9D9D9"/>
<circle cx="178.542" cy="33.9392" r="1.21457" fill="#D9D9D9"/>
</g>
<g opacity="0.3">
<circle cx="129.959" cy="55.8015" r="1.21457" fill="#D9D9D9"/>
<circle cx="142.105" cy="55.8015" r="1.21457" fill="#D9D9D9"/>
<circle cx="154.251" cy="55.8015" r="1.21457" fill="#D9D9D9"/>
<circle cx="166.397" cy="55.8015" r="1.21457" fill="#D9D9D9"/>
<circle cx="178.542" cy="55.8015" r="1.21457" fill="#D9D9D9"/>
</g>
<circle cx="129.959" cy="77.6638" r="1.21457" fill="#D9D9D9"/>
<circle cx="142.105" cy="77.6638" r="1.21457" fill="#D9D9D9"/>
<circle cx="154.251" cy="77.6638" r="1.21457" fill="#D9D9D9"/>
<circle cx="166.397" cy="77.6638" r="1.21457" fill="#D9D9D9"/>
<circle cx="178.542" cy="77.6638" r="1.21457" fill="#D9D9D9"/>
<circle cx="188.259" cy="19.3645" r="1.21457" fill="#D9D9D9"/>
<circle cx="200.405" cy="19.3645" r="1.21457" fill="#D9D9D9"/>
<circle cx="212.551" cy="19.3645" r="1.21457" fill="#D9D9D9"/>
<circle cx="224.696" cy="19.3645" r="1.21457" fill="#D9D9D9"/>
<circle cx="236.842" cy="19.3645" r="1.21457" fill="#D9D9D9"/>
<circle opacity="0.3" cx="188.259" cy="41.2268" r="1.21457" fill="#D9D9D9"/>
<circle opacity="0.3" cx="200.405" cy="41.2268" r="1.21457" fill="#D9D9D9"/>
<circle cx="212.551" cy="41.2268" r="1.21457" fill="#D9D9D9"/>
<circle cx="224.696" cy="41.2268" r="1.21457" fill="#D9D9D9"/>
<circle cx="236.842" cy="41.2268" r="1.21457" fill="#D9D9D9"/>
<circle cx="188.259" cy="63.0891" r="1.21457" fill="#D9D9D9"/>
<circle cx="200.405" cy="63.0891" r="1.21457" fill="#D9D9D9"/>
<circle cx="212.551" cy="63.0891" r="1.21457" fill="#D9D9D9"/>
<circle cx="224.696" cy="63.0891" r="1.21457" fill="#D9D9D9"/>
<circle cx="236.842" cy="63.0891" r="1.21457" fill="#D9D9D9"/>
<circle cx="183.401" cy="4.78928" r="1.21457" fill="#D9D9D9"/>
<circle cx="195.547" cy="4.78928" r="1.21457" fill="#D9D9D9"/>
<circle cx="207.692" cy="4.78928" r="1.21457" fill="#D9D9D9"/>
<circle cx="219.838" cy="4.78928" r="1.21457" fill="#D9D9D9"/>
<circle cx="231.984" cy="4.78928" r="1.21457" fill="#D9D9D9"/>
<circle opacity="0.3" cx="183.401" cy="26.6521" r="1.21457" fill="#D9D9D9"/>
<circle opacity="0.3" cx="195.547" cy="26.6521" r="1.21457" fill="#D9D9D9"/>
<circle cx="207.692" cy="26.6521" r="1.21457" fill="#D9D9D9"/>
<circle cx="219.838" cy="26.6521" r="1.21457" fill="#D9D9D9"/>
<circle cx="231.984" cy="26.6521" r="1.21457" fill="#D9D9D9"/>
<circle opacity="0.3" cx="183.401" cy="48.5144" r="1.21457" fill="#D9D9D9"/>
<circle opacity="0.3" cx="195.547" cy="48.5144" r="1.21457" fill="#D9D9D9"/>
<circle cx="207.692" cy="48.5144" r="1.21457" fill="#D9D9D9"/>
<circle cx="219.838" cy="48.5144" r="1.21457" fill="#D9D9D9"/>
<circle cx="231.984" cy="48.5144" r="1.21457" fill="#D9D9D9"/>
<circle cx="183.401" cy="70.3767" r="1.21457" fill="#D9D9D9"/>
<circle cx="195.547" cy="70.3767" r="1.21457" fill="#D9D9D9"/>
<circle cx="207.692" cy="70.3767" r="1.21457" fill="#D9D9D9"/>
<circle cx="219.838" cy="70.3767" r="1.21457" fill="#D9D9D9"/>
<circle cx="231.984" cy="70.3767" r="1.21457" fill="#D9D9D9"/>
<circle cx="190.688" cy="12.0769" r="1.21457" fill="#D9D9D9"/>
<circle cx="202.834" cy="12.0769" r="1.21457" fill="#D9D9D9"/>
<circle cx="214.98" cy="12.0769" r="1.21457" fill="#D9D9D9"/>
<circle cx="227.125" cy="12.0769" r="1.21457" fill="#D9D9D9"/>
<circle cx="239.271" cy="12.0769" r="1.21457" fill="#D9D9D9"/>
<circle opacity="0.3" cx="190.688" cy="33.9392" r="1.21457" fill="#D9D9D9"/>
<circle opacity="0.3" cx="202.834" cy="33.9392" r="1.21457" fill="#D9D9D9"/>
<circle cx="214.98" cy="33.9392" r="1.21457" fill="#D9D9D9"/>
<circle cx="227.125" cy="33.9392" r="1.21457" fill="#D9D9D9"/>
<circle cx="239.271" cy="33.9392" r="1.21457" fill="#D9D9D9"/>
<circle opacity="0.3" cx="190.688" cy="55.8015" r="1.21457" fill="#D9D9D9"/>
<circle opacity="0.3" cx="202.834" cy="55.8015" r="1.21457" fill="#D9D9D9"/>
<circle cx="214.98" cy="55.8015" r="1.21457" fill="#D9D9D9"/>
<circle cx="227.125" cy="55.8015" r="1.21457" fill="#D9D9D9"/>
<circle cx="239.271" cy="55.8015" r="1.21457" fill="#D9D9D9"/>
<circle cx="190.688" cy="77.6638" r="1.21457" fill="#D9D9D9"/>
<circle cx="202.834" cy="77.6638" r="1.21457" fill="#D9D9D9"/>
<circle cx="214.98" cy="77.6638" r="1.21457" fill="#D9D9D9"/>
<circle cx="227.125" cy="77.6638" r="1.21457" fill="#D9D9D9"/>
<circle cx="239.271" cy="77.6638" r="1.21457" fill="#D9D9D9"/>
<circle cx="247.773" cy="19.3645" r="1.21457" fill="#D9D9D9"/>
<circle cx="259.919" cy="19.3645" r="1.21457" fill="#D9D9D9"/>
<circle cx="272.065" cy="19.3645" r="1.21457" fill="#D9D9D9"/>
<circle cx="284.21" cy="19.3645" r="1.21457" fill="#D9D9D9"/>
<circle cx="296.356" cy="19.3645" r="1.21457" fill="#D9D9D9"/>
<circle cx="247.773" cy="41.2268" r="1.21457" fill="#D9D9D9"/>
<circle cx="259.919" cy="41.2268" r="1.21457" fill="#D9D9D9"/>
<circle cx="272.065" cy="41.2268" r="1.21457" fill="#D9D9D9"/>
<circle cx="284.21" cy="41.2268" r="1.21457" fill="#D9D9D9"/>
<circle cx="296.356" cy="41.2268" r="1.21457" fill="#D9D9D9"/>
<circle cx="247.773" cy="63.0891" r="1.21457" fill="#D9D9D9"/>
<circle cx="259.919" cy="63.0891" r="1.21457" fill="#D9D9D9"/>
<circle cx="272.065" cy="63.0891" r="1.21457" fill="#D9D9D9"/>
<circle cx="284.21" cy="63.0891" r="1.21457" fill="#D9D9D9"/>
<circle cx="296.356" cy="63.0891" r="1.21457" fill="#D9D9D9"/>
<circle cx="242.915" cy="4.78928" r="1.21457" fill="#D9D9D9"/>
<circle cx="255.061" cy="4.78928" r="1.21457" fill="#D9D9D9"/>
<circle cx="267.207" cy="4.78928" r="1.21457" fill="#D9D9D9"/>
<circle cx="279.352" cy="4.78928" r="1.21457" fill="#D9D9D9"/>
<circle cx="291.498" cy="4.78928" r="1.21457" fill="#D9D9D9"/>
<circle cx="242.915" cy="26.6521" r="1.21457" fill="#D9D9D9"/>
<circle cx="255.061" cy="26.6521" r="1.21457" fill="#D9D9D9"/>
<circle cx="267.207" cy="26.6521" r="1.21457" fill="#D9D9D9"/>
<circle cx="279.352" cy="26.6521" r="1.21457" fill="#D9D9D9"/>
<circle cx="291.498" cy="26.6521" r="1.21457" fill="#D9D9D9"/>
<circle cx="242.915" cy="48.5144" r="1.21457" fill="#D9D9D9"/>
<circle cx="255.061" cy="48.5144" r="1.21457" fill="#D9D9D9"/>
<circle cx="267.207" cy="48.5144" r="1.21457" fill="#D9D9D9"/>
<circle cx="279.352" cy="48.5144" r="1.21457" fill="#D9D9D9"/>
<circle cx="291.498" cy="48.5144" r="1.21457" fill="#D9D9D9"/>
<circle cx="242.915" cy="70.3767" r="1.21457" fill="#D9D9D9"/>
<circle cx="255.061" cy="70.3767" r="1.21457" fill="#D9D9D9"/>
<circle cx="267.207" cy="70.3767" r="1.21457" fill="#D9D9D9"/>
<circle cx="279.352" cy="70.3767" r="1.21457" fill="#D9D9D9"/>
<circle cx="291.498" cy="70.3767" r="1.21457" fill="#D9D9D9"/>
<circle cx="250.202" cy="12.0769" r="1.21457" fill="#D9D9D9"/>
<circle cx="262.348" cy="12.0769" r="1.21457" fill="#D9D9D9"/>
<circle cx="274.494" cy="12.0769" r="1.21457" fill="#D9D9D9"/>
<circle cx="286.64" cy="12.0769" r="1.21457" fill="#D9D9D9"/>
<circle cx="298.785" cy="12.0769" r="1.21457" fill="#D9D9D9"/>
<circle cx="250.202" cy="33.9392" r="1.21457" fill="#D9D9D9"/>
<circle cx="262.348" cy="33.9392" r="1.21457" fill="#D9D9D9"/>
<circle cx="274.494" cy="33.9392" r="1.21457" fill="#D9D9D9"/>
<circle cx="286.64" cy="33.9392" r="1.21457" fill="#D9D9D9"/>
<circle cx="298.785" cy="33.9392" r="1.21457" fill="#D9D9D9"/>
<circle cx="250.202" cy="55.8015" r="1.21457" fill="#D9D9D9"/>
<circle cx="262.348" cy="55.8015" r="1.21457" fill="#D9D9D9"/>
<circle cx="274.494" cy="55.8015" r="1.21457" fill="#D9D9D9"/>
<circle cx="286.64" cy="55.8015" r="1.21457" fill="#D9D9D9"/>
<circle cx="298.785" cy="55.8015" r="1.21457" fill="#D9D9D9"/>
<circle cx="250.202" cy="77.6638" r="1.21457" fill="#D9D9D9"/>
<circle cx="262.348" cy="77.6638" r="1.21457" fill="#D9D9D9"/>
<circle cx="274.494" cy="77.6638" r="1.21457" fill="#D9D9D9"/>
<circle cx="286.64" cy="77.6638" r="1.21457" fill="#D9D9D9"/>
<circle cx="298.785" cy="77.6638" r="1.21457" fill="#D9D9D9"/>
<path d="M147.057 44V35.2727H152.324V36.2102H148.114V39.1591H152.051V40.0966H148.114V43.0625H152.392V44H147.057ZM155.098 40.0625V44H154.092V37.4545H155.064V38.4773H155.149C155.303 38.1449 155.536 37.8778 155.848 37.6761C156.161 37.4716 156.564 37.3693 157.058 37.3693C157.501 37.3693 157.889 37.4602 158.222 37.642C158.554 37.821 158.813 38.0938 158.997 38.4602C159.182 38.8239 159.274 39.2841 159.274 39.8409V44H158.268V39.9091C158.268 39.3949 158.135 38.9943 157.868 38.7074C157.601 38.4176 157.234 38.2727 156.768 38.2727C156.447 38.2727 156.161 38.3423 155.908 38.4815C155.658 38.6207 155.46 38.8239 155.315 39.0909C155.17 39.358 155.098 39.6818 155.098 40.0625ZM163.958 37.4545V38.3068H160.566V37.4545H163.958ZM161.555 35.8864H162.561V42.125C162.561 42.4091 162.602 42.6222 162.684 42.7642C162.77 42.9034 162.877 42.9972 163.008 43.0455C163.142 43.0909 163.282 43.1136 163.43 43.1136C163.541 43.1136 163.632 43.108 163.703 43.0966C163.774 43.0824 163.831 43.071 163.873 43.0625L164.078 43.9659C164.01 43.9915 163.914 44.017 163.792 44.0426C163.67 44.071 163.515 44.0852 163.328 44.0852C163.044 44.0852 162.765 44.0241 162.493 43.902C162.223 43.7798 161.998 43.5938 161.819 43.3438C161.643 43.0938 161.555 42.7784 161.555 42.3977V35.8864ZM165.471 44V37.4545H166.443V38.4432H166.511C166.63 38.1193 166.846 37.8565 167.159 37.6548C167.471 37.4531 167.824 37.3523 168.216 37.3523C168.289 37.3523 168.382 37.3537 168.493 37.3565C168.603 37.3594 168.687 37.3636 168.744 37.3693V38.392C168.71 38.3835 168.632 38.3707 168.51 38.3537C168.39 38.3338 168.264 38.3239 168.13 38.3239C167.812 38.3239 167.528 38.3906 167.278 38.5241C167.031 38.6548 166.835 38.8366 166.69 39.0696C166.548 39.2997 166.477 39.5625 166.477 39.858V44H165.471ZM171.862 44.1534C171.447 44.1534 171.071 44.0753 170.733 43.919C170.395 43.7599 170.126 43.5312 169.928 43.233C169.729 42.9318 169.629 42.5682 169.629 42.142C169.629 41.767 169.703 41.4631 169.851 41.2301C169.999 40.9943 170.196 40.8097 170.443 40.6761C170.69 40.5426 170.963 40.4432 171.261 40.3778C171.563 40.3097 171.865 40.2557 172.169 40.2159C172.567 40.1648 172.889 40.1264 173.136 40.1009C173.386 40.0724 173.568 40.0256 173.682 39.9602C173.798 39.8949 173.857 39.7812 173.857 39.6193V39.5852C173.857 39.1648 173.741 38.8381 173.511 38.6051C173.284 38.3722 172.939 38.2557 172.476 38.2557C171.996 38.2557 171.619 38.3608 171.347 38.571C171.074 38.7812 170.882 39.0057 170.771 39.2443L169.817 38.9034C169.987 38.5057 170.214 38.196 170.499 37.9744C170.786 37.75 171.098 37.5937 171.436 37.5057C171.777 37.4148 172.112 37.3693 172.442 37.3693C172.652 37.3693 172.893 37.3949 173.166 37.446C173.442 37.4943 173.707 37.5952 173.963 37.7486C174.222 37.902 174.436 38.1335 174.607 38.4432C174.777 38.7528 174.862 39.1676 174.862 39.6875V44H173.857V43.1136H173.805C173.737 43.2557 173.624 43.4077 173.464 43.5696C173.305 43.7315 173.094 43.8693 172.83 43.983C172.565 44.0966 172.243 44.1534 171.862 44.1534ZM172.016 43.25C172.413 43.25 172.749 43.1719 173.021 43.0156C173.297 42.8594 173.504 42.6577 173.643 42.4105C173.786 42.1634 173.857 41.9034 173.857 41.6307V40.7102C173.814 40.7614 173.72 40.8082 173.575 40.8509C173.433 40.8906 173.268 40.9261 173.081 40.9574C172.896 40.9858 172.716 41.0114 172.54 41.0341C172.366 41.054 172.226 41.071 172.118 41.0852C171.857 41.1193 171.612 41.1747 171.385 41.2514C171.161 41.3253 170.979 41.4375 170.839 41.5881C170.703 41.7358 170.635 41.9375 170.635 42.1932C170.635 42.5426 170.764 42.8068 171.023 42.9858C171.284 43.1619 171.615 43.25 172.016 43.25ZM177.703 40.0625V44H176.698V37.4545H177.669V38.4773H177.755C177.908 38.1449 178.141 37.8778 178.453 37.6761C178.766 37.4716 179.169 37.3693 179.664 37.3693C180.107 37.3693 180.495 37.4602 180.827 37.642C181.159 37.821 181.418 38.0938 181.603 38.4602C181.787 38.8239 181.88 39.2841 181.88 39.8409V44H180.874V39.9091C180.874 39.3949 180.74 38.9943 180.473 38.7074C180.206 38.4176 179.84 38.2727 179.374 38.2727C179.053 38.2727 178.766 38.3423 178.513 38.4815C178.263 38.6207 178.066 38.8239 177.921 39.0909C177.776 39.358 177.703 39.6818 177.703 40.0625ZM186.376 44.1364C185.763 44.1364 185.234 43.9915 184.791 43.7017C184.348 43.4119 184.007 43.0128 183.768 42.5043C183.53 41.9957 183.411 41.4148 183.411 40.7614C183.411 40.0966 183.533 39.5099 183.777 39.0014C184.024 38.4901 184.368 38.0909 184.808 37.804C185.251 37.5142 185.768 37.3693 186.359 37.3693C186.82 37.3693 187.234 37.4545 187.604 37.625C187.973 37.7955 188.276 38.0341 188.511 38.3409C188.747 38.6477 188.893 39.0057 188.95 39.4148H187.945C187.868 39.1165 187.697 38.8523 187.433 38.6222C187.172 38.3892 186.82 38.2727 186.376 38.2727C185.984 38.2727 185.641 38.375 185.345 38.5795C185.053 38.7812 184.824 39.0668 184.659 39.4361C184.497 39.8026 184.416 40.233 184.416 40.7273C184.416 41.233 184.496 41.6733 184.655 42.0483C184.817 42.4233 185.044 42.7145 185.337 42.9219C185.632 43.1293 185.979 43.233 186.376 43.233C186.638 43.233 186.875 43.1875 187.088 43.0966C187.301 43.0057 187.482 42.875 187.629 42.7045C187.777 42.5341 187.882 42.3295 187.945 42.0909H188.95C188.893 42.4773 188.753 42.8253 188.528 43.1349C188.307 43.4418 188.013 43.6861 187.646 43.8679C187.283 44.0469 186.859 44.1364 186.376 44.1364ZM193.165 44.1364C192.534 44.1364 191.99 43.9972 191.533 43.7188C191.078 43.4375 190.727 43.0455 190.48 42.5426C190.236 42.0369 190.114 41.4489 190.114 40.7784C190.114 40.108 190.236 39.517 190.48 39.0057C190.727 38.4915 191.071 38.0909 191.511 37.804C191.955 37.5142 192.472 37.3693 193.062 37.3693C193.403 37.3693 193.74 37.4261 194.072 37.5398C194.405 37.6534 194.707 37.8381 194.98 38.0938C195.253 38.3466 195.47 38.6818 195.632 39.0994C195.794 39.517 195.875 40.0312 195.875 40.642V41.0682H190.83V40.1989H194.852C194.852 39.8295 194.778 39.5 194.631 39.2102C194.486 38.9205 194.278 38.6918 194.009 38.5241C193.741 38.3565 193.426 38.2727 193.062 38.2727C192.662 38.2727 192.315 38.3722 192.023 38.571C191.733 38.767 191.51 39.0227 191.354 39.3381C191.197 39.6534 191.119 39.9915 191.119 40.3523V40.9318C191.119 41.4261 191.205 41.8452 191.375 42.1889C191.548 42.5298 191.788 42.7898 192.095 42.9688C192.402 43.1449 192.759 43.233 193.165 43.233C193.429 43.233 193.668 43.196 193.881 43.1222C194.097 43.0455 194.283 42.9318 194.439 42.7812C194.595 42.6278 194.716 42.4375 194.801 42.2102L195.773 42.483C195.67 42.8125 195.499 43.1023 195.257 43.3523C195.016 43.5994 194.717 43.7926 194.362 43.9318C194.007 44.0682 193.608 44.1364 193.165 44.1364Z" fill="black"/>
<path d="M103 41L130 16V66L103 41Z" fill="#FF0000"/>
</g>
</svg>
