<svg width="300" height="114" viewBox="0 0 300 114" fill="none" xmlns="http://www.w3.org/2000/svg">
<rect x="1" y="1" width="298" height="112" fill="white"/>
<rect x="1" y="1" width="298" height="112" stroke="black" stroke-width="2"/>
<path d="M31.5 25.5V32.5H16.5V25.5H31.5Z" fill="#FFC936" stroke="black"/>
<path d="M39.0568 33V24.2727H42.108C42.7159 24.2727 43.2173 24.3778 43.6122 24.5881C44.0071 24.7955 44.3011 25.0753 44.4943 25.4276C44.6875 25.777 44.7841 26.1648 44.7841 26.5909C44.7841 26.9659 44.7173 27.2756 44.5838 27.5199C44.4531 27.7642 44.2798 27.9574 44.0639 28.0994C43.8509 28.2415 43.6193 28.3466 43.3693 28.4148V28.5C43.6364 28.517 43.9048 28.6108 44.1747 28.7812C44.4446 28.9517 44.6705 29.196 44.8523 29.5142C45.0341 29.8324 45.125 30.2216 45.125 30.6818C45.125 31.1193 45.0256 31.5128 44.8267 31.8622C44.6278 32.2116 44.3139 32.4886 43.8849 32.6932C43.456 32.8977 42.8977 33 42.2102 33H39.0568ZM40.1136 32.0625H42.2102C42.9006 32.0625 43.3906 31.929 43.6804 31.6619C43.973 31.392 44.1193 31.0653 44.1193 30.6818C44.1193 30.3864 44.044 30.1136 43.8935 29.8636C43.7429 29.6108 43.5284 29.4091 43.25 29.2585C42.9716 29.1051 42.642 29.0284 42.2614 29.0284H40.1136V32.0625ZM40.1136 28.108H42.0739C42.392 28.108 42.679 28.0455 42.9347 27.9205C43.1932 27.7955 43.3977 27.6193 43.5483 27.392C43.7017 27.1648 43.7784 26.8977 43.7784 26.5909C43.7784 26.2074 43.6449 25.8821 43.3778 25.6151C43.1108 25.3452 42.6875 25.2102 42.108 25.2102H40.1136V28.108ZM46.7251 33V26.4545H47.6967V27.4432H47.7649C47.8842 27.1193 48.1001 26.8565 48.4126 26.6548C48.7251 26.4531 49.0774 26.3523 49.4695 26.3523C49.5433 26.3523 49.6357 26.3537 49.7464 26.3565C49.8572 26.3594 49.9411 26.3636 49.9979 26.3693V27.392C49.9638 27.3835 49.8857 27.3707 49.7635 27.3537C49.6442 27.3338 49.5178 27.3239 49.3842 27.3239C49.0661 27.3239 48.782 27.3906 48.532 27.5241C48.2848 27.6548 48.0888 27.8366 47.9439 28.0696C47.8018 28.2997 47.7308 28.5625 47.7308 28.858V33H46.7251ZM53.7351 33.1364C53.1044 33.1364 52.5604 32.9972 52.103 32.7188C51.6484 32.4375 51.2976 32.0455 51.0504 31.5426C50.8061 31.0369 50.6839 30.4489 50.6839 29.7784C50.6839 29.108 50.8061 28.517 51.0504 28.0057C51.2976 27.4915 51.6413 27.0909 52.0817 26.804C52.5249 26.5142 53.0419 26.3693 53.6328 26.3693C53.9737 26.3693 54.3104 26.4261 54.6428 26.5398C54.9751 26.6534 55.2777 26.8381 55.5504 27.0938C55.8232 27.3466 56.0405 27.6818 56.2024 28.0994C56.3643 28.517 56.4453 29.0312 56.4453 29.642V30.0682H51.3999V29.1989H55.4226C55.4226 28.8295 55.3487 28.5 55.201 28.2102C55.0561 27.9205 54.8487 27.6918 54.5788 27.5241C54.3118 27.3565 53.9964 27.2727 53.6328 27.2727C53.2322 27.2727 52.8857 27.3722 52.593 27.571C52.3033 27.767 52.0803 28.0227 51.924 28.3381C51.7678 28.6534 51.6896 28.9915 51.6896 29.3523V29.9318C51.6896 30.4261 51.7749 30.8452 51.9453 31.1889C52.1186 31.5298 52.3587 31.7898 52.6655 31.9688C52.9723 32.1449 53.3288 32.233 53.7351 32.233C53.9993 32.233 54.2379 32.196 54.451 32.1222C54.6669 32.0455 54.853 31.9318 55.0092 31.7812C55.1655 31.6278 55.2862 31.4375 55.3714 31.2102L56.343 31.483C56.2408 31.8125 56.0689 32.1023 55.8274 32.3523C55.5859 32.5994 55.2876 32.7926 54.9325 32.9318C54.5774 33.0682 54.1783 33.1364 53.7351 33.1364ZM59.9013 33.1534C59.4865 33.1534 59.1101 33.0753 58.772 32.919C58.4339 32.7599 58.1655 32.5312 57.9666 32.233C57.7678 31.9318 57.6683 31.5682 57.6683 31.142C57.6683 30.767 57.7422 30.4631 57.8899 30.2301C58.0376 29.9943 58.2351 29.8097 58.4822 29.6761C58.7294 29.5426 59.0021 29.4432 59.3004 29.3778C59.6016 29.3097 59.9041 29.2557 60.2081 29.2159C60.6058 29.1648 60.9283 29.1264 61.1754 29.1009C61.4254 29.0724 61.6072 29.0256 61.7209 28.9602C61.8374 28.8949 61.8956 28.7812 61.8956 28.6193V28.5852C61.8956 28.1648 61.7805 27.8381 61.5504 27.6051C61.3232 27.3722 60.978 27.2557 60.5149 27.2557C60.0348 27.2557 59.6584 27.3608 59.3857 27.571C59.1129 27.7812 58.9212 28.0057 58.8104 28.2443L57.8558 27.9034C58.0263 27.5057 58.2536 27.196 58.5376 26.9744C58.8246 26.75 59.1371 26.5937 59.4751 26.5057C59.8161 26.4148 60.1513 26.3693 60.4808 26.3693C60.6911 26.3693 60.9325 26.3949 61.2053 26.446C61.4808 26.4943 61.7464 26.5952 62.0021 26.7486C62.2607 26.902 62.4751 27.1335 62.6456 27.4432C62.8161 27.7528 62.9013 28.1676 62.9013 28.6875V33H61.8956V32.1136H61.8445C61.7763 32.2557 61.6626 32.4077 61.5036 32.5696C61.3445 32.7315 61.1328 32.8693 60.8686 32.983C60.6044 33.0966 60.282 33.1534 59.9013 33.1534ZM60.0547 32.25C60.4524 32.25 60.7876 32.1719 61.0604 32.0156C61.3359 31.8594 61.5433 31.6577 61.6825 31.4105C61.8246 31.1634 61.8956 30.9034 61.8956 30.6307V29.7102C61.853 29.7614 61.7592 29.8082 61.6143 29.8509C61.4723 29.8906 61.3075 29.9261 61.12 29.9574C60.9354 29.9858 60.755 30.0114 60.5788 30.0341C60.4055 30.054 60.2649 30.071 60.157 30.0852C59.8956 30.1193 59.6513 30.1747 59.424 30.2514C59.1996 30.3253 59.0178 30.4375 58.8786 30.5881C58.7422 30.7358 58.674 30.9375 58.674 31.1932C58.674 31.5426 58.8033 31.8068 59.0618 31.9858C59.3232 32.1619 59.6541 32.25 60.0547 32.25ZM65.6744 30.6136L65.6573 29.3693H65.8619L68.7255 26.4545H69.9698L66.9187 29.5398H66.8335L65.6744 30.6136ZM64.7369 33V24.2727H65.7425V33H64.7369ZM68.896 33L66.3391 29.7614L67.055 29.0625L70.1744 33H68.896ZM74.179 26.4545V27.3068H70.6506V26.4545H74.179ZM71.7074 33V25.5511C71.7074 25.1761 71.7955 24.8636 71.9716 24.6136C72.1477 24.3636 72.3764 24.1761 72.6577 24.0511C72.9389 23.9261 73.2358 23.8636 73.5483 23.8636C73.7955 23.8636 73.9972 23.8835 74.1534 23.9233C74.3097 23.9631 74.4261 24 74.5028 24.0341L74.2131 24.9034C74.1619 24.8864 74.0909 24.8651 74 24.8395C73.9119 24.8139 73.7955 24.8011 73.6506 24.8011C73.3182 24.8011 73.0781 24.8849 72.9304 25.0526C72.7855 25.2202 72.7131 25.4659 72.7131 25.7898V33H71.7074ZM77.3271 33.1534C76.9123 33.1534 76.5359 33.0753 76.1978 32.919C75.8597 32.7599 75.5913 32.5312 75.3924 32.233C75.1935 31.9318 75.0941 31.5682 75.0941 31.142C75.0941 30.767 75.168 30.4631 75.3157 30.2301C75.4634 29.9943 75.6609 29.8097 75.908 29.6761C76.1552 29.5426 76.4279 29.4432 76.7262 29.3778C77.0273 29.3097 77.3299 29.2557 77.6339 29.2159C78.0316 29.1648 78.354 29.1264 78.6012 29.1009C78.8512 29.0724 79.033 29.0256 79.1467 28.9602C79.2631 28.8949 79.3214 28.7812 79.3214 28.6193V28.5852C79.3214 28.1648 79.2063 27.8381 78.9762 27.6051C78.7489 27.3722 78.4038 27.2557 77.9407 27.2557C77.4606 27.2557 77.0842 27.3608 76.8114 27.571C76.5387 27.7812 76.3469 28.0057 76.2362 28.2443L75.2816 27.9034C75.4521 27.5057 75.6793 27.196 75.9634 26.9744C76.2504 26.75 76.5629 26.5937 76.9009 26.5057C77.2418 26.4148 77.5771 26.3693 77.9066 26.3693C78.1168 26.3693 78.3583 26.3949 78.631 26.446C78.9066 26.4943 79.1722 26.5952 79.4279 26.7486C79.6864 26.902 79.9009 27.1335 80.0714 27.4432C80.2418 27.7528 80.3271 28.1676 80.3271 28.6875V33H79.3214V32.1136H79.2702C79.2021 32.2557 79.0884 32.4077 78.9293 32.5696C78.7702 32.7315 78.5586 32.8693 78.2944 32.983C78.0302 33.0966 77.7077 33.1534 77.3271 33.1534ZM77.4805 32.25C77.8782 32.25 78.2134 32.1719 78.4862 32.0156C78.7617 31.8594 78.9691 31.6577 79.1083 31.4105C79.2504 31.1634 79.3214 30.9034 79.3214 30.6307V29.7102C79.2788 29.7614 79.185 29.8082 79.0401 29.8509C78.8981 29.8906 78.7333 29.9261 78.5458 29.9574C78.3612 29.9858 78.1808 30.0114 78.0046 30.0341C77.8313 30.054 77.6907 30.071 77.5827 30.0852C77.3214 30.1193 77.0771 30.1747 76.8498 30.2514C76.6254 30.3253 76.4435 30.4375 76.3043 30.5881C76.168 30.7358 76.0998 30.9375 76.0998 31.1932C76.0998 31.5426 76.229 31.8068 76.4876 31.9858C76.7489 32.1619 77.0799 32.25 77.4805 32.25ZM86.799 27.9205L85.8956 28.1761C85.8388 28.0256 85.755 27.8793 85.6442 27.7372C85.5362 27.5923 85.3885 27.473 85.201 27.3793C85.0135 27.2855 84.7734 27.2386 84.4808 27.2386C84.0803 27.2386 83.7464 27.331 83.4794 27.5156C83.2152 27.6974 83.0831 27.929 83.0831 28.2102C83.0831 28.4602 83.174 28.6577 83.3558 28.8026C83.5376 28.9474 83.8217 29.0682 84.2081 29.1648L85.1797 29.4034C85.7649 29.5455 86.201 29.7628 86.4879 30.0554C86.7749 30.3452 86.9183 30.7187 86.9183 31.1761C86.9183 31.5511 86.8104 31.8864 86.5945 32.1818C86.3814 32.4773 86.0831 32.7102 85.6996 32.8807C85.3161 33.0511 84.87 33.1364 84.3615 33.1364C83.6939 33.1364 83.1413 32.9915 82.7038 32.7017C82.2663 32.4119 81.9893 31.9886 81.8729 31.4318L82.8274 31.1932C82.9183 31.5455 83.0902 31.8097 83.343 31.9858C83.5987 32.1619 83.9325 32.25 84.3445 32.25C84.8132 32.25 85.1854 32.1506 85.4609 31.9517C85.7393 31.75 85.8786 31.5085 85.8786 31.2273C85.8786 31 85.799 30.8097 85.6399 30.6562C85.4808 30.5 85.2365 30.3835 84.907 30.3068L83.8161 30.0511C83.2166 29.9091 82.7763 29.6889 82.495 29.3906C82.2166 29.0895 82.0774 28.7131 82.0774 28.2614C82.0774 27.892 82.1811 27.5653 82.3885 27.2812C82.5987 26.9972 82.8842 26.7741 83.245 26.6122C83.6087 26.4503 84.0206 26.3693 84.4808 26.3693C85.1286 26.3693 85.6371 26.5114 86.0064 26.7955C86.3786 27.0795 86.6428 27.4545 86.799 27.9205ZM91.2788 26.4545V27.3068H87.8867V26.4545H91.2788ZM88.8754 24.8864H89.881V31.125C89.881 31.4091 89.9222 31.6222 90.0046 31.7642C90.0898 31.9034 90.1978 31.9972 90.3285 32.0455C90.462 32.0909 90.6026 32.1136 90.7504 32.1136C90.8612 32.1136 90.9521 32.108 91.0231 32.0966C91.0941 32.0824 91.1509 32.071 91.1935 32.0625L91.3981 32.9659C91.3299 32.9915 91.2347 33.017 91.1126 33.0426C90.9904 33.071 90.8356 33.0852 90.6481 33.0852C90.364 33.0852 90.0856 33.0241 89.8129 32.902C89.543 32.7798 89.3185 32.5938 89.1396 32.3438C88.9634 32.0938 88.8754 31.7784 88.8754 31.3977V24.8864ZM96.1665 33V26.4545H97.1722V33H96.1665ZM96.6779 25.3636C96.4819 25.3636 96.3129 25.2969 96.1708 25.1634C96.0316 25.0298 95.962 24.8693 95.962 24.6818C95.962 24.4943 96.0316 24.3338 96.1708 24.2003C96.3129 24.0668 96.4819 24 96.6779 24C96.8739 24 97.0415 24.0668 97.1808 24.2003C97.3228 24.3338 97.3938 24.4943 97.3938 24.6818C97.3938 24.8693 97.3228 25.0298 97.1808 25.1634C97.0415 25.2969 96.8739 25.3636 96.6779 25.3636ZM103.651 27.9205L102.747 28.1761C102.69 28.0256 102.607 27.8793 102.496 27.7372C102.388 27.5923 102.24 27.473 102.053 27.3793C101.865 27.2855 101.625 27.2386 101.332 27.2386C100.932 27.2386 100.598 27.331 100.331 27.5156C100.067 27.6974 99.9347 27.929 99.9347 28.2102C99.9347 28.4602 100.026 28.6577 100.207 28.8026C100.389 28.9474 100.673 29.0682 101.06 29.1648L102.031 29.4034C102.616 29.5455 103.053 29.7628 103.339 30.0554C103.626 30.3452 103.77 30.7187 103.77 31.1761C103.77 31.5511 103.662 31.8864 103.446 32.1818C103.233 32.4773 102.935 32.7102 102.551 32.8807C102.168 33.0511 101.722 33.1364 101.213 33.1364C100.545 33.1364 99.9929 32.9915 99.5554 32.7017C99.1179 32.4119 98.8409 31.9886 98.7244 31.4318L99.679 31.1932C99.7699 31.5455 99.9418 31.8097 100.195 31.9858C100.45 32.1619 100.784 32.25 101.196 32.25C101.665 32.25 102.037 32.1506 102.312 31.9517C102.591 31.75 102.73 31.5085 102.73 31.2273C102.73 31 102.651 30.8097 102.491 30.6562C102.332 30.5 102.088 30.3835 101.759 30.3068L100.668 30.0511C100.068 29.9091 99.6278 29.6889 99.3466 29.3906C99.0682 29.0895 98.929 28.7131 98.929 28.2614C98.929 27.892 99.0327 27.5653 99.2401 27.2812C99.4503 26.9972 99.7358 26.7741 100.097 26.6122C100.46 26.4503 100.872 26.3693 101.332 26.3693C101.98 26.3693 102.489 26.5114 102.858 26.7955C103.23 27.0795 103.494 27.4545 103.651 27.9205ZM111.574 26.4545V27.3068H108.045V26.4545H111.574ZM109.102 33V25.5511C109.102 25.1761 109.19 24.8636 109.366 24.6136C109.542 24.3636 109.771 24.1761 110.052 24.0511C110.333 23.9261 110.63 23.8636 110.943 23.8636C111.19 23.8636 111.392 23.8835 111.548 23.9233C111.704 23.9631 111.821 24 111.897 24.0341L111.608 24.9034C111.556 24.8864 111.485 24.8651 111.395 24.8395C111.306 24.8139 111.19 24.8011 111.045 24.8011C110.713 24.8011 110.473 24.8849 110.325 25.0526C110.18 25.2202 110.108 25.4659 110.108 25.7898V33H109.102ZM112.983 33V26.4545H113.955V27.4432H114.023C114.142 27.1193 114.358 26.8565 114.67 26.6548C114.983 26.4531 115.335 26.3523 115.727 26.3523C115.801 26.3523 115.893 26.3537 116.004 26.3565C116.115 26.3594 116.199 26.3636 116.256 26.3693V27.392C116.222 27.3835 116.143 27.3707 116.021 27.3537C115.902 27.3338 115.776 27.3239 115.642 27.3239C115.324 27.3239 115.04 27.3906 114.79 27.5241C114.543 27.6548 114.347 27.8366 114.202 28.0696C114.06 28.2997 113.989 28.5625 113.989 28.858V33H112.983ZM119.908 33.1364C119.317 33.1364 118.798 32.9957 118.352 32.7145C117.909 32.4332 117.562 32.0398 117.312 31.5341C117.065 31.0284 116.942 30.4375 116.942 29.7614C116.942 29.0795 117.065 28.4844 117.312 27.9759C117.562 27.4673 117.909 27.0724 118.352 26.7912C118.798 26.5099 119.317 26.3693 119.908 26.3693C120.499 26.3693 121.016 26.5099 121.459 26.7912C121.905 27.0724 122.251 27.4673 122.499 27.9759C122.749 28.4844 122.874 29.0795 122.874 29.7614C122.874 30.4375 122.749 31.0284 122.499 31.5341C122.251 32.0398 121.905 32.4332 121.459 32.7145C121.016 32.9957 120.499 33.1364 119.908 33.1364ZM119.908 32.233C120.357 32.233 120.726 32.1179 121.016 31.8878C121.305 31.6577 121.52 31.3551 121.659 30.9801C121.798 30.6051 121.868 30.1989 121.868 29.7614C121.868 29.3239 121.798 28.9162 121.659 28.5384C121.52 28.1605 121.305 27.8551 121.016 27.6222C120.726 27.3892 120.357 27.2727 119.908 27.2727C119.459 27.2727 119.089 27.3892 118.8 27.6222C118.51 27.8551 118.295 28.1605 118.156 28.5384C118.017 28.9162 117.947 29.3239 117.947 29.7614C117.947 30.1989 118.017 30.6051 118.156 30.9801C118.295 31.3551 118.51 31.6577 118.8 31.8878C119.089 32.1179 119.459 32.233 119.908 32.233ZM124.409 33V26.4545H125.38V27.4773H125.466C125.602 27.1278 125.822 26.8565 126.126 26.6634C126.43 26.4673 126.795 26.3693 127.221 26.3693C127.653 26.3693 128.012 26.4673 128.299 26.6634C128.589 26.8565 128.815 27.1278 128.977 27.4773H129.045C129.213 27.1392 129.464 26.8707 129.799 26.6719C130.135 26.4702 130.537 26.3693 131.005 26.3693C131.591 26.3693 132.069 26.5526 132.441 26.919C132.814 27.2827 133 27.8494 133 28.6193V33H131.994V28.6193C131.994 28.1364 131.862 27.7912 131.598 27.5838C131.333 27.3764 131.022 27.2727 130.664 27.2727C130.204 27.2727 129.848 27.4119 129.595 27.6903C129.342 27.9659 129.216 28.3153 129.216 28.7386V33H128.193V28.517C128.193 28.1449 128.072 27.8452 127.831 27.6179C127.589 27.3878 127.278 27.2727 126.897 27.2727C126.636 27.2727 126.392 27.3423 126.164 27.4815C125.94 27.6207 125.758 27.8139 125.619 28.0611C125.483 28.3054 125.414 28.5881 125.414 28.9091V33H124.409ZM141.256 33.1193C140.6 33.1193 140.016 33.0128 139.505 32.7997C138.996 32.5838 138.597 32.2898 138.307 31.9176C138.017 31.5455 137.873 31.1236 137.873 30.652C137.873 30.2884 137.955 29.9545 138.12 29.6506C138.287 29.3438 138.515 29.0895 138.801 28.8878C139.088 28.6832 139.409 28.5526 139.765 28.4957V28.4361C139.299 28.3423 138.921 28.1165 138.631 27.7585C138.341 27.3977 138.196 26.9787 138.196 26.5014C138.196 26.0497 138.328 25.6477 138.593 25.2955C138.857 24.9403 139.219 24.6619 139.679 24.4602C140.142 24.2557 140.668 24.1534 141.256 24.1534C141.844 24.1534 142.368 24.2557 142.828 24.4602C143.292 24.6648 143.655 24.9446 143.919 25.2997C144.184 25.652 144.317 26.0526 144.32 26.5014C144.317 26.9815 144.169 27.4006 143.877 27.7585C143.584 28.1165 143.209 28.3423 142.752 28.4361V28.4957C143.101 28.5526 143.418 28.6832 143.702 28.8878C143.989 29.0895 144.216 29.3438 144.384 29.6506C144.554 29.9545 144.641 30.2884 144.644 30.652C144.641 31.1236 144.495 31.5455 144.205 31.9176C143.915 32.2898 143.515 32.5838 143.003 32.7997C142.495 33.0128 141.912 33.1193 141.256 33.1193ZM141.256 31.7642C141.549 31.7642 141.804 31.7116 142.023 31.6065C142.242 31.4986 142.412 31.3509 142.534 31.1634C142.659 30.973 142.722 30.7543 142.722 30.5071C142.722 30.2543 142.658 30.0312 142.53 29.8381C142.402 29.642 142.229 29.4886 142.01 29.3778C141.792 29.2642 141.54 29.2074 141.256 29.2074C140.975 29.2074 140.723 29.2642 140.502 29.3778C140.28 29.4886 140.105 29.642 139.978 29.8381C139.853 30.0312 139.79 30.2543 139.79 30.5071C139.79 30.7543 139.851 30.973 139.973 31.1634C140.096 31.3509 140.267 31.4986 140.489 31.6065C140.711 31.7116 140.966 31.7642 141.256 31.7642ZM141.256 27.8651C141.5 27.8651 141.718 27.8153 141.908 27.7159C142.098 27.6165 142.248 27.4787 142.355 27.3026C142.463 27.1264 142.517 26.9233 142.517 26.6932C142.517 26.4659 142.463 26.267 142.355 26.0966C142.248 25.9233 142.1 25.7884 141.912 25.6918C141.725 25.5923 141.506 25.5426 141.256 25.5426C141.009 25.5426 140.79 25.5923 140.6 25.6918C140.409 25.7884 140.26 25.9233 140.152 26.0966C140.047 26.267 139.995 26.4659 139.995 26.6932C139.995 26.9233 140.049 27.1264 140.157 27.3026C140.265 27.4787 140.414 27.6165 140.604 27.7159C140.794 27.8153 141.012 27.8651 141.256 27.8651ZM147.012 31.9858C146.731 31.9858 146.489 31.8864 146.288 31.6875C146.089 31.4886 145.989 31.2472 145.989 30.9631C145.989 30.6847 146.089 30.446 146.288 30.2472C146.489 30.0483 146.731 29.9489 147.012 29.9489C147.285 29.9489 147.523 30.0483 147.728 30.2472C147.933 30.446 148.035 30.6847 148.035 30.9631C148.035 31.1506 147.987 31.3224 147.89 31.4787C147.796 31.6321 147.673 31.7557 147.519 31.8494C147.366 31.9403 147.197 31.9858 147.012 31.9858ZM147.012 27.7031C146.731 27.7031 146.489 27.6037 146.288 27.4048C146.089 27.206 145.989 26.9645 145.989 26.6804C145.989 26.402 146.089 26.1648 146.288 25.9688C146.489 25.7699 146.731 25.6705 147.012 25.6705C147.285 25.6705 147.523 25.7699 147.728 25.9688C147.933 26.1648 148.035 26.402 148.035 26.6804C148.035 26.8707 147.987 27.044 147.89 27.2003C147.796 27.3537 147.673 27.4759 147.519 27.5668C147.366 27.6577 147.197 27.7031 147.012 27.7031ZM149.376 31.4659V30.0128L153.02 24.2727H154.272V26.2841H153.531L151.234 29.919V29.9872H156.412V31.4659H149.376ZM153.565 33V31.0227L153.599 30.3793V24.2727H155.329V33H153.565ZM160.828 33.1193C160.226 33.1193 159.689 33.0085 159.218 32.7869C158.749 32.5653 158.377 32.2599 158.101 31.8707C157.826 31.4815 157.682 31.0355 157.671 30.5327H159.461C159.48 30.8707 159.623 31.1449 159.887 31.3551C160.151 31.5653 160.465 31.6705 160.828 31.6705C161.118 31.6705 161.374 31.6065 161.596 31.4787C161.82 31.348 161.995 31.1676 162.12 30.9375C162.248 30.7045 162.311 30.4375 162.311 30.1364C162.311 29.8295 162.246 29.5597 162.115 29.3267C161.988 29.0937 161.81 28.9119 161.583 28.7812C161.355 28.6506 161.096 28.5838 160.803 28.581C160.547 28.581 160.299 28.6335 160.057 28.7386C159.819 28.8437 159.632 28.9872 159.499 29.169L157.858 28.875L158.272 24.2727H163.607V25.7812H159.793L159.567 27.9673H159.618C159.772 27.7514 160.003 27.5724 160.313 27.4304C160.623 27.2884 160.969 27.2173 161.353 27.2173C161.878 27.2173 162.347 27.3409 162.759 27.5881C163.171 27.8352 163.496 28.1747 163.735 28.6065C163.973 29.0355 164.091 29.5298 164.088 30.0895C164.091 30.6776 163.955 31.2003 163.679 31.6577C163.407 32.1122 163.025 32.4702 162.533 32.7315C162.044 32.9901 161.476 33.1193 160.828 33.1193ZM169.471 27.9162V29.3565H165.49V27.9162H169.471ZM174.797 24.2727V33H172.952V26.0241H172.901L170.902 27.277V25.6406L173.063 24.2727H174.797ZM180.293 33.1918C179.56 33.1889 178.93 33.0085 178.401 32.6506C177.876 32.2926 177.471 31.7741 177.187 31.0952C176.906 30.4162 176.766 29.5994 176.769 28.6449C176.769 27.6932 176.91 26.8821 177.191 26.2116C177.475 25.5412 177.88 25.0312 178.406 24.6818C178.934 24.3295 179.563 24.1534 180.293 24.1534C181.023 24.1534 181.651 24.3295 182.177 24.6818C182.705 25.0341 183.112 25.5455 183.396 26.2159C183.68 26.8835 183.82 27.6932 183.817 28.6449C183.817 29.6023 183.675 30.4205 183.391 31.0994C183.11 31.7784 182.707 32.2969 182.181 32.6548C181.656 33.0128 181.026 33.1918 180.293 33.1918ZM180.293 31.6619C180.793 31.6619 181.192 31.4105 181.491 30.9077C181.789 30.4048 181.937 29.6506 181.934 28.6449C181.934 27.983 181.866 27.4318 181.729 26.9915C181.596 26.5511 181.406 26.2202 181.158 25.9986C180.914 25.777 180.626 25.6662 180.293 25.6662C179.796 25.6662 179.398 25.9148 179.1 26.4119C178.802 26.9091 178.651 27.6534 178.648 28.6449C178.648 29.3153 178.715 29.875 178.849 30.3239C178.985 30.7699 179.177 31.1051 179.424 31.3295C179.671 31.5511 179.961 31.6619 180.293 31.6619ZM186.211 31.9858C185.93 31.9858 185.689 31.8864 185.487 31.6875C185.288 31.4886 185.189 31.2472 185.189 30.9631C185.189 30.6847 185.288 30.446 185.487 30.2472C185.689 30.0483 185.93 29.9489 186.211 29.9489C186.484 29.9489 186.723 30.0483 186.927 30.2472C187.132 30.446 187.234 30.6847 187.234 30.9631C187.234 31.1506 187.186 31.3224 187.089 31.4787C186.995 31.6321 186.872 31.7557 186.718 31.8494C186.565 31.9403 186.396 31.9858 186.211 31.9858ZM186.211 27.7031C185.93 27.7031 185.689 27.6037 185.487 27.4048C185.288 27.206 185.189 26.9645 185.189 26.6804C185.189 26.402 185.288 26.1648 185.487 25.9688C185.689 25.7699 185.93 25.6705 186.211 25.6705C186.484 25.6705 186.723 25.7699 186.927 25.9688C187.132 26.1648 187.234 26.402 187.234 26.6804C187.234 26.8707 187.186 27.044 187.089 27.2003C186.995 27.3537 186.872 27.4759 186.718 27.5668C186.565 27.6577 186.396 27.7031 186.211 27.7031ZM192.129 33.1918C191.396 33.1889 190.766 33.0085 190.237 32.6506C189.712 32.2926 189.307 31.7741 189.023 31.0952C188.741 30.4162 188.602 29.5994 188.605 28.6449C188.605 27.6932 188.746 26.8821 189.027 26.2116C189.311 25.5412 189.716 25.0312 190.241 24.6818C190.77 24.3295 191.399 24.1534 192.129 24.1534C192.859 24.1534 193.487 24.3295 194.013 24.6818C194.541 25.0341 194.947 25.5455 195.232 26.2159C195.516 26.8835 195.656 27.6932 195.653 28.6449C195.653 29.6023 195.511 30.4205 195.227 31.0994C194.946 31.7784 194.543 32.2969 194.017 32.6548C193.491 33.0128 192.862 33.1918 192.129 33.1918ZM192.129 31.6619C192.629 31.6619 193.028 31.4105 193.327 30.9077C193.625 30.4048 193.773 29.6506 193.77 28.6449C193.77 27.983 193.702 27.4318 193.565 26.9915C193.432 26.5511 193.241 26.2202 192.994 25.9986C192.75 25.777 192.462 25.6662 192.129 25.6662C191.632 25.6662 191.234 25.9148 190.936 26.4119C190.638 26.9091 190.487 27.6534 190.484 28.6449C190.484 29.3153 190.551 29.875 190.685 30.3239C190.821 30.7699 191.013 31.1051 191.26 31.3295C191.507 31.5511 191.797 31.6619 192.129 31.6619ZM200.391 33.1918C199.658 33.1889 199.027 33.0085 198.499 32.6506C197.973 32.2926 197.569 31.7741 197.284 31.0952C197.003 30.4162 196.864 29.5994 196.867 28.6449C196.867 27.6932 197.007 26.8821 197.289 26.2116C197.573 25.5412 197.978 25.0312 198.503 24.6818C199.032 24.3295 199.661 24.1534 200.391 24.1534C201.121 24.1534 201.749 24.3295 202.275 24.6818C202.803 25.0341 203.209 25.5455 203.493 26.2159C203.777 26.8835 203.918 27.6932 203.915 28.6449C203.915 29.6023 203.773 30.4205 203.489 31.0994C203.208 31.7784 202.804 32.2969 202.279 32.6548C201.753 33.0128 201.124 33.1918 200.391 33.1918ZM200.391 31.6619C200.891 31.6619 201.29 31.4105 201.588 30.9077C201.887 30.4048 202.034 29.6506 202.032 28.6449C202.032 27.983 201.963 27.4318 201.827 26.9915C201.694 26.5511 201.503 26.2202 201.256 25.9986C201.012 25.777 200.723 25.6662 200.391 25.6662C199.894 25.6662 199.496 25.9148 199.198 26.4119C198.9 26.9091 198.749 27.6534 198.746 28.6449C198.746 29.3153 198.813 29.875 198.946 30.3239C199.083 30.7699 199.275 31.1051 199.522 31.3295C199.769 31.5511 200.059 31.6619 200.391 31.6619ZM206.786 33H204.809L207.822 24.2727H210.2L213.208 33H211.231L209.045 26.267H208.977L206.786 33ZM206.663 29.5696H211.333V31.0099H206.663V29.5696ZM214.259 24.2727H216.534L218.938 30.1364H219.04L221.443 24.2727H223.719V33H221.929V27.3196H221.857L219.598 32.9574H218.379L216.121 27.2983H216.048V33H214.259V24.2727Z" fill="#111111"/>
<path d="M31.5 46.5V53.5H16.5V46.5H31.5Z" fill="#FF8136" stroke="black"/>
<path d="M39.0568 54V45.2727H44.2898V46.2102H40.1136V49.1591H43.8977V50.0966H40.1136V54H39.0568ZM48.142 54.1364C47.5511 54.1364 47.0327 53.9957 46.5866 53.7145C46.1435 53.4332 45.7969 53.0398 45.5469 52.5341C45.2997 52.0284 45.1761 51.4375 45.1761 50.7614C45.1761 50.0795 45.2997 49.4844 45.5469 48.9759C45.7969 48.4673 46.1435 48.0724 46.5866 47.7912C47.0327 47.5099 47.5511 47.3693 48.142 47.3693C48.733 47.3693 49.25 47.5099 49.6932 47.7912C50.1392 48.0724 50.4858 48.4673 50.733 48.9759C50.983 49.4844 51.108 50.0795 51.108 50.7614C51.108 51.4375 50.983 52.0284 50.733 52.5341C50.4858 53.0398 50.1392 53.4332 49.6932 53.7145C49.25 53.9957 48.733 54.1364 48.142 54.1364ZM48.142 53.233C48.5909 53.233 48.9602 53.1179 49.25 52.8878C49.5398 52.6577 49.7543 52.3551 49.8935 51.9801C50.0327 51.6051 50.1023 51.1989 50.1023 50.7614C50.1023 50.3239 50.0327 49.9162 49.8935 49.5384C49.7543 49.1605 49.5398 48.8551 49.25 48.6222C48.9602 48.3892 48.5909 48.2727 48.142 48.2727C47.6932 48.2727 47.3239 48.3892 47.0341 48.6222C46.7443 48.8551 46.5298 49.1605 46.3906 49.5384C46.2514 49.9162 46.1818 50.3239 46.1818 50.7614C46.1818 51.1989 46.2514 51.6051 46.3906 51.9801C46.5298 52.3551 46.7443 52.6577 47.0341 52.8878C47.3239 53.1179 47.6932 53.233 48.142 53.233ZM55.3022 54.1364C54.7113 54.1364 54.1928 53.9957 53.7468 53.7145C53.3036 53.4332 52.957 53.0398 52.707 52.5341C52.4599 52.0284 52.3363 51.4375 52.3363 50.7614C52.3363 50.0795 52.4599 49.4844 52.707 48.9759C52.957 48.4673 53.3036 48.0724 53.7468 47.7912C54.1928 47.5099 54.7113 47.3693 55.3022 47.3693C55.8931 47.3693 56.4102 47.5099 56.8533 47.7912C57.2994 48.0724 57.646 48.4673 57.8931 48.9759C58.1431 49.4844 58.2681 50.0795 58.2681 50.7614C58.2681 51.4375 58.1431 52.0284 57.8931 52.5341C57.646 53.0398 57.2994 53.4332 56.8533 53.7145C56.4102 53.9957 55.8931 54.1364 55.3022 54.1364ZM55.3022 53.233C55.7511 53.233 56.1204 53.1179 56.4102 52.8878C56.6999 52.6577 56.9144 52.3551 57.0536 51.9801C57.1928 51.6051 57.2624 51.1989 57.2624 50.7614C57.2624 50.3239 57.1928 49.9162 57.0536 49.5384C56.9144 49.1605 56.6999 48.8551 56.4102 48.6222C56.1204 48.3892 55.7511 48.2727 55.3022 48.2727C54.8533 48.2727 54.484 48.3892 54.1942 48.6222C53.9045 48.8551 53.69 49.1605 53.5508 49.5384C53.4116 49.9162 53.342 50.3239 53.342 50.7614C53.342 51.1989 53.4116 51.6051 53.5508 51.9801C53.69 52.3551 53.9045 52.6577 54.1942 52.8878C54.484 53.1179 54.8533 53.233 55.3022 53.233ZM62.2749 54.1364C61.7294 54.1364 61.2479 53.9986 60.8303 53.723C60.4126 53.4446 60.0859 53.0526 59.8501 52.5469C59.6143 52.0384 59.4964 51.4375 59.4964 50.7443C59.4964 50.0568 59.6143 49.4602 59.8501 48.9545C60.0859 48.4489 60.4141 48.0582 60.8345 47.7827C61.255 47.5071 61.7408 47.3693 62.2919 47.3693C62.718 47.3693 63.0547 47.4403 63.3018 47.5824C63.5518 47.7216 63.7422 47.8807 63.8729 48.0597C64.0064 48.2358 64.1101 48.3807 64.1839 48.4943H64.2692V45.2727H65.2749V54H64.3033V52.9943H64.1839C64.1101 53.1136 64.005 53.2642 63.8686 53.446C63.7322 53.625 63.5376 53.7855 63.2848 53.9276C63.032 54.0668 62.6953 54.1364 62.2749 54.1364ZM62.4112 53.233C62.8146 53.233 63.1555 53.1278 63.4339 52.9176C63.7124 52.7045 63.924 52.4105 64.0689 52.0355C64.2138 51.6577 64.2862 51.2216 64.2862 50.7273C64.2862 50.2386 64.2152 49.8111 64.0732 49.4446C63.9311 49.0753 63.7209 48.7884 63.4425 48.5838C63.1641 48.3764 62.8203 48.2727 62.4112 48.2727C61.9851 48.2727 61.63 48.3821 61.3459 48.6009C61.0646 48.8168 60.853 49.1108 60.7109 49.483C60.5717 49.8523 60.5021 50.267 60.5021 50.7273C60.5021 51.1932 60.5732 51.6165 60.7152 51.9972C60.8601 52.375 61.0732 52.6761 61.3544 52.9006C61.6385 53.1222 61.9908 53.233 62.4112 53.233ZM75.2678 48.9205L74.3643 49.1761C74.3075 49.0256 74.2237 48.8793 74.1129 48.7372C74.005 48.5923 73.8572 48.473 73.6697 48.3793C73.4822 48.2855 73.2422 48.2386 72.9496 48.2386C72.549 48.2386 72.2152 48.331 71.9482 48.5156C71.6839 48.6974 71.5518 48.929 71.5518 49.2102C71.5518 49.4602 71.6428 49.6577 71.8246 49.8026C72.0064 49.9474 72.2905 50.0682 72.6768 50.1648L73.6484 50.4034C74.2337 50.5455 74.6697 50.7628 74.9567 51.0554C75.2436 51.3452 75.3871 51.7187 75.3871 52.1761C75.3871 52.5511 75.2791 52.8864 75.0632 53.1818C74.8501 53.4773 74.5518 53.7102 74.1683 53.8807C73.7848 54.0511 73.3388 54.1364 72.8303 54.1364C72.1626 54.1364 71.6101 53.9915 71.1726 53.7017C70.7351 53.4119 70.4581 52.9886 70.3416 52.4318L71.2962 52.1932C71.3871 52.5455 71.5589 52.8097 71.8118 52.9858C72.0675 53.1619 72.4013 53.25 72.8132 53.25C73.282 53.25 73.6541 53.1506 73.9297 52.9517C74.2081 52.75 74.3473 52.5085 74.3473 52.2273C74.3473 52 74.2678 51.8097 74.1087 51.6562C73.9496 51.5 73.7053 51.3835 73.3757 51.3068L72.2848 51.0511C71.6854 50.9091 71.245 50.6889 70.9638 50.3906C70.6854 50.0895 70.5462 49.7131 70.5462 49.2614C70.5462 48.892 70.6499 48.5653 70.8572 48.2812C71.0675 47.9972 71.353 47.7741 71.7138 47.6122C72.0774 47.4503 72.4893 47.3693 72.9496 47.3693C73.5973 47.3693 74.1058 47.5114 74.4751 47.7955C74.8473 48.0795 75.1115 48.4545 75.2678 48.9205ZM79.6452 54.1364C79.0146 54.1364 78.4705 53.9972 78.0131 53.7188C77.5586 53.4375 77.2077 53.0455 76.9606 52.5426C76.7163 52.0369 76.5941 51.4489 76.5941 50.7784C76.5941 50.108 76.7163 49.517 76.9606 49.0057C77.2077 48.4915 77.5515 48.0909 77.9918 47.804C78.435 47.5142 78.9521 47.3693 79.543 47.3693C79.8839 47.3693 80.2205 47.4261 80.5529 47.5398C80.8853 47.6534 81.1879 47.8381 81.4606 48.0938C81.7333 48.3466 81.9506 48.6818 82.1126 49.0994C82.2745 49.517 82.3555 50.0312 82.3555 50.642V51.0682H77.31V50.1989H81.3327C81.3327 49.8295 81.2589 49.5 81.1112 49.2102C80.9663 48.9205 80.7589 48.6918 80.489 48.5241C80.2219 48.3565 79.9066 48.2727 79.543 48.2727C79.1424 48.2727 78.7958 48.3722 78.5032 48.571C78.2134 48.767 77.9904 49.0227 77.8342 49.3381C77.6779 49.6534 77.5998 49.9915 77.5998 50.3523V50.9318C77.5998 51.4261 77.685 51.8452 77.8555 52.1889C78.0288 52.5298 78.2688 52.7898 78.5756 52.9688C78.8825 53.1449 79.239 53.233 79.6452 53.233C79.9094 53.233 80.1481 53.196 80.3612 53.1222C80.5771 53.0455 80.7631 52.9318 80.9194 52.7812C81.0756 52.6278 81.1964 52.4375 81.2816 52.2102L82.2532 52.483C82.1509 52.8125 81.979 53.1023 81.7376 53.3523C81.4961 53.5994 81.1978 53.7926 80.8427 53.9318C80.4876 54.0682 80.0884 54.1364 79.6452 54.1364ZM83.8853 54V47.4545H84.8569V48.4432H84.9251C85.0444 48.1193 85.2603 47.8565 85.5728 47.6548C85.8853 47.4531 86.2376 47.3523 86.6296 47.3523C86.7035 47.3523 86.7958 47.3537 86.9066 47.3565C87.0174 47.3594 87.1012 47.3636 87.158 47.3693V48.392C87.1239 48.3835 87.0458 48.3707 86.9237 48.3537C86.8043 48.3338 86.6779 48.3239 86.5444 48.3239C86.2262 48.3239 85.9421 48.3906 85.6921 48.5241C85.445 48.6548 85.2489 48.8366 85.104 49.0696C84.962 49.2997 84.891 49.5625 84.891 49.858V54H83.8853ZM93.9016 47.4545L91.4812 54H90.4585L88.038 47.4545H89.1289L90.9357 52.6705H91.0039L92.8107 47.4545H93.9016ZM95.229 54V47.4545H96.2347V54H95.229ZM95.7404 46.3636C95.5444 46.3636 95.3754 46.2969 95.2333 46.1634C95.0941 46.0298 95.0245 45.8693 95.0245 45.6818C95.0245 45.4943 95.0941 45.3338 95.2333 45.2003C95.3754 45.0668 95.5444 45 95.7404 45C95.9364 45 96.104 45.0668 96.2433 45.2003C96.3853 45.3338 96.4563 45.4943 96.4563 45.6818C96.4563 45.8693 96.3853 46.0298 96.2433 46.1634C96.104 46.2969 95.9364 46.3636 95.7404 46.3636ZM100.736 54.1364C100.122 54.1364 99.5938 53.9915 99.1506 53.7017C98.7074 53.4119 98.3665 53.0128 98.1278 52.5043C97.8892 51.9957 97.7699 51.4148 97.7699 50.7614C97.7699 50.0966 97.892 49.5099 98.1364 49.0014C98.3835 48.4901 98.7273 48.0909 99.1676 47.804C99.6108 47.5142 100.128 47.3693 100.719 47.3693C101.179 47.3693 101.594 47.4545 101.963 47.625C102.332 47.7955 102.635 48.0341 102.871 48.3409C103.107 48.6477 103.253 49.0057 103.31 49.4148H102.304C102.227 49.1165 102.057 48.8523 101.793 48.6222C101.531 48.3892 101.179 48.2727 100.736 48.2727C100.344 48.2727 100 48.375 99.7045 48.5795C99.4119 48.7812 99.1832 49.0668 99.0185 49.4361C98.8565 49.8026 98.7756 50.233 98.7756 50.7273C98.7756 51.233 98.8551 51.6733 99.0142 52.0483C99.1761 52.4233 99.4034 52.7145 99.696 52.9219C99.9915 53.1293 100.338 53.233 100.736 53.233C100.997 53.233 101.234 53.1875 101.447 53.0966C101.661 53.0057 101.841 52.875 101.989 52.7045C102.136 52.5341 102.241 52.3295 102.304 52.0909H103.31C103.253 52.4773 103.112 52.8253 102.888 53.1349C102.666 53.4418 102.372 53.6861 102.006 53.8679C101.642 54.0469 101.219 54.1364 100.736 54.1364ZM107.524 54.1364C106.893 54.1364 106.349 53.9972 105.892 53.7188C105.438 53.4375 105.087 53.0455 104.839 52.5426C104.595 52.0369 104.473 51.4489 104.473 50.7784C104.473 50.108 104.595 49.517 104.839 49.0057C105.087 48.4915 105.43 48.0909 105.871 47.804C106.314 47.5142 106.831 47.3693 107.422 47.3693C107.763 47.3693 108.099 47.4261 108.432 47.5398C108.764 47.6534 109.067 47.8381 109.339 48.0938C109.612 48.3466 109.83 48.6818 109.991 49.0994C110.153 49.517 110.234 50.0312 110.234 50.642V51.0682H105.189V50.1989H109.212C109.212 49.8295 109.138 49.5 108.99 49.2102C108.845 48.9205 108.638 48.6918 108.368 48.5241C108.101 48.3565 107.786 48.2727 107.422 48.2727C107.021 48.2727 106.675 48.3722 106.382 48.571C106.092 48.767 105.869 49.0227 105.713 49.3381C105.557 49.6534 105.479 49.9915 105.479 50.3523V50.9318C105.479 51.4261 105.564 51.8452 105.734 52.1889C105.908 52.5298 106.148 52.7898 106.455 52.9688C106.761 53.1449 107.118 53.233 107.524 53.233C107.788 53.233 108.027 53.196 108.24 53.1222C108.456 53.0455 108.642 52.9318 108.798 52.7812C108.955 52.6278 109.075 52.4375 109.161 52.2102L110.132 52.483C110.03 52.8125 109.858 53.1023 109.616 53.3523C109.375 53.5994 109.077 53.7926 108.722 53.9318C108.366 54.0682 107.967 54.1364 107.524 54.1364ZM117.798 54.1364C117.207 54.1364 116.689 53.9957 116.243 53.7145C115.8 53.4332 115.453 53.0398 115.203 52.5341C114.956 52.0284 114.832 51.4375 114.832 50.7614C114.832 50.0795 114.956 49.4844 115.203 48.9759C115.453 48.4673 115.8 48.0724 116.243 47.7912C116.689 47.5099 117.207 47.3693 117.798 47.3693C118.389 47.3693 118.906 47.5099 119.349 47.7912C119.795 48.0724 120.142 48.4673 120.389 48.9759C120.639 49.4844 120.764 50.0795 120.764 50.7614C120.764 51.4375 120.639 52.0284 120.389 52.5341C120.142 53.0398 119.795 53.4332 119.349 53.7145C118.906 53.9957 118.389 54.1364 117.798 54.1364ZM117.798 53.233C118.247 53.233 118.616 53.1179 118.906 52.8878C119.196 52.6577 119.411 52.3551 119.55 51.9801C119.689 51.6051 119.759 51.1989 119.759 50.7614C119.759 50.3239 119.689 49.9162 119.55 49.5384C119.411 49.1605 119.196 48.8551 118.906 48.6222C118.616 48.3892 118.247 48.2727 117.798 48.2727C117.349 48.2727 116.98 48.3892 116.69 48.6222C116.401 48.8551 116.186 49.1605 116.047 49.5384C115.908 49.9162 115.838 50.3239 115.838 50.7614C115.838 51.1989 115.908 51.6051 116.047 51.9801C116.186 52.3551 116.401 52.6577 116.69 52.8878C116.98 53.1179 117.349 53.233 117.798 53.233ZM122.299 56.4545V47.4545H123.271V48.4943H123.39C123.464 48.3807 123.566 48.2358 123.697 48.0597C123.831 47.8807 124.021 47.7216 124.268 47.5824C124.518 47.4403 124.856 47.3693 125.282 47.3693C125.833 47.3693 126.319 47.5071 126.74 47.7827C127.16 48.0582 127.488 48.4489 127.724 48.9545C127.96 49.4602 128.078 50.0568 128.078 50.7443C128.078 51.4375 127.96 52.0384 127.724 52.5469C127.488 53.0526 127.162 53.4446 126.744 53.723C126.326 53.9986 125.845 54.1364 125.299 54.1364C124.879 54.1364 124.542 54.0668 124.289 53.9276C124.037 53.7855 123.842 53.625 123.706 53.446C123.569 53.2642 123.464 53.1136 123.39 52.9943H123.305V56.4545H122.299ZM123.288 50.7273C123.288 51.2216 123.36 51.6577 123.505 52.0355C123.65 52.4105 123.862 52.7045 124.14 52.9176C124.419 53.1278 124.76 53.233 125.163 53.233C125.583 53.233 125.934 53.1222 126.216 52.9006C126.5 52.6761 126.713 52.375 126.855 51.9972C127 51.6165 127.072 51.1932 127.072 50.7273C127.072 50.267 127.001 49.8523 126.859 49.483C126.72 49.1108 126.508 48.8168 126.224 48.6009C125.943 48.3821 125.589 48.2727 125.163 48.2727C124.754 48.2727 124.41 48.3764 124.132 48.5838C123.853 48.7884 123.643 49.0753 123.501 49.4446C123.359 49.8111 123.288 50.2386 123.288 50.7273ZM132.356 54.1364C131.725 54.1364 131.181 53.9972 130.724 53.7188C130.27 53.4375 129.919 53.0455 129.672 52.5426C129.427 52.0369 129.305 51.4489 129.305 50.7784C129.305 50.108 129.427 49.517 129.672 49.0057C129.919 48.4915 130.262 48.0909 130.703 47.804C131.146 47.5142 131.663 47.3693 132.254 47.3693C132.595 47.3693 132.931 47.4261 133.264 47.5398C133.596 47.6534 133.899 47.8381 134.172 48.0938C134.444 48.3466 134.662 48.6818 134.824 49.0994C134.985 49.517 135.066 50.0312 135.066 50.642V51.0682H130.021V50.1989H134.044C134.044 49.8295 133.97 49.5 133.822 49.2102C133.677 48.9205 133.47 48.6918 133.2 48.5241C132.933 48.3565 132.618 48.2727 132.254 48.2727C131.853 48.2727 131.507 48.3722 131.214 48.571C130.924 48.767 130.701 49.0227 130.545 49.3381C130.389 49.6534 130.311 49.9915 130.311 50.3523V50.9318C130.311 51.4261 130.396 51.8452 130.566 52.1889C130.74 52.5298 130.98 52.7898 131.287 52.9688C131.593 53.1449 131.95 53.233 132.356 53.233C132.62 53.233 132.859 53.196 133.072 53.1222C133.288 53.0455 133.474 52.9318 133.63 52.7812C133.787 52.6278 133.907 52.4375 133.993 52.2102L134.964 52.483C134.862 52.8125 134.69 53.1023 134.449 53.3523C134.207 53.5994 133.909 53.7926 133.554 53.9318C133.199 54.0682 132.799 54.1364 132.356 54.1364ZM137.602 50.0625V54H136.596V47.4545H137.568V48.4773H137.653C137.806 48.1449 138.039 47.8778 138.352 47.6761C138.664 47.4716 139.068 47.3693 139.562 47.3693C140.005 47.3693 140.393 47.4602 140.725 47.642C141.058 47.821 141.316 48.0938 141.501 48.4602C141.686 48.8239 141.778 49.2841 141.778 49.8409V54H140.772V49.9091C140.772 49.3949 140.639 48.9943 140.372 48.7074C140.105 48.4176 139.738 48.2727 139.272 48.2727C138.951 48.2727 138.664 48.3423 138.412 48.4815C138.162 48.6207 137.964 48.8239 137.819 49.0909C137.674 49.358 137.602 49.6818 137.602 50.0625ZM148.252 48.9205L147.349 49.1761C147.292 49.0256 147.208 48.8793 147.097 48.7372C146.989 48.5923 146.842 48.473 146.654 48.3793C146.467 48.2855 146.227 48.2386 145.934 48.2386C145.533 48.2386 145.2 48.331 144.933 48.5156C144.668 48.6974 144.536 48.929 144.536 49.2102C144.536 49.4602 144.627 49.6577 144.809 49.8026C144.991 49.9474 145.275 50.0682 145.661 50.1648L146.633 50.4034C147.218 50.5455 147.654 50.7628 147.941 51.0554C148.228 51.3452 148.371 51.7187 148.371 52.1761C148.371 52.5511 148.263 52.8864 148.048 53.1818C147.835 53.4773 147.536 53.7102 147.153 53.8807C146.769 54.0511 146.323 54.1364 145.815 54.1364C145.147 54.1364 144.594 53.9915 144.157 53.7017C143.719 53.4119 143.442 52.9886 143.326 52.4318L144.281 52.1932C144.371 52.5455 144.543 52.8097 144.796 52.9858C145.052 53.1619 145.386 53.25 145.798 53.25C146.266 53.25 146.638 53.1506 146.914 52.9517C147.192 52.75 147.332 52.5085 147.332 52.2273C147.332 52 147.252 51.8097 147.093 51.6562C146.934 51.5 146.69 51.3835 146.36 51.3068L145.269 51.0511C144.67 50.9091 144.229 50.6889 143.948 50.3906C143.67 50.0895 143.531 49.7131 143.531 49.2614C143.531 48.892 143.634 48.5653 143.842 48.2812C144.052 47.9972 144.337 47.7741 144.698 47.6122C145.062 47.4503 145.474 47.3693 145.934 47.3693C146.582 47.3693 147.09 47.5114 147.46 47.7955C147.832 48.0795 148.096 48.4545 148.252 48.9205ZM155.186 54.1534C154.772 54.1534 154.395 54.0753 154.057 53.919C153.719 53.7599 153.451 53.5312 153.252 53.233C153.053 52.9318 152.953 52.5682 152.953 52.142C152.953 51.767 153.027 51.4631 153.175 51.2301C153.323 50.9943 153.52 50.8097 153.767 50.6761C154.015 50.5426 154.287 50.4432 154.586 50.3778C154.887 50.3097 155.189 50.2557 155.493 50.2159C155.891 50.1648 156.213 50.1264 156.461 50.1009C156.711 50.0724 156.892 50.0256 157.006 49.9602C157.123 49.8949 157.181 49.7812 157.181 49.6193V49.5852C157.181 49.1648 157.066 48.8381 156.836 48.6051C156.608 48.3722 156.263 48.2557 155.8 48.2557C155.32 48.2557 154.944 48.3608 154.671 48.571C154.398 48.7812 154.206 49.0057 154.096 49.2443L153.141 48.9034C153.311 48.5057 153.539 48.196 153.823 47.9744C154.11 47.75 154.422 47.5937 154.76 47.5057C155.101 47.4148 155.436 47.3693 155.766 47.3693C155.976 47.3693 156.218 47.3949 156.49 47.446C156.766 47.4943 157.032 47.5952 157.287 47.7486C157.546 47.902 157.76 48.1335 157.931 48.4432C158.101 48.7528 158.186 49.1676 158.186 49.6875V54H157.181V53.1136H157.13C157.061 53.2557 156.948 53.4077 156.789 53.5696C156.63 53.7315 156.418 53.8693 156.154 53.983C155.89 54.0966 155.567 54.1534 155.186 54.1534ZM155.34 53.25C155.738 53.25 156.073 53.1719 156.346 53.0156C156.621 52.8594 156.828 52.6577 156.968 52.4105C157.11 52.1634 157.181 51.9034 157.181 51.6307V50.7102C157.138 50.7614 157.044 50.8082 156.9 50.8509C156.757 50.8906 156.593 50.9261 156.405 50.9574C156.221 50.9858 156.04 51.0114 155.864 51.0341C155.691 51.054 155.55 51.071 155.442 51.0852C155.181 51.1193 154.936 51.1747 154.709 51.2514C154.485 51.3253 154.303 51.4375 154.164 51.5881C154.027 51.7358 153.959 51.9375 153.959 52.1932C153.959 52.5426 154.088 52.8068 154.347 52.9858C154.608 53.1619 154.939 53.25 155.34 53.25ZM162.869 47.4545V48.3068H159.477V47.4545H162.869ZM160.465 45.8864H161.471V52.125C161.471 52.4091 161.512 52.6222 161.594 52.7642C161.68 52.9034 161.788 52.9972 161.918 53.0455C162.052 53.0909 162.192 53.1136 162.34 53.1136C162.451 53.1136 162.542 53.108 162.613 53.0966C162.684 53.0824 162.741 53.071 162.783 53.0625L162.988 53.9659C162.92 53.9915 162.825 54.017 162.702 54.0426C162.58 54.071 162.425 54.0852 162.238 54.0852C161.954 54.0852 161.675 54.0241 161.403 53.902C161.133 53.7798 160.908 53.5938 160.729 53.3438C160.553 53.0938 160.465 52.7784 160.465 52.3977V45.8864ZM171.34 45.2727V54H169.495V47.0241H169.444L167.445 48.277V46.6406L169.606 45.2727H171.34ZM173.414 54V52.6705L176.521 49.794C176.785 49.5384 177.007 49.3082 177.186 49.1037C177.368 48.8991 177.505 48.6989 177.599 48.5028C177.693 48.304 177.74 48.0895 177.74 47.8594C177.74 47.6037 177.681 47.3835 177.565 47.1989C177.449 47.0114 177.289 46.8679 177.088 46.7685C176.886 46.6662 176.657 46.6151 176.402 46.6151C176.135 46.6151 175.902 46.669 175.703 46.777C175.504 46.8849 175.35 47.0398 175.243 47.2415C175.135 47.4432 175.081 47.6832 175.081 47.9616H173.329C173.329 47.3906 173.458 46.8949 173.717 46.4744C173.975 46.054 174.338 45.7287 174.804 45.4986C175.27 45.2685 175.806 45.1534 176.414 45.1534C177.039 45.1534 177.583 45.2642 178.047 45.4858C178.512 45.7045 178.875 46.0085 179.133 46.3977C179.392 46.7869 179.521 47.233 179.521 47.7358C179.521 48.0653 179.456 48.3906 179.325 48.7116C179.197 49.0327 178.968 49.3892 178.639 49.7812C178.309 50.1705 177.845 50.6378 177.245 51.1832L175.971 52.4318V52.4915H179.636V54H173.414ZM182.051 52.9858C181.77 52.9858 181.528 52.8864 181.327 52.6875C181.128 52.4886 181.028 52.2472 181.028 51.9631C181.028 51.6847 181.128 51.446 181.327 51.2472C181.528 51.0483 181.77 50.9489 182.051 50.9489C182.324 50.9489 182.563 51.0483 182.767 51.2472C182.972 51.446 183.074 51.6847 183.074 51.9631C183.074 52.1506 183.026 52.3224 182.929 52.4787C182.835 52.6321 182.712 52.7557 182.558 52.8494C182.405 52.9403 182.236 52.9858 182.051 52.9858ZM182.051 48.7031C181.77 48.7031 181.528 48.6037 181.327 48.4048C181.128 48.206 181.028 47.9645 181.028 47.6804C181.028 47.402 181.128 47.1648 181.327 46.9688C181.528 46.7699 181.77 46.6705 182.051 46.6705C182.324 46.6705 182.563 46.7699 182.767 46.9688C182.972 47.1648 183.074 47.402 183.074 47.6804C183.074 47.8707 183.026 48.044 182.929 48.2003C182.835 48.3537 182.712 48.4759 182.558 48.5668C182.405 48.6577 182.236 48.7031 182.051 48.7031ZM187.969 54.1918C187.236 54.1889 186.605 54.0085 186.077 53.6506C185.551 53.2926 185.147 52.7741 184.863 52.0952C184.581 51.4162 184.442 50.5994 184.445 49.6449C184.445 48.6932 184.586 47.8821 184.867 47.2116C185.151 46.5412 185.556 46.0312 186.081 45.6818C186.61 45.3295 187.239 45.1534 187.969 45.1534C188.699 45.1534 189.327 45.3295 189.853 45.6818C190.381 46.0341 190.787 46.5455 191.071 47.2159C191.355 47.8835 191.496 48.6932 191.493 49.6449C191.493 50.6023 191.351 51.4205 191.067 52.0994C190.786 52.7784 190.382 53.2969 189.857 53.6548C189.331 54.0128 188.702 54.1918 187.969 54.1918ZM187.969 52.6619C188.469 52.6619 188.868 52.4105 189.167 51.9077C189.465 51.4048 189.613 50.6506 189.61 49.6449C189.61 48.983 189.542 48.4318 189.405 47.9915C189.272 47.5511 189.081 47.2202 188.834 46.9986C188.59 46.777 188.301 46.6662 187.969 46.6662C187.472 46.6662 187.074 46.9148 186.776 47.4119C186.478 47.9091 186.327 48.6534 186.324 49.6449C186.324 50.3153 186.391 50.875 186.525 51.3239C186.661 51.7699 186.853 52.1051 187.1 52.3295C187.347 52.5511 187.637 52.6619 187.969 52.6619ZM196.231 54.1918C195.498 54.1889 194.867 54.0085 194.339 53.6506C193.813 53.2926 193.408 52.7741 193.124 52.0952C192.843 51.4162 192.704 50.5994 192.707 49.6449C192.707 48.6932 192.847 47.8821 193.129 47.2116C193.413 46.5412 193.817 46.0312 194.343 45.6818C194.871 45.3295 195.501 45.1534 196.231 45.1534C196.961 45.1534 197.589 45.3295 198.114 45.6818C198.643 46.0341 199.049 46.5455 199.333 47.2159C199.617 47.8835 199.758 48.6932 199.755 49.6449C199.755 50.6023 199.613 51.4205 199.329 52.0994C199.048 52.7784 198.644 53.2969 198.119 53.6548C197.593 54.0128 196.964 54.1918 196.231 54.1918ZM196.231 52.6619C196.731 52.6619 197.13 52.4105 197.428 51.9077C197.727 51.4048 197.874 50.6506 197.871 49.6449C197.871 48.983 197.803 48.4318 197.667 47.9915C197.533 47.5511 197.343 47.2202 197.096 46.9986C196.852 46.777 196.563 46.6662 196.231 46.6662C195.734 46.6662 195.336 46.9148 195.038 47.4119C194.739 47.9091 194.589 48.6534 194.586 49.6449C194.586 50.3153 194.653 50.875 194.786 51.3239C194.923 51.7699 195.114 52.1051 195.362 52.3295C195.609 52.5511 195.898 52.6619 196.231 52.6619ZM201.122 54V45.2727H204.565C205.227 45.2727 205.791 45.3991 206.257 45.652C206.723 45.902 207.078 46.25 207.322 46.696C207.569 47.1392 207.693 47.6506 207.693 48.2301C207.693 48.8097 207.568 49.321 207.318 49.7642C207.068 50.2074 206.706 50.5526 206.231 50.7997C205.76 51.0469 205.189 51.1705 204.518 51.1705H202.324V49.6918H204.22C204.575 49.6918 204.868 49.6307 205.098 49.5085C205.331 49.3835 205.504 49.2116 205.618 48.9929C205.734 48.7713 205.792 48.517 205.792 48.2301C205.792 47.9403 205.734 47.6875 205.618 47.4716C205.504 47.2528 205.331 47.0838 205.098 46.9645C204.865 46.8423 204.569 46.7812 204.211 46.7812H202.967V54H201.122ZM208.891 45.2727H211.167L213.57 51.1364H213.673L216.076 45.2727H218.352V54H216.562V48.3196H216.489L214.231 53.9574H213.012L210.754 48.2983H210.681V54H208.891V45.2727Z" fill="#111111"/>
<path d="M31.5 67.5V74.5H16.5V67.5H31.5Z" fill="#FFFF36" stroke="black"/>
<path d="M39.4148 75H38.3068L41.5114 66.2727H42.6023L45.8068 75H44.6989L42.0909 67.6534H42.0227L39.4148 75ZM39.8239 71.5909H44.2898V72.5284H39.8239V71.5909ZM48.0355 66.2727V75H47.0298V66.2727H48.0355ZM50.8832 66.2727V75H49.8775V66.2727H50.8832ZM56.2365 75V66.2727H57.2422V69.4943H57.3274C57.4013 69.3807 57.5036 69.2358 57.6342 69.0597C57.7678 68.8807 57.9581 68.7216 58.2053 68.5824C58.4553 68.4403 58.7933 68.3693 59.2195 68.3693C59.7706 68.3693 60.2564 68.5071 60.6768 68.7827C61.0973 69.0582 61.4254 69.4489 61.6612 69.9545C61.897 70.4602 62.0149 71.0568 62.0149 71.7443C62.0149 72.4375 61.897 73.0384 61.6612 73.5469C61.4254 74.0526 61.0987 74.4446 60.6811 74.723C60.2635 74.9986 59.782 75.1364 59.2365 75.1364C58.8161 75.1364 58.4794 75.0668 58.2266 74.9276C57.9737 74.7855 57.7791 74.625 57.6428 74.446C57.5064 74.2642 57.4013 74.1136 57.3274 73.9943H57.2081V75H56.2365ZM57.2251 71.7273C57.2251 72.2216 57.2976 72.6577 57.4425 73.0355C57.5874 73.4105 57.799 73.7045 58.0774 73.9176C58.3558 74.1278 58.6967 74.233 59.1001 74.233C59.5206 74.233 59.8714 74.1222 60.1527 73.9006C60.4368 73.6761 60.6499 73.375 60.7919 72.9972C60.9368 72.6165 61.0092 72.1932 61.0092 71.7273C61.0092 71.267 60.9382 70.8523 60.7962 70.483C60.657 70.1108 60.4453 69.8168 60.1612 69.6009C59.88 69.3821 59.5263 69.2727 59.1001 69.2727C58.6911 69.2727 58.3473 69.3764 58.0689 69.5838C57.7905 69.7884 57.5803 70.0753 57.4382 70.4446C57.2962 70.8111 57.2251 71.2386 57.2251 71.7273ZM65.4794 75.1534C65.0646 75.1534 64.6882 75.0753 64.3501 74.919C64.0121 74.7599 63.7436 74.5312 63.5447 74.233C63.3459 73.9318 63.2464 73.5682 63.2464 73.142C63.2464 72.767 63.3203 72.4631 63.468 72.2301C63.6158 71.9943 63.8132 71.8097 64.0604 71.6761C64.3075 71.5426 64.5803 71.4432 64.8786 71.3778C65.1797 71.3097 65.4822 71.2557 65.7862 71.2159C66.1839 71.1648 66.5064 71.1264 66.7536 71.1009C67.0036 71.0724 67.1854 71.0256 67.299 70.9602C67.4155 70.8949 67.4737 70.7812 67.4737 70.6193V70.5852C67.4737 70.1648 67.3587 69.8381 67.1286 69.6051C66.9013 69.3722 66.5561 69.2557 66.093 69.2557C65.6129 69.2557 65.2365 69.3608 64.9638 69.571C64.6911 69.7812 64.4993 70.0057 64.3885 70.2443L63.4339 69.9034C63.6044 69.5057 63.8317 69.196 64.1158 68.9744C64.4027 68.75 64.7152 68.5937 65.0533 68.5057C65.3942 68.4148 65.7294 68.3693 66.0589 68.3693C66.2692 68.3693 66.5107 68.3949 66.7834 68.446C67.0589 68.4943 67.3246 68.5952 67.5803 68.7486C67.8388 68.902 68.0533 69.1335 68.2237 69.4432C68.3942 69.7528 68.4794 70.1676 68.4794 70.6875V75H67.4737V74.1136H67.4226C67.3544 74.2557 67.2408 74.4077 67.0817 74.5696C66.9226 74.7315 66.7109 74.8693 66.4467 74.983C66.1825 75.0966 65.8601 75.1534 65.4794 75.1534ZM65.6328 74.25C66.0305 74.25 66.3658 74.1719 66.6385 74.0156C66.9141 73.8594 67.1214 73.6577 67.2607 73.4105C67.4027 73.1634 67.4737 72.9034 67.4737 72.6307V71.7102C67.4311 71.7614 67.3374 71.8082 67.1925 71.8509C67.0504 71.8906 66.8857 71.9261 66.6982 71.9574C66.5135 71.9858 66.3331 72.0114 66.157 72.0341C65.9837 72.054 65.843 72.071 65.7351 72.0852C65.4737 72.1193 65.2294 72.1747 65.0021 72.2514C64.7777 72.3253 64.5959 72.4375 64.4567 72.5881C64.3203 72.7358 64.2521 72.9375 64.2521 73.1932C64.2521 73.5426 64.3814 73.8068 64.6399 73.9858C64.9013 74.1619 65.2322 74.25 65.6328 74.25ZM70.315 75V68.4545H71.2866V69.4432H71.3548C71.4741 69.1193 71.69 68.8565 72.0025 68.6548C72.315 68.4531 72.6673 68.3523 73.0593 68.3523C73.1332 68.3523 73.2255 68.3537 73.3363 68.3565C73.4471 68.3594 73.5309 68.3636 73.5877 68.3693V69.392C73.5536 69.3835 73.4755 69.3707 73.3533 69.3537C73.234 69.3338 73.1076 69.3239 72.9741 69.3239C72.6559 69.3239 72.3718 69.3906 72.1218 69.5241C71.8746 69.6548 71.6786 69.8366 71.5337 70.0696C71.3917 70.2997 71.3207 70.5625 71.3207 70.858V75H70.315ZM79.4162 69.9205L78.5128 70.1761C78.456 70.0256 78.3722 69.8793 78.2614 69.7372C78.1534 69.5923 78.0057 69.473 77.8182 69.3793C77.6307 69.2855 77.3906 69.2386 77.098 69.2386C76.6974 69.2386 76.3636 69.331 76.0966 69.5156C75.8324 69.6974 75.7003 69.929 75.7003 70.2102C75.7003 70.4602 75.7912 70.6577 75.973 70.8026C76.1548 70.9474 76.4389 71.0682 76.8253 71.1648L77.7969 71.4034C78.3821 71.5455 78.8182 71.7628 79.1051 72.0554C79.392 72.3452 79.5355 72.7187 79.5355 73.1761C79.5355 73.5511 79.4276 73.8864 79.2116 74.1818C78.9986 74.4773 78.7003 74.7102 78.3168 74.8807C77.9332 75.0511 77.4872 75.1364 76.9787 75.1364C76.3111 75.1364 75.7585 74.9915 75.321 74.7017C74.8835 74.4119 74.6065 73.9886 74.4901 73.4318L75.4446 73.1932C75.5355 73.5455 75.7074 73.8097 75.9602 73.9858C76.2159 74.1619 76.5497 74.25 76.9616 74.25C77.4304 74.25 77.8026 74.1506 78.0781 73.9517C78.3565 73.75 78.4957 73.5085 78.4957 73.2273C78.4957 73 78.4162 72.8097 78.2571 72.6562C78.098 72.5 77.8537 72.3835 77.5241 72.3068L76.4332 72.0511C75.8338 71.9091 75.3935 71.6889 75.1122 71.3906C74.8338 71.0895 74.6946 70.7131 74.6946 70.2614C74.6946 69.892 74.7983 69.5653 75.0057 69.2812C75.2159 68.9972 75.5014 68.7741 75.8622 68.6122C76.2259 68.4503 76.6378 68.3693 77.098 68.3693C77.7457 68.3693 78.2543 68.5114 78.6236 68.7955C78.9957 69.0795 79.2599 69.4545 79.4162 69.9205ZM85.9073 75L83.913 68.4545H84.9698L86.3846 73.4659H86.4528L87.8505 68.4545H88.9244L90.305 73.4489H90.3732L91.788 68.4545H92.8448L90.8505 75H89.8619L88.43 69.9716H88.3278L86.896 75H85.9073ZM94.1744 75V68.4545H95.18V75H94.1744ZM94.6857 67.3636C94.4897 67.3636 94.3207 67.2969 94.1786 67.1634C94.0394 67.0298 93.9698 66.8693 93.9698 66.6818C93.9698 66.4943 94.0394 66.3338 94.1786 66.2003C94.3207 66.0668 94.4897 66 94.6857 66C94.8817 66 95.0494 66.0668 95.1886 66.2003C95.3306 66.3338 95.4016 66.4943 95.4016 66.6818C95.4016 66.8693 95.3306 67.0298 95.1886 67.1634C95.0494 67.2969 94.8817 67.3636 94.6857 67.3636ZM98.0277 66.2727V75H97.022V66.2727H98.0277ZM100.875 66.2727V75H99.8697V66.2727H100.875ZM108.939 68.4545V69.3068H105.547V68.4545H108.939ZM106.536 66.8864H107.541V73.125C107.541 73.4091 107.582 73.6222 107.665 73.7642C107.75 73.9034 107.858 73.9972 107.989 74.0455C108.122 74.0909 108.263 74.1136 108.411 74.1136C108.521 74.1136 108.612 74.108 108.683 74.0966C108.754 74.0824 108.811 74.071 108.854 74.0625L109.058 74.9659C108.99 74.9915 108.895 75.017 108.773 75.0426C108.651 75.071 108.496 75.0852 108.308 75.0852C108.024 75.0852 107.746 75.0241 107.473 74.902C107.203 74.7798 106.979 74.5938 106.8 74.3438C106.624 74.0938 106.536 73.7784 106.536 73.3977V66.8864ZM110.452 75V68.4545H111.423V69.4432H111.491C111.611 69.1193 111.827 68.8565 112.139 68.6548C112.452 68.4531 112.804 68.3523 113.196 68.3523C113.27 68.3523 113.362 68.3537 113.473 68.3565C113.584 68.3594 113.668 68.3636 113.724 68.3693V69.392C113.69 69.3835 113.612 69.3707 113.49 69.3537C113.371 69.3338 113.244 69.3239 113.111 69.3239C112.793 69.3239 112.509 69.3906 112.259 69.5241C112.011 69.6548 111.815 69.8366 111.67 70.0696C111.528 70.2997 111.457 70.5625 111.457 70.858V75H110.452ZM116.843 75.1534C116.428 75.1534 116.051 75.0753 115.713 74.919C115.375 74.7599 115.107 74.5312 114.908 74.233C114.709 73.9318 114.61 73.5682 114.61 73.142C114.61 72.767 114.684 72.4631 114.831 72.2301C114.979 71.9943 115.176 71.8097 115.424 71.6761C115.671 71.5426 115.944 71.4432 116.242 71.3778C116.543 71.3097 116.846 71.2557 117.15 71.2159C117.547 71.1648 117.87 71.1264 118.117 71.1009C118.367 71.0724 118.549 71.0256 118.662 70.9602C118.779 70.8949 118.837 70.7812 118.837 70.6193V70.5852C118.837 70.1648 118.722 69.8381 118.492 69.6051C118.265 69.3722 117.919 69.2557 117.456 69.2557C116.976 69.2557 116.6 69.3608 116.327 69.571C116.054 69.7812 115.863 70.0057 115.752 70.2443L114.797 69.9034C114.968 69.5057 115.195 69.196 115.479 68.9744C115.766 68.75 116.078 68.5937 116.417 68.5057C116.757 68.4148 117.093 68.3693 117.422 68.3693C117.632 68.3693 117.874 68.3949 118.147 68.446C118.422 68.4943 118.688 68.5952 118.944 68.7486C119.202 68.902 119.417 69.1335 119.587 69.4432C119.757 69.7528 119.843 70.1676 119.843 70.6875V75H118.837V74.1136H118.786C118.718 74.2557 118.604 74.4077 118.445 74.5696C118.286 74.7315 118.074 74.8693 117.81 74.983C117.546 75.0966 117.223 75.1534 116.843 75.1534ZM116.996 74.25C117.394 74.25 117.729 74.1719 118.002 74.0156C118.277 73.8594 118.485 73.6577 118.624 73.4105C118.766 73.1634 118.837 72.9034 118.837 72.6307V71.7102C118.794 71.7614 118.701 71.8082 118.556 71.8509C118.414 71.8906 118.249 71.9261 118.061 71.9574C117.877 71.9858 117.696 72.0114 117.52 72.0341C117.347 72.054 117.206 72.071 117.098 72.0852C116.837 72.1193 116.593 72.1747 116.365 72.2514C116.141 72.3253 115.959 72.4375 115.82 72.5881C115.684 72.7358 115.615 72.9375 115.615 73.1932C115.615 73.5426 115.745 73.8068 116.003 73.9858C116.265 74.1619 116.596 74.25 116.996 74.25ZM122.684 71.0625V75H121.678V68.4545H122.65V69.4773H122.735C122.888 69.1449 123.121 68.8778 123.434 68.6761C123.746 68.4716 124.15 68.3693 124.644 68.3693C125.087 68.3693 125.475 68.4602 125.808 68.642C126.14 68.821 126.398 69.0938 126.583 69.4602C126.768 69.8239 126.86 70.2841 126.86 70.8409V75H125.854V70.9091C125.854 70.3949 125.721 69.9943 125.454 69.7074C125.187 69.4176 124.82 69.2727 124.354 69.2727C124.033 69.2727 123.746 69.3423 123.494 69.4815C123.244 69.6207 123.046 69.8239 122.901 70.0909C122.756 70.358 122.684 70.6818 122.684 71.0625ZM133.334 69.9205L132.431 70.1761C132.374 70.0256 132.29 69.8793 132.179 69.7372C132.071 69.5923 131.924 69.473 131.736 69.3793C131.549 69.2855 131.309 69.2386 131.016 69.2386C130.615 69.2386 130.282 69.331 130.015 69.5156C129.75 69.6974 129.618 69.929 129.618 70.2102C129.618 70.4602 129.709 70.6577 129.891 70.8026C130.073 70.9474 130.357 71.0682 130.743 71.1648L131.715 71.4034C132.3 71.5455 132.736 71.7628 133.023 72.0554C133.31 72.3452 133.453 72.7187 133.453 73.1761C133.453 73.5511 133.346 73.8864 133.13 74.1818C132.917 74.4773 132.618 74.7102 132.235 74.8807C131.851 75.0511 131.405 75.1364 130.897 75.1364C130.229 75.1364 129.676 74.9915 129.239 74.7017C128.801 74.4119 128.525 73.9886 128.408 73.4318L129.363 73.1932C129.453 73.5455 129.625 73.8097 129.878 73.9858C130.134 74.1619 130.468 74.25 130.88 74.25C131.348 74.25 131.721 74.1506 131.996 73.9517C132.275 73.75 132.414 73.5085 132.414 73.2273C132.414 73 132.334 72.8097 132.175 72.6562C132.016 72.5 131.772 72.3835 131.442 72.3068L130.351 72.0511C129.752 71.9091 129.311 71.6889 129.03 71.3906C128.752 71.0895 128.613 70.7131 128.613 70.2614C128.613 69.892 128.716 69.5653 128.924 69.2812C129.134 68.9972 129.419 68.7741 129.78 68.6122C130.144 68.4503 130.556 68.3693 131.016 68.3693C131.664 68.3693 132.172 68.5114 132.542 68.7955C132.914 69.0795 133.178 69.4545 133.334 69.9205ZM134.967 75V68.4545H135.973V75H134.967ZM135.479 67.3636C135.283 67.3636 135.114 67.2969 134.972 67.1634C134.832 67.0298 134.763 66.8693 134.763 66.6818C134.763 66.4943 134.832 66.3338 134.972 66.2003C135.114 66.0668 135.283 66 135.479 66C135.675 66 135.842 66.0668 135.982 66.2003C136.124 66.3338 136.195 66.4943 136.195 66.6818C136.195 66.8693 136.124 67.0298 135.982 67.1634C135.842 67.2969 135.675 67.3636 135.479 67.3636ZM140.662 68.4545V69.3068H137.27V68.4545H140.662ZM138.258 66.8864H139.264V73.125C139.264 73.4091 139.305 73.6222 139.387 73.7642C139.473 73.9034 139.581 73.9972 139.711 74.0455C139.845 74.0909 139.985 74.1136 140.133 74.1136C140.244 74.1136 140.335 74.108 140.406 74.0966C140.477 74.0824 140.534 74.071 140.576 74.0625L140.781 74.9659C140.713 74.9915 140.618 75.017 140.495 75.0426C140.373 75.071 140.218 75.0852 140.031 75.0852C139.747 75.0852 139.468 75.0241 139.196 74.902C138.926 74.7798 138.701 74.5938 138.522 74.3438C138.346 74.0938 138.258 73.7784 138.258 73.3977V66.8864ZM142.174 75V68.4545H143.18V75H142.174ZM142.686 67.3636C142.49 67.3636 142.321 67.2969 142.179 67.1634C142.039 67.0298 141.97 66.8693 141.97 66.6818C141.97 66.4943 142.039 66.3338 142.179 66.2003C142.321 66.0668 142.49 66 142.686 66C142.882 66 143.049 66.0668 143.189 66.2003C143.331 66.3338 143.402 66.4943 143.402 66.6818C143.402 66.8693 143.331 67.0298 143.189 67.1634C143.049 67.2969 142.882 67.3636 142.686 67.3636ZM147.681 75.1364C147.09 75.1364 146.572 74.9957 146.126 74.7145C145.683 74.4332 145.336 74.0398 145.086 73.5341C144.839 73.0284 144.715 72.4375 144.715 71.7614C144.715 71.0795 144.839 70.4844 145.086 69.9759C145.336 69.4673 145.683 69.0724 146.126 68.7912C146.572 68.5099 147.09 68.3693 147.681 68.3693C148.272 68.3693 148.789 68.5099 149.232 68.7912C149.678 69.0724 150.025 69.4673 150.272 69.9759C150.522 70.4844 150.647 71.0795 150.647 71.7614C150.647 72.4375 150.522 73.0284 150.272 73.5341C150.025 74.0398 149.678 74.4332 149.232 74.7145C148.789 74.9957 148.272 75.1364 147.681 75.1364ZM147.681 74.233C148.13 74.233 148.499 74.1179 148.789 73.8878C149.079 73.6577 149.293 73.3551 149.433 72.9801C149.572 72.6051 149.641 72.1989 149.641 71.7614C149.641 71.3239 149.572 70.9162 149.433 70.5384C149.293 70.1605 149.079 69.8551 148.789 69.6222C148.499 69.3892 148.13 69.2727 147.681 69.2727C147.232 69.2727 146.863 69.3892 146.573 69.6222C146.283 69.8551 146.069 70.1605 145.93 70.5384C145.79 70.9162 145.721 71.3239 145.721 71.7614C145.721 72.1989 145.79 72.6051 145.93 72.9801C146.069 73.3551 146.283 73.6577 146.573 73.8878C146.863 74.1179 147.232 74.233 147.681 74.233ZM153.188 71.0625V75H152.182V68.4545H153.154V69.4773H153.239C153.392 69.1449 153.625 68.8778 153.938 68.6761C154.25 68.4716 154.654 68.3693 155.148 68.3693C155.591 68.3693 155.979 68.4602 156.311 68.642C156.644 68.821 156.902 69.0938 157.087 69.4602C157.272 69.8239 157.364 70.2841 157.364 70.8409V75H156.358V70.9091C156.358 70.3949 156.225 69.9943 155.958 69.7074C155.691 69.4176 155.324 69.2727 154.858 69.2727C154.537 69.2727 154.25 69.3423 153.998 69.4815C153.748 69.6207 153.55 69.8239 153.405 70.0909C153.26 70.358 153.188 70.6818 153.188 71.0625ZM165.423 68.4545V69.3068H162.031V68.4545H165.423ZM163.02 66.8864H164.026V73.125C164.026 73.4091 164.067 73.6222 164.149 73.7642C164.234 73.9034 164.342 73.9972 164.473 74.0455C164.607 74.0909 164.747 74.1136 164.895 74.1136C165.006 74.1136 165.097 74.108 165.168 74.0966C165.239 74.0824 165.295 74.071 165.338 74.0625L165.543 74.9659C165.474 74.9915 165.379 75.017 165.257 75.0426C165.135 75.071 164.98 75.0852 164.793 75.0852C164.509 75.0852 164.23 75.0241 163.957 74.902C163.688 74.7798 163.463 74.5938 163.284 74.3438C163.108 74.0938 163.02 73.7784 163.02 73.3977V66.8864ZM169.525 75.1364C168.934 75.1364 168.415 74.9957 167.969 74.7145C167.526 74.4332 167.18 74.0398 166.93 73.5341C166.683 73.0284 166.559 72.4375 166.559 71.7614C166.559 71.0795 166.683 70.4844 166.93 69.9759C167.18 69.4673 167.526 69.0724 167.969 68.7912C168.415 68.5099 168.934 68.3693 169.525 68.3693C170.116 68.3693 170.633 68.5099 171.076 68.7912C171.522 69.0724 171.869 69.4673 172.116 69.9759C172.366 70.4844 172.491 71.0795 172.491 71.7614C172.491 72.4375 172.366 73.0284 172.116 73.5341C171.869 74.0398 171.522 74.4332 171.076 74.7145C170.633 74.9957 170.116 75.1364 169.525 75.1364ZM169.525 74.233C169.974 74.233 170.343 74.1179 170.633 73.8878C170.923 73.6577 171.137 73.3551 171.276 72.9801C171.415 72.6051 171.485 72.1989 171.485 71.7614C171.485 71.3239 171.415 70.9162 171.276 70.5384C171.137 70.1605 170.923 69.8551 170.633 69.6222C170.343 69.3892 169.974 69.2727 169.525 69.2727C169.076 69.2727 168.707 69.3892 168.417 69.6222C168.127 69.8551 167.913 70.1605 167.773 70.5384C167.634 70.9162 167.565 71.3239 167.565 71.7614C167.565 72.1989 167.634 72.6051 167.773 72.9801C167.913 73.3551 168.127 73.6577 168.417 73.8878C168.707 74.1179 169.076 74.233 169.525 74.233ZM180.316 68.4545V69.3068H176.787V68.4545H180.316ZM177.844 75V67.5511C177.844 67.1761 177.932 66.8636 178.108 66.6136C178.284 66.3636 178.513 66.1761 178.794 66.0511C179.076 65.9261 179.373 65.8636 179.685 65.8636C179.932 65.8636 180.134 65.8835 180.29 65.9233C180.446 65.9631 180.563 66 180.64 66.0341L180.35 66.9034C180.299 66.8864 180.228 66.8651 180.137 66.8395C180.049 66.8139 179.932 66.8011 179.787 66.8011C179.455 66.8011 179.215 66.8849 179.067 67.0526C178.922 67.2202 178.85 67.4659 178.85 67.7898V75H177.844ZM185.85 72.3239V68.4545H186.856V75H185.85V73.892H185.782C185.629 74.2244 185.39 74.5071 185.066 74.7401C184.742 74.9702 184.333 75.0852 183.839 75.0852C183.43 75.0852 183.066 74.9957 182.748 74.8168C182.43 74.6349 182.18 74.3622 181.998 73.9986C181.816 73.6321 181.725 73.1705 181.725 72.6136V68.4545H182.731V72.5455C182.731 73.0227 182.864 73.4034 183.131 73.6875C183.401 73.9716 183.745 74.1136 184.163 74.1136C184.413 74.1136 184.667 74.0497 184.925 73.9219C185.187 73.794 185.406 73.598 185.582 73.3338C185.761 73.0696 185.85 72.733 185.85 72.3239ZM189.703 66.2727V75H188.698V66.2727H189.703ZM192.551 66.2727V75H191.545V66.2727H192.551ZM202.404 69.9205L201.501 70.1761C201.444 70.0256 201.36 69.8793 201.25 69.7372C201.142 69.5923 200.994 69.473 200.806 69.3793C200.619 69.2855 200.379 69.2386 200.086 69.2386C199.686 69.2386 199.352 69.331 199.085 69.5156C198.821 69.6974 198.689 69.929 198.689 70.2102C198.689 70.4602 198.779 70.6577 198.961 70.8026C199.143 70.9474 199.427 71.0682 199.814 71.1648L200.785 71.4034C201.37 71.5455 201.806 71.7628 202.093 72.0554C202.38 72.3452 202.524 72.7187 202.524 73.1761C202.524 73.5511 202.416 73.8864 202.2 74.1818C201.987 74.4773 201.689 74.7102 201.305 74.8807C200.922 75.0511 200.475 75.1364 199.967 75.1364C199.299 75.1364 198.747 74.9915 198.309 74.7017C197.872 74.4119 197.595 73.9886 197.478 73.4318L198.433 73.1932C198.524 73.5455 198.696 73.8097 198.949 73.9858C199.204 74.1619 199.538 74.25 199.95 74.25C200.419 74.25 200.791 74.1506 201.066 73.9517C201.345 73.75 201.484 73.5085 201.484 73.2273C201.484 73 201.404 72.8097 201.245 72.6562C201.086 72.5 200.842 72.3835 200.512 72.3068L199.422 72.0511C198.822 71.9091 198.382 71.6889 198.1 71.3906C197.822 71.0895 197.683 70.7131 197.683 70.2614C197.683 69.892 197.787 69.5653 197.994 69.2812C198.204 68.9972 198.49 68.7741 198.85 68.6122C199.214 68.4503 199.626 68.3693 200.086 68.3693C200.734 68.3693 201.243 68.5114 201.612 68.7955C201.984 69.0795 202.248 69.4545 202.404 69.9205ZM206.782 75.1364C206.151 75.1364 205.607 74.9972 205.15 74.7188C204.695 74.4375 204.344 74.0455 204.097 73.5426C203.853 73.0369 203.731 72.4489 203.731 71.7784C203.731 71.108 203.853 70.517 204.097 70.0057C204.344 69.4915 204.688 69.0909 205.129 68.804C205.572 68.5142 206.089 68.3693 206.68 68.3693C207.021 68.3693 207.357 68.4261 207.69 68.5398C208.022 68.6534 208.325 68.8381 208.597 69.0938C208.87 69.3466 209.087 69.6818 209.249 70.0994C209.411 70.517 209.492 71.0312 209.492 71.642V72.0682H204.447V71.1989H208.469C208.469 70.8295 208.396 70.5 208.248 70.2102C208.103 69.9205 207.896 69.6918 207.626 69.5241C207.359 69.3565 207.043 69.2727 206.68 69.2727C206.279 69.2727 205.933 69.3722 205.64 69.571C205.35 69.767 205.127 70.0227 204.971 70.3381C204.815 70.6534 204.737 70.9915 204.737 71.3523V71.9318C204.737 72.4261 204.822 72.8452 204.992 73.1889C205.165 73.5298 205.406 73.7898 205.712 73.9688C206.019 74.1449 206.376 74.233 206.782 74.233C207.046 74.233 207.285 74.196 207.498 74.1222C207.714 74.0455 207.9 73.9318 208.056 73.7812C208.212 73.6278 208.333 73.4375 208.418 73.2102L209.39 73.483C209.288 73.8125 209.116 74.1023 208.874 74.3523C208.633 74.5994 208.335 74.7926 207.979 74.9318C207.624 75.0682 207.225 75.1364 206.782 75.1364ZM211.022 75V68.4545H211.994V69.4432H212.062C212.181 69.1193 212.397 68.8565 212.71 68.6548C213.022 68.4531 213.374 68.3523 213.766 68.3523C213.84 68.3523 213.933 68.3537 214.043 68.3565C214.154 68.3594 214.238 68.3636 214.295 68.3693V69.392C214.261 69.3835 214.183 69.3707 214.06 69.3537C213.941 69.3338 213.815 69.3239 213.681 69.3239C213.363 69.3239 213.079 69.3906 212.829 69.5241C212.582 69.6548 212.386 69.8366 212.241 70.0696C212.099 70.2997 212.028 70.5625 212.028 70.858V75H211.022ZM221.038 68.4545L218.618 75H217.595L215.175 68.4545H216.266L218.072 73.6705H218.141L219.947 68.4545H221.038ZM222.366 75V68.4545H223.371V75H222.366ZM222.877 67.3636C222.681 67.3636 222.512 67.2969 222.37 67.1634C222.231 67.0298 222.161 66.8693 222.161 66.6818C222.161 66.4943 222.231 66.3338 222.37 66.2003C222.512 66.0668 222.681 66 222.877 66C223.073 66 223.241 66.0668 223.38 66.2003C223.522 66.3338 223.593 66.4943 223.593 66.6818C223.593 66.8693 223.522 67.0298 223.38 67.1634C223.241 67.2969 223.073 67.3636 222.877 67.3636ZM227.873 75.1364C227.259 75.1364 226.73 74.9915 226.287 74.7017C225.844 74.4119 225.503 74.0128 225.265 73.5043C225.026 72.9957 224.907 72.4148 224.907 71.7614C224.907 71.0966 225.029 70.5099 225.273 70.0014C225.52 69.4901 225.864 69.0909 226.304 68.804C226.748 68.5142 227.265 68.3693 227.855 68.3693C228.316 68.3693 228.73 68.4545 229.1 68.625C229.469 68.7955 229.772 69.0341 230.007 69.3409C230.243 69.6477 230.39 70.0057 230.446 70.4148H229.441C229.364 70.1165 229.194 69.8523 228.929 69.6222C228.668 69.3892 228.316 69.2727 227.873 69.2727C227.48 69.2727 227.137 69.375 226.841 69.5795C226.549 69.7812 226.32 70.0668 226.155 70.4361C225.993 70.8026 225.912 71.233 225.912 71.7273C225.912 72.233 225.992 72.6733 226.151 73.0483C226.313 73.4233 226.54 73.7145 226.833 73.9219C227.128 74.1293 227.475 74.233 227.873 74.233C228.134 74.233 228.371 74.1875 228.584 74.0966C228.797 74.0057 228.978 73.875 229.125 73.7045C229.273 73.5341 229.378 73.3295 229.441 73.0909H230.446C230.39 73.4773 230.249 73.8253 230.025 74.1349C229.803 74.4418 229.509 74.6861 229.142 74.8679C228.779 75.0469 228.355 75.1364 227.873 75.1364ZM234.661 75.1364C234.03 75.1364 233.486 74.9972 233.029 74.7188C232.574 74.4375 232.223 74.0455 231.976 73.5426C231.732 73.0369 231.61 72.4489 231.61 71.7784C231.61 71.108 231.732 70.517 231.976 70.0057C232.223 69.4915 232.567 69.0909 233.007 68.804C233.451 68.5142 233.968 68.3693 234.559 68.3693C234.9 68.3693 235.236 68.4261 235.569 68.5398C235.901 68.6534 236.203 68.8381 236.476 69.0938C236.749 69.3466 236.966 69.6818 237.128 70.0994C237.29 70.517 237.371 71.0312 237.371 71.642V72.0682H232.326V71.1989H236.348C236.348 70.8295 236.275 70.5 236.127 70.2102C235.982 69.9205 235.775 69.6918 235.505 69.5241C235.238 69.3565 234.922 69.2727 234.559 69.2727C234.158 69.2727 233.811 69.3722 233.519 69.571C233.229 69.767 233.006 70.0227 232.85 70.3381C232.694 70.6534 232.615 70.9915 232.615 71.3523V71.9318C232.615 72.4261 232.701 72.8452 232.871 73.1889C233.044 73.5298 233.284 73.7898 233.591 73.9688C233.898 74.1449 234.255 74.233 234.661 74.233C234.925 74.233 235.164 74.196 235.377 74.1222C235.593 74.0455 235.779 73.9318 235.935 73.7812C236.091 73.6278 236.212 73.4375 236.297 73.2102L237.269 73.483C237.167 73.8125 236.995 74.1023 236.753 74.3523C236.512 74.5994 236.213 74.7926 235.858 74.9318C235.503 75.0682 235.104 75.1364 234.661 75.1364ZM244.202 75.1534C243.787 75.1534 243.411 75.0753 243.073 74.919C242.735 74.7599 242.466 74.5312 242.267 74.233C242.069 73.9318 241.969 73.5682 241.969 73.142C241.969 72.767 242.043 72.4631 242.191 72.2301C242.338 71.9943 242.536 71.8097 242.783 71.6761C243.03 71.5426 243.303 71.4432 243.601 71.3778C243.902 71.3097 244.205 71.2557 244.509 71.2159C244.907 71.1648 245.229 71.1264 245.476 71.1009C245.726 71.0724 245.908 71.0256 246.022 70.9602C246.138 70.8949 246.196 70.7812 246.196 70.6193V70.5852C246.196 70.1648 246.081 69.8381 245.851 69.6051C245.624 69.3722 245.279 69.2557 244.816 69.2557C244.336 69.2557 243.959 69.3608 243.686 69.571C243.414 69.7812 243.222 70.0057 243.111 70.2443L242.157 69.9034C242.327 69.5057 242.554 69.196 242.838 68.9744C243.125 68.75 243.438 68.5937 243.776 68.5057C244.117 68.4148 244.452 68.3693 244.782 68.3693C244.992 68.3693 245.233 68.3949 245.506 68.446C245.782 68.4943 246.047 68.5952 246.303 68.7486C246.561 68.902 246.776 69.1335 246.946 69.4432C247.117 69.7528 247.202 70.1676 247.202 70.6875V75H246.196V74.1136H246.145C246.077 74.2557 245.963 74.4077 245.804 74.5696C245.645 74.7315 245.434 74.8693 245.169 74.983C244.905 75.0966 244.583 75.1534 244.202 75.1534ZM244.355 74.25C244.753 74.25 245.088 74.1719 245.361 74.0156C245.637 73.8594 245.844 73.6577 245.983 73.4105C246.125 73.1634 246.196 72.9034 246.196 72.6307V71.7102C246.154 71.7614 246.06 71.8082 245.915 71.8509C245.773 71.8906 245.608 71.9261 245.421 71.9574C245.236 71.9858 245.056 72.0114 244.88 72.0341C244.706 72.054 244.566 72.071 244.458 72.0852C244.196 72.1193 243.952 72.1747 243.725 72.2514C243.5 72.3253 243.319 72.4375 243.179 72.5881C243.043 72.7358 242.975 72.9375 242.975 73.1932C242.975 73.5426 243.104 73.8068 243.363 73.9858C243.624 74.1619 243.955 74.25 244.355 74.25ZM251.884 68.4545V69.3068H248.492V68.4545H251.884ZM249.481 66.8864H250.487V73.125C250.487 73.4091 250.528 73.6222 250.61 73.7642C250.695 73.9034 250.803 73.9972 250.934 74.0455C251.067 74.0909 251.208 74.1136 251.356 74.1136C251.467 74.1136 251.558 74.108 251.629 74.0966C251.7 74.0824 251.756 74.071 251.799 74.0625L252.004 74.9659C251.935 74.9915 251.84 75.017 251.718 75.0426C251.596 75.071 251.441 75.0852 251.254 75.0852C250.969 75.0852 250.691 75.0241 250.418 74.902C250.148 74.7798 249.924 74.5938 249.745 74.3438C249.569 74.0938 249.481 73.7784 249.481 73.3977V66.8864ZM42.5043 81.2727V90H40.6591V83.0241H40.608L38.6094 84.277V82.6406L40.7699 81.2727H42.5043ZM44.5785 90V88.6705L47.685 85.794C47.9492 85.5384 48.1708 85.3082 48.3498 85.1037C48.5316 84.8991 48.6694 84.6989 48.7631 84.5028C48.8569 84.304 48.9038 84.0895 48.9038 83.8594C48.9038 83.6037 48.8455 83.3835 48.729 83.1989C48.6126 83.0114 48.4535 82.8679 48.2518 82.7685C48.0501 82.6662 47.8214 82.6151 47.5657 82.6151C47.2987 82.6151 47.0657 82.669 46.8668 82.777C46.668 82.8849 46.5146 83.0398 46.4066 83.2415C46.2987 83.4432 46.2447 83.6832 46.2447 83.9616H44.4933C44.4933 83.3906 44.6225 82.8949 44.881 82.4744C45.1396 82.054 45.5018 81.7287 45.9677 81.4986C46.4336 81.2685 46.9705 81.1534 47.5785 81.1534C48.2035 81.1534 48.7475 81.2642 49.2106 81.4858C49.6765 81.7045 50.0387 82.0085 50.2972 82.3977C50.5558 82.7869 50.685 83.233 50.685 83.7358C50.685 84.0653 50.6197 84.3906 50.489 84.7116C50.3612 85.0327 50.1325 85.3892 49.8029 85.7812C49.4734 86.1705 49.0089 86.6378 48.4094 87.1832L47.1353 88.4318V88.4915H50.8001V90H44.5785ZM53.2152 88.9858C52.9339 88.9858 52.6925 88.8864 52.4908 88.6875C52.2919 88.4886 52.1925 88.2472 52.1925 87.9631C52.1925 87.6847 52.2919 87.446 52.4908 87.2472C52.6925 87.0483 52.9339 86.9489 53.2152 86.9489C53.4879 86.9489 53.7266 87.0483 53.9311 87.2472C54.1357 87.446 54.2379 87.6847 54.2379 87.9631C54.2379 88.1506 54.1896 88.3224 54.093 88.4787C53.9993 88.6321 53.8757 88.7557 53.7223 88.8494C53.5689 88.9403 53.3999 88.9858 53.2152 88.9858ZM53.2152 84.7031C52.9339 84.7031 52.6925 84.6037 52.4908 84.4048C52.2919 84.206 52.1925 83.9645 52.1925 83.6804C52.1925 83.402 52.2919 83.1648 52.4908 82.9688C52.6925 82.7699 52.9339 82.6705 53.2152 82.6705C53.4879 82.6705 53.7266 82.7699 53.9311 82.9688C54.1357 83.1648 54.2379 83.402 54.2379 83.6804C54.2379 83.8707 54.1896 84.044 54.093 84.2003C53.9993 84.3537 53.8757 84.4759 53.7223 84.5668C53.5689 84.6577 53.3999 84.7031 53.2152 84.7031ZM59.1332 90.1918C58.4002 90.1889 57.7695 90.0085 57.2411 89.6506C56.7156 89.2926 56.3107 88.7741 56.0266 88.0952C55.7454 87.4162 55.6062 86.5994 55.609 85.6449C55.609 84.6932 55.7496 83.8821 56.0309 83.2116C56.315 82.5412 56.7198 82.0312 57.2454 81.6818C57.7738 81.3295 58.4031 81.1534 59.1332 81.1534C59.8633 81.1534 60.4911 81.3295 61.0167 81.6818C61.5451 82.0341 61.9513 82.5455 62.2354 83.2159C62.5195 83.8835 62.6602 84.6932 62.6573 85.6449C62.6573 86.6023 62.5153 87.4205 62.2312 88.0994C61.9499 88.7784 61.5465 89.2969 61.021 89.6548C60.4954 90.0128 59.8661 90.1918 59.1332 90.1918ZM59.1332 88.6619C59.6332 88.6619 60.0323 88.4105 60.3306 87.9077C60.6289 87.4048 60.7766 86.6506 60.7738 85.6449C60.7738 84.983 60.7056 84.4318 60.5692 83.9915C60.4357 83.5511 60.2454 83.2202 59.9982 82.9986C59.7539 82.777 59.4656 82.6662 59.1332 82.6662C58.636 82.6662 58.2383 82.9148 57.94 83.4119C57.6417 83.9091 57.4911 84.6534 57.4883 85.6449C57.4883 86.3153 57.555 86.875 57.6886 87.3239C57.8249 87.7699 58.0167 88.1051 58.2638 88.3295C58.511 88.5511 58.8008 88.6619 59.1332 88.6619ZM67.3949 90.1918C66.6619 90.1889 66.0313 90.0085 65.5028 89.6506C64.9773 89.2926 64.5724 88.7741 64.2884 88.0952C64.0071 87.4162 63.8679 86.5994 63.8707 85.6449C63.8707 84.6932 64.0114 83.8821 64.2926 83.2116C64.5767 82.5412 64.9815 82.0312 65.5071 81.6818C66.0355 81.3295 66.6648 81.1534 67.3949 81.1534C68.125 81.1534 68.7528 81.3295 69.2784 81.6818C69.8068 82.0341 70.2131 82.5455 70.4972 83.2159C70.7813 83.8835 70.9219 84.6932 70.919 85.6449C70.919 86.6023 70.777 87.4205 70.4929 88.0994C70.2116 88.7784 69.8082 89.2969 69.2827 89.6548C68.7571 90.0128 68.1278 90.1918 67.3949 90.1918ZM67.3949 88.6619C67.8949 88.6619 68.294 88.4105 68.5923 87.9077C68.8906 87.4048 69.0384 86.6506 69.0355 85.6449C69.0355 84.983 68.9673 84.4318 68.831 83.9915C68.6974 83.5511 68.5071 83.2202 68.2599 82.9986C68.0156 82.777 67.7273 82.6662 67.3949 82.6662C66.8977 82.6662 66.5 82.9148 66.2017 83.4119C65.9034 83.9091 65.7528 84.6534 65.75 85.6449C65.75 86.3153 65.8168 86.875 65.9503 87.3239C66.0866 87.7699 66.2784 88.1051 66.5256 88.3295C66.7727 88.5511 67.0625 88.6619 67.3949 88.6619ZM72.2859 90V81.2727H75.729C76.391 81.2727 76.9549 81.3991 77.4208 81.652C77.8867 81.902 78.2418 82.25 78.4862 82.696C78.7333 83.1392 78.8569 83.6506 78.8569 84.2301C78.8569 84.8097 78.7319 85.321 78.4819 85.7642C78.2319 86.2074 77.8697 86.5526 77.3952 86.7997C76.9237 87.0469 76.3526 87.1705 75.6822 87.1705H73.4876V85.6918H75.3839C75.739 85.6918 76.0316 85.6307 76.2617 85.5085C76.4947 85.3835 76.668 85.2116 76.7816 84.9929C76.8981 84.7713 76.9563 84.517 76.9563 84.2301C76.9563 83.9403 76.8981 83.6875 76.7816 83.4716C76.668 83.2528 76.4947 83.0838 76.2617 82.9645C76.0288 82.8423 75.7333 82.7812 75.3754 82.7812H74.131V90H72.2859ZM80.0554 81.2727H82.331L84.7344 87.1364H84.8366L87.2401 81.2727H89.5156V90H87.7259V84.3196H87.6534L85.3949 89.9574H84.1761L81.9176 84.2983H81.8452V90H80.0554V81.2727Z" fill="#111111"/>
</svg>
