<svg width="156" height="184" viewBox="0 0 156 184" fill="none" xmlns="http://www.w3.org/2000/svg">
<path d="M16.8694 11.8971C13.5425 10.7833 12.4645 9.93684 12.4645 8.82251C12.4645 7.61979 13.4489 7.12958 14.5262 7.12958C16.3539 7.12958 17.0945 8.06445 17.0945 10.337H28.8649C28.8649 5.92579 26.288 0 14.8541 0C7.77843 0 0.515421 2.2726 0.515421 9.26824C0.515421 15.6843 6.13906 17.7784 12.2308 20.0066C16.3068 21.521 17.1031 22.1008 17.1031 23.1701C17.1031 24.1944 16.4008 24.8629 14.9476 24.8629C13.0741 24.8629 11.7068 23.5708 11.7068 21.4321H0C0 28.918 5.24818 32.973 14.5733 32.973C24.0857 32.973 29.0519 29.0519 29.0519 22.5909C29.0519 15.8176 22.8205 13.9018 16.8694 11.8971Z" fill="white"/>
<path d="M39.5913 10.1271H47.1871V32.973H59.1359V10.1271H66.7309V0H39.5913V10.1271Z" fill="white"/>
<path d="M94.4556 21.1031L97.5771 10.3168L100.647 21.1031H94.4556ZM90.4924 0L77.3159 32.973H91.0373L92.0773 29.3466H103.024L104.065 32.973H118.283L104.659 0H90.4924Z" fill="white"/>
<path d="M97.9586 66.5998C94.0971 66.5998 91.7318 64.0599 91.7318 60.4506C91.7318 57.242 93.7107 54.3014 97.9586 54.3014C101.174 54.3014 102.858 55.8668 103.513 57.8887H116.432C115.44 50.2404 109.012 43.9641 97.9105 43.9641C86.0845 43.9641 79.1821 51.7613 79.1821 60.4506C79.1821 69.1393 86.0845 76.9371 98.0538 76.9371C109.224 76.9371 115.471 70.5531 116.574 63.1073H103.682C103.101 64.9878 101.362 66.5998 97.9586 66.5998Z" fill="white"/>
<path d="M101.025 87.9976L93.1 100.951V87.9976H80.4678V120.97H93.1V108.064L101.025 120.97H115.639L103.848 104.484L115.639 87.9976H101.025Z" fill="white"/>
<path d="M126.297 87.928V98.0552H134.326V120.901H146.958V98.0552H154.988V87.928H126.297Z" fill="white"/>
<path d="M152.16 175.235V153.255L148.275 157.91H144.53L151.145 150.035H155.065V175.235H152.16Z" fill="white"/>
<path d="M117.438 175.235V165.785C117.438 164.992 117.624 164.28 117.997 163.65C118.371 162.997 118.872 162.483 119.502 162.11C120.156 161.737 120.879 161.55 121.673 161.55H138.647C139.021 161.55 139.336 161.422 139.593 161.165C139.873 160.885 140.013 160.558 140.013 160.185V154.27C140.013 153.897 139.873 153.582 139.593 153.325C139.336 153.045 139.021 152.905 138.647 152.905H121.673C121.299 152.905 120.972 153.045 120.692 153.325C120.436 153.582 120.307 153.897 120.307 154.27V155.25H117.438V154.27C117.438 153.477 117.624 152.765 117.997 152.135C118.371 151.482 118.872 150.968 119.502 150.595C120.156 150.198 120.879 150 121.673 150H138.647C139.417 150 140.118 150.198 140.748 150.595C141.401 150.968 141.914 151.482 142.287 152.135C142.684 152.765 142.882 153.477 142.882 154.27V160.185C142.882 160.955 142.684 161.667 142.287 162.32C141.914 162.95 141.401 163.463 140.748 163.86C140.118 164.233 139.417 164.42 138.647 164.42H121.673C121.299 164.42 120.972 164.56 120.692 164.84C120.436 165.097 120.307 165.412 120.307 165.785V171C120.307 171.373 120.436 171.7 120.692 171.98C120.972 172.237 121.299 172.365 121.673 172.365H142.882V175.235H117.438Z" fill="white"/>
<path d="M87.1615 183.285V180.38H99.8315C100.205 180.38 100.52 180.24 100.777 179.96C101.057 179.703 101.197 179.388 101.197 179.015V175.235H87.6515C86.8815 175.235 86.1698 175.048 85.5165 174.675C84.8865 174.278 84.3732 173.765 83.9765 173.135C83.6032 172.482 83.4165 171.77 83.4165 171V155.005H86.2865V171C86.2865 171.373 86.4148 171.7 86.6715 171.98C86.9515 172.237 87.2782 172.365 87.6515 172.365H99.8315C100.205 172.365 100.52 172.237 100.777 171.98C101.057 171.7 101.197 171.373 101.197 171V155.005H104.067V179.015C104.067 179.808 103.88 180.52 103.507 181.15C103.133 181.803 102.62 182.317 101.967 182.69C101.337 183.087 100.625 183.285 99.8315 183.285H87.1615Z" fill="white"/>
<path d="M63.6994 175.235C62.9294 175.235 62.2177 175.048 61.5644 174.675C60.9344 174.278 60.421 173.765 60.0244 173.135C59.651 172.482 59.4644 171.77 59.4644 171V163.65H77.2444V159.17C77.2444 158.797 77.1044 158.482 76.8244 158.225C76.5677 157.945 76.2527 157.805 75.8794 157.805H59.4644V154.935H75.8794C76.6727 154.935 77.3844 155.133 78.0144 155.53C78.6677 155.903 79.181 156.417 79.5544 157.07C79.951 157.7 80.1494 158.4 80.1494 159.17V175.235H63.6994ZM63.6994 172.365H77.2444V166.52H62.3344V171C62.3344 171.373 62.4627 171.7 62.7194 171.98C62.9994 172.237 63.326 172.365 63.6994 172.365Z" fill="white"/>
<path d="M25.3208 175.235V154.935H52.1308C52.9241 154.935 53.6358 155.133 54.2658 155.53C54.9191 155.903 55.4325 156.417 55.8058 157.07C56.1791 157.7 56.3658 158.4 56.3658 159.17V175.235H53.5308V159.17C53.5308 158.797 53.3908 158.482 53.1108 158.225C52.8308 157.945 52.5041 157.805 52.1308 157.805H43.6958C43.3225 157.805 42.9958 157.945 42.7158 158.225C42.4591 158.482 42.3308 158.797 42.3308 159.17V175.235H39.4258V159.17C39.4258 158.797 39.2858 158.482 39.0058 158.225C38.7491 157.945 38.4341 157.805 38.0608 157.805H29.5908C29.2175 157.805 28.8908 157.945 28.6108 158.225C28.3541 158.482 28.2258 158.797 28.2258 159.17V175.235H25.3208Z" fill="white"/>
</svg>
