<svg width="243" height="117" viewBox="0 0 243 117" fill="none" xmlns="http://www.w3.org/2000/svg">
<path d="M218.679 45.6626C219.579 45.6626 220.308 46.3942 220.305 47.2944L220.257 59.3774C222.635 56.6561 226.13 54.9351 230.028 54.9351C237.192 54.9352 243 60.7434 243 67.9077C243 75.0723 237.192 80.8812 230.028 80.8813C226.093 80.8813 222.571 79.1277 220.192 76.3618L220.182 78.978C220.178 79.8395 219.479 80.5356 218.617 80.5356C217.754 80.5355 217.053 79.8358 217.053 78.9722V47.2886C217.053 46.3908 217.781 45.6628 218.679 45.6626ZM230.028 58.3813C224.767 58.3813 220.502 62.6459 220.501 67.9067C220.501 73.1679 224.766 77.4331 230.028 77.4331C235.288 77.4328 239.553 73.1677 239.553 67.9067C239.553 62.6461 235.288 58.3817 230.028 58.3813Z" fill="white"/>
<path d="M203.703 75.5779C203.703 76.6193 203.736 77.5956 203.801 78.5068C203.818 78.7403 203.832 78.9684 203.845 79.1913C203.9 80.1872 203.09 80.9963 202.093 80.9963C201.095 80.9963 200.291 80.1872 200.24 79.191C200.239 79.1744 200.239 79.1579 200.238 79.1414C200.205 78.5231 200.189 77.8885 200.189 77.2376H200.091C199.831 77.7908 199.457 78.3278 198.969 78.8485C198.513 79.3692 197.96 79.841 197.309 80.2641C196.658 80.6546 195.926 80.9638 195.112 81.1916C194.299 81.4519 193.42 81.5821 192.476 81.5821C190.979 81.5821 189.678 81.3543 188.571 80.8987C187.497 80.4431 186.602 79.8085 185.886 78.9949C185.17 78.1814 184.633 77.2051 184.275 76.0661C183.95 74.8945 183.787 73.6254 183.787 72.2586V56.2014C183.787 55.1499 184.64 54.2976 185.691 54.2976C186.743 54.2976 187.595 55.1499 187.595 56.2014V71.8681C187.595 73.7881 188.018 75.3013 188.864 76.4078C189.71 77.5142 191.028 78.0675 192.818 78.0675C194.055 78.0675 195.112 77.8559 195.991 77.4329C196.902 77.0098 197.634 76.4078 198.187 75.6268C198.773 74.8457 199.196 73.9183 199.457 72.8444C199.75 71.7705 199.896 70.5826 199.896 69.2809V56.2014C199.896 55.1499 200.748 54.2976 201.8 54.2976C202.851 54.2976 203.703 55.1499 203.703 56.2014V75.5779Z" fill="white"/>
<path d="M166.824 47.5746C166.824 46.5232 167.676 45.6709 168.727 45.6709C169.779 45.6709 170.631 46.5232 170.631 47.5746V79.093C170.631 80.1445 169.779 80.9968 168.727 80.9968C167.676 80.9968 166.824 80.1445 166.824 79.093V47.5746Z" fill="white"/>
<path d="M148.918 53.5624C147.877 52.163 146.591 51.1217 145.062 50.4383C143.532 49.7223 141.938 49.3644 140.278 49.3644C138.358 49.3644 136.584 49.7549 134.957 50.5359C133.363 51.3169 131.979 52.3746 130.808 53.7088C129.636 55.0105 128.725 56.54 128.074 58.2973C127.424 60.0221 127.098 61.8282 127.098 63.7157C127.098 65.7333 127.424 67.6208 128.074 69.3781C128.725 71.1029 129.62 72.6161 130.759 73.9178C131.931 75.187 133.314 76.1958 134.908 76.9443C136.535 77.6928 138.325 78.067 140.278 78.067C142.393 78.067 144.281 77.6602 145.94 76.8467C147.394 76.1057 148.685 75.0903 149.814 73.8004C150.127 73.4429 150.541 73.1853 151.008 73.096C152.229 72.8625 153.36 73.798 153.36 75.0407V75.1355C153.36 75.5808 153.219 76.017 152.937 76.362C151.461 78.1709 149.714 79.5203 147.698 80.4101C145.517 81.3864 143.044 81.8745 140.278 81.8745C137.805 81.8745 135.494 81.4189 133.346 80.5077C131.198 79.5965 129.327 78.3436 127.733 76.749C126.171 75.1219 124.934 73.2019 124.023 70.989C123.144 68.7761 122.705 66.3517 122.705 63.7157C122.705 61.1774 123.128 58.8018 123.974 56.5888C124.853 54.3759 126.073 52.4559 127.635 50.8288C129.197 49.2017 131.052 47.9162 133.2 46.9725C135.348 46.0288 137.707 45.5569 140.278 45.5569C142.621 45.5569 144.866 45.9799 147.014 46.826C149.195 47.6722 151.017 49.0552 152.481 50.9752L152.74 51.4031C153.387 52.4746 153 53.8698 151.893 54.4546C150.962 54.9465 149.812 54.7018 149.162 53.8734L148.918 53.5624Z" fill="white"/>
<path d="M4.279 41.1743C0.425372 70.7195 0.994302 80.5491 4.92125 86.1344C13.1419 99.9277 35.8877 109.457 50.5505 105.204C65.2133 100.951 86.44 89.6464 102.3 68.0814C118.159 46.5164 83.0164 15.2227 55.6621 5.20612C28.3079 -4.81043 9.20548 3.40373 4.279 41.1743Z" fill="#B8D341"/>
<path d="M71.1843 98.1305C98.7942 85.2364 104.316 74.7569 107.688 68.8195C116.644 55.4924 116.514 42.3365 106.403 30.8978C96.2917 19.4591 81.3537 4.56406 53.379 0.265111C26.9206 -3.80081 14.1119 39.8083 16.747 68.8194C19.3822 97.8304 36.6718 114.248 71.1843 98.1305Z" fill="#2EC0D7"/>
<path d="M101.264 54.2636C87.5764 26.9513 66.8441 13.5583 60.8004 10.3444C47.1959 1.73797 40.5113 5.03223 29.3282 15.4828C18.1452 25.9334 4.82905 46.173 0.425175 72.6465C-3.9787 99.12 26.2319 115.948 72.2958 109.257C101.197 105.059 118.374 88.4038 101.264 54.2636Z" fill="#1F7099"/>
<path d="M64.012 15.4827C33.696 18.5657 15.8403 28.3285 10.702 32.8246C-2.14378 42.4589 0.425379 52.0932 6.20599 66.2236C11.9866 80.354 25.4747 100.265 48.5971 113.753C71.7195 127.241 98.6957 89.3461 105.761 61.0853C112.826 32.8246 101.907 11.629 64.012 15.4827Z" fill="#0E183D"/>
<path d="M15.2468 82.2512C13.7286 81.5541 13.0486 79.7694 13.7181 78.2388L31.9889 36.4673C32.2604 35.8467 32.6829 35.3038 33.2178 34.8882C34.6835 33.7493 36.736 33.7503 38.2017 34.8891C38.7356 35.304 39.158 35.8458 39.4297 36.465L57.7278 78.1586C58.417 79.7291 57.7108 81.5616 56.1458 82.2634C54.5516 82.9783 52.6811 82.2464 51.9954 80.6394L34.3398 39.2622H37.0117L19.3434 80.6692C18.6665 82.2555 16.8142 82.9709 15.2468 82.2512ZM20.2454 68.0214L22.0489 62.6776H48.3674L50.3045 68.0214H20.2454Z" fill="white"/>
<path d="M92.6911 80.8081V35.7778C92.6911 34.5016 91.6565 33.467 90.3803 33.467C89.1006 33.467 88.0646 34.5071 88.0696 35.7868L88.2449 80.8168C88.2496 82.0412 89.2436 83.0313 90.468 83.0313C91.6958 83.0313 92.6911 82.0359 92.6911 80.8081Z" fill="white"/>
<path d="M74.252 46.6455C84.4348 46.6455 92.6902 54.9003 92.6904 65.083C92.6904 75.2659 84.4349 83.5215 74.252 83.5215C64.0692 83.5213 55.8145 75.2658 55.8145 65.083C55.8147 54.9004 64.0693 46.6457 74.252 46.6455ZM74.2529 51.5439C66.7757 51.5442 60.7141 57.6058 60.7139 65.083C60.7139 72.5604 66.7756 78.6228 74.2529 78.623C81.7305 78.623 87.793 72.5605 87.793 65.083C87.7928 57.6057 81.7303 51.5439 74.2529 51.5439Z" fill="white"/>
</svg>
